<?xml version="1.0" encoding="utf-8"?>
<!-- Generator: Adobe Illustrator 26.3.1, SVG Export Plug-In . SVG Version: 6.00 Build 0)  -->
<svg version="1.1" id="capricciosa" xmlns="http://www.w3.org/2000/svg" xmlns:xlink="http://www.w3.org/1999/xlink" x="0px"
	 y="0px" viewBox="0 0 270 270" style="enable-background:new 0 0 270 270;" xml:space="preserve">
<style type="text/css">
	.st0{fill:#EDA156;}
	.st1{fill:#F7CF6D;}
	.st2{fill:#C1503E;}
	.st3{fill:#F4C356;}
	.st4{fill:#D3714F;}
	.st5{fill:#38833C;}
	.st6{fill:#58975B;}
	.st7{fill:#F4F1EE;}
</style>
<g>
	<path class="st0" d="M134.93,126.74l65.56-65.56c1.21-1.21,1.22-3.16,0.03-4.38c-0.16-0.16-0.32-0.32-0.48-0.48
		c-43.45-43.45-113.9-43.45-157.35,0C-0.9,99.9-0.9,170.09,42.68,213.67c43.45,43.45,113.9,43.45,157.35,0
		c21.89-21.89,32.75-50.64,32.58-79.34c-0.01-1.71-1.41-3.08-3.11-3.08l-92.7,0C134.44,131.25,133.27,128.4,134.93,126.74z"/>
	<path class="st1" d="M134.93,126.74l62.73-62.73c-0.85-0.91-1.71-1.82-2.6-2.71c-40.7-40.7-106.69-40.7-147.39,0
		c-40.82,40.82-40.82,106.57,0,147.39c40.7,40.7,106.69,40.7,147.39,0c21.3-21.3,31.45-49.54,30.45-77.45l-88.72,0
		C134.44,131.25,133.27,128.4,134.93,126.74z"/>
	<path class="st2" d="M134.93,126.74l53.94-53.94c-0.85-0.92-1.71-1.83-2.6-2.72c-35.85-35.85-93.97-35.85-129.81,0
		c-35.81,35.81-35.81,94,0,129.82c35.85,35.85,93.97,35.85,129.82,0c18.88-18.88,27.81-43.93,26.8-68.66l-76.28,0
		C134.44,131.25,133.27,128.4,134.93,126.74z"/>
	<path class="st1" d="M200.04,56.32c-0.89-0.89-1.8-1.75-2.71-2.61l-72.22,72.22V23.82c-2.5-0.08-5.01-0.08-7.52,0l0,102.1
		l-72.2-72.2c-0.92,0.86-1.83,1.73-2.73,2.63c-0.88,0.88-1.74,1.78-2.59,2.69l72.22,72.22H10.15c-0.08,2.5-0.08,5.01,0,7.52h102.13
		l-72.2,72.2c0.85,0.91,1.72,1.82,2.61,2.71c0.89,0.89,1.79,1.75,2.71,2.61l72.2-72.2l0,102.13c2.5,0.08,5.01,0.08,7.52,0l0-102.14
		l72.22,72.22c0.9-0.85,1.8-1.71,2.69-2.59c0.9-0.9,1.77-1.81,2.63-2.73l-72.2-72.2l102.09,0c0.05-1.48,0.07-2.95,0.06-4.43
		c-0.01-1.71-1.41-3.09-3.11-3.09h-92.69c-2.35,0-3.53-2.84-1.87-4.5l65.56-65.56c1.21-1.21,1.22-3.16,0.03-4.38
		C200.36,56.64,200.2,56.48,200.04,56.32z"/>
	<g>
		<path class="st3" d="M29.65,131.25h-19.5c-0.08,2.5-0.08,5.01,0,7.52h19.5C29.55,136.26,29.55,133.75,29.65,131.25z"/>
		<path class="st3" d="M56.45,70.09c0.89-0.89,1.8-1.75,2.71-2.6L45.39,53.72c-0.92,0.86-1.83,1.73-2.73,2.63
			c-0.88,0.88-1.74,1.78-2.59,2.69l13.78,13.78C54.7,71.89,55.56,70.98,56.45,70.09z"/>
		<path class="st3" d="M56.45,199.9c-0.89-0.89-1.75-1.8-2.6-2.72l-13.78,13.78c0.85,0.91,1.72,1.82,2.61,2.71
			c0.89,0.89,1.79,1.75,2.71,2.61l13.78-13.78C58.25,201.66,57.34,200.8,56.45,199.9z"/>
		<path class="st3" d="M125.11,43.28l0-19.47c-2.5-0.08-5.01-0.08-7.52,0v19.47C120.1,43.18,122.61,43.18,125.11,43.28z"/>
		<path class="st3" d="M186.27,199.9c-0.89,0.89-1.8,1.75-2.72,2.6l13.78,13.78c0.9-0.85,1.8-1.71,2.69-2.59
			c0.9-0.9,1.77-1.81,2.63-2.73l-13.78-13.78C188.02,198.11,187.16,199.01,186.27,199.9z"/>
		<path class="st3" d="M197.33,53.71l-13.78,13.78c0.92,0.85,1.83,1.71,2.72,2.6c0.89,0.89,1.75,1.8,2.6,2.72l11.62-11.62
			c1.21-1.21,1.22-3.16,0.03-4.38c-0.16-0.16-0.32-0.32-0.48-0.48C199.15,55.43,198.24,54.57,197.33,53.71z"/>
		<path class="st3" d="M117.59,226.71v19.5c2.5,0.08,5.01,0.08,7.52,0l0-19.5C122.61,226.81,120.1,226.81,117.59,226.71z"/>
		<path class="st3" d="M213.07,138.76h19.46c0.05-1.48,0.07-2.95,0.06-4.43c-0.01-1.71-1.41-3.09-3.12-3.08h-16.41
			C213.17,133.75,213.17,136.26,213.07,138.76z"/>
	</g>
	<circle class="st4" cx="189.24" cy="101.33" r="9.62"/>
	<path class="st1" d="M230.09,46.87l-67.21,67.21c-1.85,1.85-0.54,5.01,2.07,5.01l95.03,0l0.02-0.03
		C259.12,93.03,249.15,67.24,230.09,46.87L230.09,46.87z"/>
	<path class="st0" d="M230.09,46.87l-5.72,5.72c16.83,19.11,25.99,42.61,27.47,66.5h8.14l0.02-0.03
		C259.12,93.03,249.15,67.24,230.09,46.87L230.09,46.87z"/>
	<path class="st2" d="M240.52,119.09c-0.86-21.06-8.92-41.88-24.21-58.44l-53.44,53.44c-1.85,1.85-0.54,5.01,2.07,5.01
		L240.52,119.09z"/>
	<g>
		<path class="st5" d="M49.97,118.73c-3.02-1.17-5.68-4.3-4.8-6.58s4.95-2.81,7.98-1.64c3.02,1.17,3.86,3.59,2.97,5.87
			S52.99,119.9,49.97,118.73z"/>
		<path class="st6" d="M47.91,113.21L47.91,113.21c0.1-0.25,0.38-0.38,0.63-0.28l9.58,3.71l0,0l-0.35,0.91l0,0l-9.58-3.71
			C47.93,113.74,47.81,113.46,47.91,113.21z"/>
	</g>
	<g>
		<path class="st7" d="M137.16,168.11l-6.06,13.32c0,0-0.41,4.02,0.4,5.04s4.65,2.91,6.53,2.27c2.03-0.69,5.22-1.9,7.19-5.18
			c1.42-2.37,2.84-6.97,2.84-9.39s-2.42-4.85-3.63-6.06C143.22,166.9,139.59,165.69,137.16,168.11z"/>
	</g>
	<g>
		<path class="st7" d="M64.2,116.09l12.69,7.29c0,0,3.96,0.79,5.05,0.08c1.09-0.71,3.34-4.35,2.88-6.29
			c-0.5-2.09-1.4-5.38-4.48-7.65c-2.22-1.64-6.67-3.48-9.08-3.71s-5.05,1.95-6.37,3.04S62.02,113.45,64.2,116.09z"/>
	</g>
	<g>
		<path class="st7" d="M130.01,83.6l12.36,2.92c0,0,4.09-0.6,5.35-1.7s4.21-5.59,4.02-7.39c-0.21-1.94-0.66-4.96-3.59-6.18
			c-2.11-0.88-6.55-1.18-9.07-0.56c-2.53,0.62-5.67,3.77-7.23,5.34S128.1,81.69,130.01,83.6z"/>
	</g>
	<g>
		<path class="st7" d="M167.23,155.91l9.25,15.88c0,0,3.82,3.34,5.45,3.25c1.63-0.09,6.36-2.65,7.07-5.04
			c0.76-2.58,1.85-6.73-0.09-11.13c-1.39-3.18-5.08-7.97-7.56-9.73s-6.72-1.04-8.84-0.68S166.51,151.67,167.23,155.91z"/>
	</g>
	<g>
		<path class="st7" d="M59.12,171.48l11.99-5.54c0,0,2.65-2.5,2.7-3.68c0.05-1.18-1.46-4.73-3.13-5.4c-1.8-0.72-4.69-1.78-7.97-0.69
			c-2.37,0.78-6.05,3.09-7.47,4.75c-1.43,1.66-1.2,4.74-1.08,6.28C54.26,168.74,56.03,171.71,59.12,171.48z"/>
	</g>
	<g>
		<path class="st7" d="M80.71,84.9l11.97-10.55c0,0,2.36-4.62,2.14-6.72c-0.21-2.1-2.67-8.37-4.66-9.48
			c-2.14-1.2-5.56-2.93-8.94-0.81c-2.43,1.52-5.96,5.85-7.17,8.89c-1.2,3.04-0.26,8.54,0.22,11.29S77.36,85.48,80.71,84.9z"/>
	</g>
	<g>
		<path class="st7" d="M148.02,198.64l10.8,9.88c0,0,3.69,1.64,4.91,1.18c1.22-0.46,4.2-3.52,4.18-5.51
			c-0.03-2.15-0.19-5.55-2.7-8.44c-1.81-2.08-5.75-4.85-8.05-5.6c-2.3-0.75-5.36,0.8-6.88,1.58
			C148.74,192.5,146.46,195.58,148.02,198.64z"/>
	</g>
	<g>
		<path class="st7" d="M182.44,111.05l12.36,2.92c0,0,4.09-0.6,5.35-1.7c1.27-1.11,4.21-5.59,4.02-7.39
			c-0.21-1.94-0.66-4.96-3.59-6.18c-2.11-0.88-6.55-1.18-9.07-0.56c-2.53,0.62-5.67,3.77-7.23,5.34
			C182.71,105.04,180.52,109.15,182.44,111.05z"/>
	</g>
	<g>
		<path class="st7" d="M207.34,87.66l3.92,17.96c0,0,2.6,4.35,4.19,4.77c1.58,0.42,6.86-0.56,8.27-2.62
			c1.52-2.22,3.83-5.83,3.34-10.62c-0.35-3.45-2.38-9.14-4.2-11.58c-1.82-2.44-6.08-3.06-8.21-3.36
			C212.52,81.89,207.95,83.4,207.34,87.66z"/>
	</g>
	<g>
		<path class="st7" d="M94.48,211.84l11.97-10.55c0,0,2.36-4.62,2.14-6.72c-0.21-2.1-2.67-8.37-4.66-9.48
			c-2.14-1.2-5.56-2.93-8.94-0.81c-2.43,1.52-5.96,5.85-7.17,8.89c-1.2,3.04-0.26,8.54,0.22,11.29S91.14,212.42,94.48,211.84z"/>
	</g>
	<g>
		<path class="st5" d="M99.21,100.14c-5.35-2.07-10.05-7.6-8.49-11.64s8.76-4.96,14.11-2.89s6.82,6.35,5.26,10.39
			C108.53,100.04,104.56,102.21,99.21,100.14z"/>
		<path class="st6" d="M95.56,90.38L95.56,90.38c0.17-0.45,0.67-0.67,1.12-0.5l16.96,6.56l0,0l-0.62,1.61l0,0L96.06,91.5
			C95.61,91.32,95.39,90.82,95.56,90.38z"/>
	</g>
	<g>
		<path class="st5" d="M90.2,152.96c-2.72,1.77-6.81,2.09-8.14,0.03s0.63-5.66,3.35-7.42c2.72-1.77,5.17-1.02,6.5,1.03
			C93.24,148.66,92.92,151.2,90.2,152.96z"/>
		<path class="st6" d="M84.52,151.4L84.52,151.4c-0.15-0.23-0.08-0.53,0.14-0.68l8.62-5.59l0,0l0.53,0.82l0,0l-8.62,5.59
			C84.97,151.69,84.67,151.63,84.52,151.4z"/>
	</g>
	<g>
		<path class="st5" d="M163.81,154.78c-1.95,2.59-5.68,4.29-7.64,2.82c-1.95-1.47-1.35-5.53,0.61-8.12
			c1.95-2.59,4.51-2.73,6.46-1.26C165.19,149.7,165.76,152.19,163.81,154.78z"/>
		<path class="st6" d="M157.94,155.26L157.94,155.26c-0.22-0.16-0.26-0.47-0.1-0.69l6.18-8.2l0,0l0.78,0.59l0,0l-6.18,8.2
			C158.46,155.38,158.15,155.42,157.94,155.26z"/>
	</g>
	<g>
		<path class="st5" d="M88.55,194.83c-0.93,5.66-5.39,11.4-9.66,10.69c-4.27-0.7-6.65-7.56-5.72-13.23c0.93-5.66,4.82-7.98,9.1-7.28
			C86.54,185.73,89.48,189.17,88.55,194.83z"/>
		<path class="st6" d="M79.73,200.4L79.73,200.4c-0.47-0.08-0.79-0.52-0.71-0.99l2.95-17.94l0,0l1.71,0.28l0,0l-2.95,17.94
			C80.65,200.16,80.21,200.48,79.73,200.4z"/>
	</g>
	<g>
		<path class="st5" d="M142.1,192.86c2.28,2.3,3.43,6.24,1.7,7.96c-1.74,1.72-5.66,0.54-7.95-1.76c-2.28-2.3-2.06-4.85-0.32-6.57
			C137.26,190.76,139.81,190.55,142.1,192.86z"/>
		<path class="st6" d="M141.73,198.74L141.73,198.74c-0.19,0.19-0.5,0.19-0.69,0l-7.24-7.29l0,0l0.69-0.69l0,0l7.24,7.29
			C141.92,198.24,141.92,198.55,141.73,198.74z"/>
	</g>
	<g>
		<path class="st5" d="M128.83,120.43c2.93,1.38,5.36,4.69,4.32,6.9c-1.04,2.21-5.14,2.45-8.07,1.07c-2.93-1.38-3.59-3.85-2.55-6.07
			C123.57,120.12,125.9,119.05,128.83,120.43z"/>
		<path class="st6" d="M130.5,126.08L130.5,126.08c-0.12,0.24-0.41,0.35-0.65,0.23l-9.29-4.38l0,0l0.42-0.89l0,0l9.29,4.38
			C130.51,125.54,130.61,125.84,130.5,126.08z"/>
	</g>
	<g>
		<path class="st5" d="M169.18,153.73c-0.93,5.66-5.39,11.4-9.66,10.69s-6.65-7.56-5.72-13.23c0.93-5.66,4.82-7.98,9.1-7.28
			C167.17,144.63,170.11,148.07,169.18,153.73z"/>
		<path class="st6" d="M160.37,159.3L160.37,159.3c-0.47-0.08-0.79-0.52-0.71-0.99l2.95-17.94l0,0l1.71,0.28l0,0l-2.96,17.94
			C161.29,159.06,160.84,159.38,160.37,159.3z"/>
	</g>
	<g>
		<path class="st5" d="M204.27,147.18c2.28,2.3,3.43,6.24,1.7,7.96c-1.74,1.72-5.66,0.54-7.95-1.76c-2.28-2.3-2.06-4.85-0.32-6.57
			C199.44,145.09,201.99,144.88,204.27,147.18z"/>
		<path class="st6" d="M203.9,153.06L203.9,153.06c-0.19,0.19-0.5,0.19-0.69,0l-7.24-7.29l0,0l0.69-0.69l0,0l7.24,7.29
			C204.1,152.56,204.1,152.87,203.9,153.06z"/>
	</g>
	<g>
		<path class="st5" d="M209.46,79.33c2.93,1.38,5.36,4.69,4.32,6.9c-1.04,2.21-5.14,2.45-8.07,1.07s-3.59-3.85-2.55-6.07
			C204.21,79.02,206.53,77.95,209.46,79.33z"/>
		<path class="st6" d="M211.13,84.98L211.13,84.98c-0.12,0.24-0.41,0.35-0.65,0.23l-9.29-4.38l0,0l0.42-0.89l0,0l9.29,4.38
			C211.14,84.44,211.24,84.74,211.13,84.98z"/>
	</g>
</g>
</svg>
