<?xml version="1.0" encoding="utf-8"?>
<!-- Generator: Adobe Illustrator 26.3.1, SVG Export Plug-In . SVG Version: 6.00 Build 0)  -->
<svg version="1.1" id="capricciosa" xmlns="http://www.w3.org/2000/svg" xmlns:xlink="http://www.w3.org/1999/xlink" x="0px"
	 y="0px" viewBox="0 0 270 270" style="enable-background:new 0 0 270 270;" xml:space="preserve">
<style type="text/css">
	.st0{fill:#EDA156;}
	.st1{fill:#F7CF6D;}
	.st2{fill:#C1503E;}
	.st3{fill:#F4C356;}
	.st4{fill:#D3714F;}
	.st5{fill:#F4F1EE;}
	.st6{fill:#E89885;}
	.st7{fill:#998C6B;}
</style>
<g>
	<path class="st0" d="M134.93,126.74l65.56-65.56c1.21-1.21,1.22-3.16,0.03-4.38c-0.16-0.16-0.32-0.32-0.48-0.48
		c-43.45-43.45-113.9-43.45-157.35,0C-0.9,99.9-0.9,170.09,42.68,213.67c43.45,43.45,113.9,43.45,157.35,0
		c21.89-21.89,32.75-50.64,32.58-79.34c-0.01-1.71-1.41-3.08-3.11-3.08l-92.7,0C134.44,131.25,133.27,128.4,134.93,126.74z"/>
	<path class="st1" d="M134.93,126.74l62.73-62.73c-0.85-0.91-1.71-1.82-2.6-2.71c-40.7-40.7-106.69-40.7-147.39,0
		c-40.82,40.82-40.82,106.57,0,147.39c40.7,40.7,106.69,40.7,147.39,0c21.3-21.3,31.45-49.54,30.45-77.45l-88.72,0
		C134.44,131.25,133.27,128.4,134.93,126.74z"/>
	<path class="st2" d="M134.93,126.74l53.94-53.94c-0.85-0.92-1.71-1.83-2.6-2.72c-35.85-35.85-93.97-35.85-129.81,0
		c-35.81,35.81-35.81,94,0,129.82c35.85,35.85,93.97,35.85,129.82,0c18.88-18.88,27.81-43.93,26.8-68.66l-76.28,0
		C134.44,131.25,133.27,128.4,134.93,126.74z"/>
	<g>
		<path class="st3" d="M29.65,131.25h-19.5c-0.08,2.5-0.08,5.01,0,7.52h19.5C29.55,136.26,29.55,133.75,29.65,131.25z"/>
		<path class="st3" d="M56.45,70.09c0.89-0.89,1.8-1.75,2.71-2.6L45.39,53.72c-0.92,0.86-1.83,1.73-2.73,2.63
			c-0.88,0.88-1.74,1.78-2.59,2.69l13.78,13.78C54.7,71.89,55.56,70.98,56.45,70.09z"/>
		<path class="st3" d="M56.45,199.9c-0.89-0.89-1.75-1.8-2.6-2.72l-13.78,13.78c0.85,0.91,1.72,1.82,2.61,2.71
			c0.89,0.89,1.79,1.75,2.71,2.61l13.78-13.78C58.25,201.66,57.34,200.8,56.45,199.9z"/>
		<path class="st3" d="M125.11,43.28l0-19.47c-2.5-0.08-5.01-0.08-7.52,0v19.47C120.1,43.18,122.61,43.18,125.11,43.28z"/>
		<path class="st3" d="M186.27,199.9c-0.89,0.89-1.8,1.75-2.72,2.6l13.78,13.78c0.9-0.85,1.8-1.71,2.69-2.59
			c0.9-0.9,1.77-1.81,2.63-2.73l-13.78-13.78C188.02,198.11,187.16,199.01,186.27,199.9z"/>
		<path class="st3" d="M197.33,53.71l-13.78,13.78c0.92,0.85,1.83,1.71,2.72,2.6c0.89,0.89,1.75,1.8,2.6,2.72l11.62-11.62
			c1.21-1.21,1.22-3.16,0.03-4.38c-0.16-0.16-0.32-0.32-0.48-0.48C199.15,55.43,198.24,54.57,197.33,53.71z"/>
		<path class="st3" d="M117.59,226.71v19.5c2.5,0.08,5.01,0.08,7.52,0l0-19.5C122.61,226.81,120.1,226.81,117.59,226.71z"/>
		<path class="st3" d="M213.07,138.76h19.46c0.05-1.48,0.07-2.95,0.06-4.43c-0.01-1.71-1.41-3.09-3.12-3.08h-16.41
			C213.17,133.75,213.17,136.26,213.07,138.76z"/>
	</g>
	<circle class="st4" cx="189.24" cy="101.33" r="9.62"/>
	<path class="st1" d="M230.09,46.87l-67.21,67.21c-1.85,1.85-0.54,5.01,2.07,5.01l95.03,0l0.02-0.03
		C259.12,93.03,249.15,67.24,230.09,46.87L230.09,46.87z"/>
	<path class="st0" d="M230.09,46.87l-5.72,5.72c16.83,19.11,25.99,42.61,27.47,66.5h8.14l0.02-0.03
		C259.12,93.03,249.15,67.24,230.09,46.87L230.09,46.87z"/>
	<path class="st2" d="M240.52,119.09c-0.86-21.06-8.92-41.88-24.21-58.44l-53.44,53.44c-1.85,1.85-0.54,5.01,2.07,5.01
		L240.52,119.09z"/>
	<g>
		<path class="st5" d="M137.16,168.11l-6.06,13.32c0,0-0.41,4.02,0.4,5.04s4.65,2.91,6.53,2.27c2.03-0.69,5.22-1.9,7.19-5.18
			c1.42-2.37,2.84-6.97,2.84-9.39s-2.42-4.85-3.63-6.06C143.22,166.9,139.59,165.69,137.16,168.11z"/>
	</g>
	<g>
		<path class="st5" d="M64.2,116.09l12.69,7.29c0,0,3.96,0.79,5.05,0.08c1.09-0.71,3.34-4.35,2.88-6.29
			c-0.5-2.09-1.4-5.38-4.48-7.65c-2.22-1.64-6.67-3.48-9.08-3.71s-5.05,1.95-6.37,3.04S62.02,113.45,64.2,116.09z"/>
	</g>
	<g>
		<path class="st5" d="M130.01,83.6l12.36,2.92c0,0,4.09-0.6,5.35-1.7s4.21-5.59,4.02-7.39c-0.21-1.94-0.66-4.96-3.59-6.18
			c-2.11-0.88-6.55-1.18-9.07-0.56c-2.53,0.62-5.67,3.77-7.23,5.34S128.1,81.69,130.01,83.6z"/>
	</g>
	<g>
		<path class="st5" d="M167.23,155.91l9.25,15.88c0,0,3.82,3.34,5.45,3.25c1.63-0.09,6.36-2.65,7.07-5.04
			c0.76-2.58,1.85-6.73-0.09-11.13c-1.39-3.18-5.08-7.97-7.56-9.73s-6.72-1.04-8.84-0.68S166.51,151.67,167.23,155.91z"/>
	</g>
	<g>
		<path class="st5" d="M59.12,171.48l11.99-5.54c0,0,2.65-2.5,2.7-3.68c0.05-1.18-1.46-4.73-3.13-5.4c-1.8-0.72-4.69-1.78-7.97-0.69
			c-2.37,0.78-6.05,3.09-7.47,4.75c-1.43,1.66-1.2,4.74-1.08,6.28C54.26,168.74,56.03,171.71,59.12,171.48z"/>
	</g>
	<g>
		<path class="st5" d="M80.71,84.9l11.97-10.55c0,0,2.36-4.62,2.14-6.72c-0.21-2.1-2.67-8.37-4.66-9.48
			c-2.14-1.2-5.56-2.93-8.94-0.81c-2.43,1.52-5.96,5.85-7.17,8.89c-1.2,3.04-0.26,8.54,0.22,11.29S77.36,85.48,80.71,84.9z"/>
	</g>
	<g>
		<path class="st5" d="M148.02,198.64l10.8,9.88c0,0,3.69,1.64,4.91,1.18c1.22-0.46,4.2-3.52,4.18-5.51
			c-0.03-2.15-0.19-5.55-2.7-8.44c-1.81-2.08-5.75-4.85-8.05-5.6c-2.3-0.75-5.36,0.8-6.88,1.58
			C148.74,192.5,146.46,195.58,148.02,198.64z"/>
	</g>
	<g>
		<path class="st5" d="M182.44,111.05l12.36,2.92c0,0,4.09-0.6,5.35-1.7c1.27-1.11,4.21-5.59,4.02-7.39
			c-0.21-1.94-0.66-4.96-3.59-6.18c-2.11-0.88-6.55-1.18-9.07-0.56c-2.53,0.62-5.67,3.77-7.23,5.34
			C182.71,105.04,180.52,109.15,182.44,111.05z"/>
	</g>
	<g>
		<path class="st5" d="M206.7,77.68l3.92,17.96c0,0,2.6,4.35,4.19,4.77c1.58,0.42,6.86-0.56,8.27-2.62
			c1.52-2.22,3.83-5.83,3.34-10.62c-0.35-3.45-2.38-9.14-4.2-11.58c-1.82-2.44-6.08-3.06-8.21-3.36
			C211.89,71.91,207.32,73.42,206.7,77.68z"/>
	</g>
	<g>
		<path class="st5" d="M94.48,211.84l11.97-10.55c0,0,2.36-4.62,2.14-6.72c-0.21-2.1-2.67-8.37-4.66-9.48
			c-2.14-1.2-5.56-2.93-8.94-0.81c-2.43,1.52-5.96,5.85-7.17,8.89c-1.2,3.04-0.26,8.54,0.22,11.29S91.14,212.42,94.48,211.84z"/>
	</g>
	<path class="st6" d="M97.86,90.34c10.94,0,19.85-8.9,19.85-19.85c0-2.2-1.78-3.97-3.97-3.97c-2.19,0-3.97,1.77-3.97,3.97
		c0,6.57-5.34,11.91-11.91,11.91c-2.19,0-3.97,1.77-3.97,3.97C93.89,88.56,95.67,90.34,97.86,90.34z"/>
	<path class="st6" d="M54.66,118.59c2.07,0,4.18-0.33,6.26-1.02c2.08-0.69,3.2-2.94,2.51-5.02c-0.69-2.08-2.93-3.2-5.02-2.52
		c-6.22,2.08-12.99-1.3-15.07-7.53c-0.69-2.08-2.94-3.2-5.02-2.51c-2.08,0.69-3.2,2.94-2.51,5.02
		C38.58,113.32,46.35,118.59,54.66,118.59z"/>
	<path class="st6" d="M139.75,207.11c-1.9,0.71-3.94,0.55-5.73-0.46c-1.79-1-3.12-2.74-3.76-4.88c-0.43-1.47-1.85-2.27-3.16-1.78
		c-1.31,0.49-2.02,2.08-1.58,3.56c1.74,5.88,6.63,9.61,11.87,9.61c1.31,0,2.64-0.23,3.94-0.73c1.31-0.49,2.02-2.08,1.58-3.56
		C142.47,207.42,141.06,206.62,139.75,207.11z"/>
	<path class="st6" d="M102.1,169.48c3,1.68,6.31,2.54,9.66,2.54c1.81,0,3.64-0.25,5.43-0.76c5.1-1.44,9.33-4.79,11.92-9.42
		c1.07-1.91,0.39-4.34-1.53-5.4c-1.92-1.07-4.34-0.39-5.4,1.53c-1.55,2.78-4.09,4.79-7.15,5.66c-3.05,0.87-6.27,0.48-9.06-1.07
		c-1.92-1.07-4.33-0.39-5.4,1.53C99.51,166,100.19,168.42,102.1,169.48z"/>
	<path class="st6" d="M81,155.3c-0.82-2.04-3.14-3.01-5.17-2.19c-2.03,0.82-3.01,3.14-2.19,5.17c2.47,6.09-0.48,13.04-6.57,15.51
		c-2.03,0.82-3.01,3.14-2.19,5.17c0.62,1.55,2.11,2.48,3.68,2.48c0.5,0,1-0.09,1.49-0.29C80.19,177.04,85.1,165.45,81,155.3z"/>
	<path class="st6" d="M101.11,118.42c2.16-0.4,3.58-2.47,3.19-4.62c-0.39-2.15-2.45-3.59-4.62-3.19c-5.22,0.96-9.75,3.89-12.76,8.25
		c-3.01,4.36-4.14,9.64-3.18,14.86c0.35,1.91,2.02,3.25,3.9,3.25c0.24,0,0.48-0.02,0.72-0.07c2.16-0.4,3.58-2.47,3.19-4.62
		c-0.58-3.13,0.1-6.3,1.91-8.92C95.27,120.75,97.98,119,101.11,118.42z"/>
	<path class="st6" d="M201.76,187.17c-1.9,0.71-3.94,0.55-5.73-0.46c-1.79-1-3.12-2.74-3.76-4.88c-0.43-1.47-1.85-2.27-3.16-1.78
		c-1.31,0.49-2.02,2.08-1.58,3.56c1.74,5.88,6.63,9.61,11.87,9.61c1.31,0,2.64-0.23,3.94-0.73c1.31-0.49,2.02-2.08,1.58-3.56
		C204.49,187.47,203.07,186.67,201.76,187.17z"/>
	<path class="st6" d="M139.99,163.98c16.22,0,29.41-7.08,29.41-15.77c0-1.74-2.64-3.15-5.88-3.15s-5.88,1.41-5.88,3.15
		c0,5.22-7.92,9.46-17.65,9.46c-3.25,0-5.88,1.41-5.88,3.15S136.74,163.98,139.99,163.98z"/>
	<g>
		<g>
			<path class="st7" d="M219.91,114.19C219.91,114.19,219.9,114.2,219.91,114.19c-0.51,1.07-1.23,1.95-2.02,2.5
				c-0.79,0.55-1.54,0.69-2.13,0.39l-1.87-0.96c-0.58-0.3-0.91-0.99-0.92-1.95c-0.01-0.96,0.29-2.06,0.85-3.09c0,0,0,0,0-0.01
				l4.61-8.62c1.2-0.09,2.33,0.12,3.33,0.63c1,0.51,1.83,1.31,2.45,2.34L219.91,114.19z"/>
			<path class="st7" d="M230.61,105.17c-0.84,1.51-1.96,2.6-3,2.9c-0.9,0.26-1.57-0.13-1.82-1.06c-0.61-2.26-1.85-3.92-3.57-4.8
				c-1.72-0.88-3.79-0.92-5.98-0.1c-0.91,0.34-1.61,0.03-1.92-0.86c-0.36-1.02-0.13-2.57,0.61-4.13c0.1-0.2,0.2-0.41,0.3-0.61
				c3.45-6.72,9.78-10.38,14.11-8.16c4.33,2.22,5.05,9.5,1.6,16.22C230.83,104.77,230.72,104.97,230.61,105.17z"/>
		</g>
		<g>
			<path class="st7" d="M114.03,117.83C114.03,117.83,114.03,117.83,114.03,117.83c0.28,0.37,0.45,0.8,0.47,1.2
				c0.02,0.4-0.12,0.73-0.38,0.91l-0.83,0.59c-0.26,0.19-0.61,0.21-0.98,0.06c-0.37-0.15-0.72-0.44-0.98-0.83c0,0,0,0,0,0l-2.19-3.2
				c0.26-0.49,0.62-0.91,1.07-1.23c0.45-0.32,0.96-0.52,1.51-0.61L114.03,117.83z"/>
			<path class="st7" d="M113.2,112.13c0.38,0.57,0.52,1.19,0.38,1.66c-0.12,0.4-0.44,0.61-0.86,0.56c-1.02-0.11-1.97,0.12-2.74,0.67
				c-0.77,0.55-1.29,1.37-1.52,2.37c-0.09,0.42-0.39,0.65-0.81,0.63c-0.48-0.02-1.02-0.35-1.44-0.89c-0.05-0.07-0.11-0.14-0.16-0.22
				c-1.74-2.44-1.58-5.54,0.35-6.92c1.93-1.38,4.92-0.52,6.66,1.92C113.1,111.98,113.15,112.05,113.2,112.13z"/>
		</g>
		<g>
			<path class="st7" d="M102.46,186.56C102.46,186.56,102.46,186.56,102.46,186.56c0.18-1,0.76-1.85,1.63-2.39
				c0.87-0.55,1.9-0.72,2.92-0.48l3.26,0.76c1.01,0.24,1.87,0.85,2.4,1.72c0.53,0.87,0.68,1.89,0.4,2.86c0,0,0,0,0,0.01l-2.16,8.11
				c-1.71,0.16-3.48,0.03-5.23-0.38s-3.39-1.08-4.86-1.98L102.46,186.56z"/>
			<path class="st7" d="M91.55,195.41c0.42-1.43,1.49-2.48,2.86-2.81c1.19-0.29,2.37,0.02,3.24,0.86c2.11,2.02,4.81,3.45,7.81,4.15
				c3,0.7,6.06,0.61,8.85-0.26c1.16-0.36,2.36-0.12,3.29,0.67c1.08,0.91,1.57,2.33,1.32,3.79c-0.03,0.19-0.07,0.38-0.12,0.57
				c-1.47,6.32-8.82,10.02-16.38,8.25s-12.5-8.34-11.03-14.65C91.44,195.78,91.49,195.59,91.55,195.41z"/>
		</g>
		<g>
			<path class="st7" d="M185.54,167.2C185.54,167.2,185.54,167.2,185.54,167.2c-0.43-0.34-0.72-0.8-0.81-1.3
				c-0.09-0.5,0.02-0.97,0.33-1.33l0.97-1.14c0.3-0.35,0.75-0.54,1.26-0.53c0.51,0.01,1.01,0.22,1.41,0.59c0,0,0,0,0,0l3.38,3.04
				c-0.25,0.75-0.64,1.44-1.16,2.05c-0.52,0.61-1.15,1.11-1.84,1.47L185.54,167.2z"/>
			<path class="st7" d="M187.61,174.03c-0.59-0.55-0.88-1.27-0.78-1.92c0.09-0.57,0.46-0.97,1.01-1.11
				c1.34-0.33,2.52-1.07,3.42-2.11s1.43-2.33,1.55-3.71c0.05-0.57,0.39-1,0.93-1.18c0.63-0.2,1.38-0.03,2.02,0.46
				c0.08,0.06,0.17,0.13,0.24,0.2c2.67,2.28,3.02,6.29,0.76,8.93c-2.25,2.64-6.26,2.94-8.94,0.65
				C187.77,174.18,187.69,174.1,187.61,174.03z"/>
		</g>
		<g>
			<path class="st7" d="M200.8,149.27C200.8,149.27,200.8,149.27,200.8,149.27c-0.69,0.05-1.34-0.17-1.85-0.63
				c-0.51-0.46-0.8-1.09-0.82-1.77l-0.07-2.2c-0.02-0.68,0.23-1.33,0.71-1.82c0.48-0.49,1.12-0.75,1.81-0.74c0,0,0,0,0,0l5.7,0
				c0.4,1.06,0.63,2.21,0.66,3.39s-0.12,2.34-0.46,3.42L200.8,149.27z"/>
			<path class="st7" d="M208.5,154.7c-1.01-0.03-1.88-0.53-2.34-1.34c-0.4-0.7-0.4-1.51,0-2.21c0.96-1.68,1.43-3.64,1.37-5.67
				s-0.65-3.95-1.71-5.58c-0.44-0.67-0.49-1.48-0.13-2.2c0.41-0.84,1.25-1.39,2.26-1.48c0.13-0.01,0.26-0.02,0.39-0.02
				c4.4-0.13,8.11,3.91,8.26,9.01c0.15,5.1-3.3,9.36-7.7,9.49C208.76,154.71,208.63,154.71,208.5,154.7z"/>
		</g>
		<g>
			<path class="st7" d="M188.16,156.23C188.16,156.23,188.16,156.23,188.16,156.23c-0.18,0.43-0.52,0.76-0.96,0.92
				c-0.44,0.17-0.91,0.15-1.33-0.06l-1.35-0.65c-0.42-0.2-0.73-0.56-0.88-1c-0.14-0.44-0.1-0.91,0.12-1.32c0,0,0,0,0,0l1.78-3.45
				c0.77,0.09,1.53,0.31,2.25,0.66s1.37,0.8,1.93,1.34L188.16,156.23z"/>
			<path class="st7" d="M193.85,153.28c-0.33,0.6-0.91,0.97-1.54,1c-0.55,0.02-1.04-0.23-1.33-0.69c-0.72-1.1-1.76-2-3-2.6
				c-1.24-0.6-2.59-0.84-3.9-0.71c-0.54,0.05-1.04-0.17-1.37-0.61c-0.38-0.51-0.45-1.19-0.19-1.83c0.03-0.08,0.07-0.17,0.11-0.25
				c1.29-2.7,4.89-3.68,8.03-2.18s4.63,4.92,3.33,7.62C193.93,153.12,193.89,153.2,193.85,153.28z"/>
		</g>
		<g>
			<path class="st7" d="M65.39,164.47C65.39,164.47,65.4,164.47,65.39,164.47c0.79,0.95,1.24,2.09,1.26,3.2
				c0.02,1.11-0.39,2.05-1.15,2.64l-2.45,1.89c-0.76,0.59-1.77,0.75-2.84,0.45s-2.06-1.02-2.77-2.02c0,0,0,0,0-0.01l-6.08-8.26
				c0.79-1.45,1.86-2.71,3.18-3.72c1.31-1.01,2.8-1.73,4.41-2.13L65.39,164.47z"/>
			<path class="st7" d="M63.41,148.87c1.04,1.48,1.4,3.16,0.96,4.49c-0.38,1.15-1.3,1.81-2.53,1.8c-2.95-0.01-5.7,0.9-7.95,2.64
				c-2.25,1.74-3.83,4.17-4.57,7.03c-0.3,1.19-1.17,1.91-2.38,1.99c-1.4,0.09-2.93-0.68-4.1-2.07c-0.15-0.18-0.3-0.37-0.45-0.55
				c-4.84-6.27-4.16-14.94,1.51-19.33c5.68-4.39,14.24-2.85,19.08,3.42C63.14,148.49,63.28,148.68,63.41,148.87z"/>
		</g>
		<g>
			<path class="st7" d="M164.62,194.48C164.62,194.48,164.62,194.48,164.62,194.48c0.07-0.46,0.32-0.86,0.71-1.13
				c0.38-0.27,0.84-0.36,1.3-0.27l1.47,0.3c0.46,0.09,0.84,0.36,1.09,0.76c0.25,0.39,0.32,0.86,0.21,1.31c0,0,0,0,0,0l-0.89,3.77
				c-0.77,0.1-1.56,0.07-2.35-0.09c-0.79-0.16-1.53-0.44-2.19-0.84L164.62,194.48z"/>
			<path class="st7" d="M159.82,198.73c0.18-0.66,0.64-1.17,1.25-1.34c0.53-0.15,1.06-0.03,1.46,0.35c0.97,0.9,2.19,1.52,3.54,1.79
				c1.35,0.28,2.72,0.19,3.96-0.26c0.51-0.19,1.05-0.09,1.48,0.26c0.49,0.4,0.73,1.05,0.63,1.73c-0.01,0.09-0.03,0.18-0.05,0.26
				c-0.6,2.93-3.86,4.76-7.26,4.06c-3.4-0.7-5.68-3.65-5.08-6.58C159.77,198.9,159.8,198.81,159.82,198.73z"/>
		</g>
		<g>
			<path class="st7" d="M94.93,129.45C94.93,129.45,94.93,129.45,94.93,129.45c1.12-0.39,2.25-0.5,3.2-0.33
				c0.95,0.17,1.58,0.61,1.77,1.23l0.63,2c0.2,0.62-0.06,1.34-0.74,2.03s-1.67,1.24-2.79,1.57c0,0-0.01,0-0.01,0l-9.37,2.8
				c-0.91-0.79-1.56-1.73-1.9-2.81c-0.34-1.07-0.36-2.22-0.07-3.39L94.93,129.45z"/>
			<path class="st7" d="M80.98,128.2c1.66-0.47,3.22-0.44,4.17,0.09c0.82,0.46,1.01,1.2,0.53,2.04c-1.17,2.03-1.48,4.07-0.9,5.91
				c0.58,1.84,2.02,3.33,4.14,4.32c0.88,0.41,1.15,1.13,0.75,1.97c-0.47,0.98-1.73,1.9-3.36,2.48c-0.21,0.07-0.43,0.15-0.64,0.21
				c-7.2,2.28-14.26,0.37-15.73-4.27c-1.47-4.64,3.19-10.27,10.39-12.56C80.55,128.33,80.77,128.26,80.98,128.2z"/>
		</g>
		<g>
			<path class="st7" d="M108.85,160.01C108.85,160,108.85,160,108.85,160.01c0.19-0.43,0.49-0.77,0.84-0.98
				c0.35-0.21,0.69-0.24,0.98-0.1l0.92,0.45c0.29,0.14,0.47,0.44,0.52,0.84c0.05,0.4-0.04,0.85-0.26,1.26c0,0,0,0,0,0l-1.78,3.44
				c-0.56,0-1.1-0.12-1.59-0.36c-0.49-0.24-0.92-0.59-1.26-1.04L108.85,160.01z"/>
			<path class="st7" d="M104.23,163.44c0.33-0.6,0.8-1.02,1.28-1.12c0.41-0.08,0.74,0.1,0.9,0.49c0.39,0.95,1.04,1.68,1.89,2.09
				s1.82,0.49,2.81,0.21c0.41-0.11,0.76,0.04,0.94,0.41c0.22,0.43,0.18,1.07-0.1,1.7c-0.04,0.08-0.07,0.16-0.11,0.24
				c-1.32,2.69-4.13,4.02-6.26,2.98c-2.13-1.05-2.79-4.09-1.47-6.77C104.14,163.6,104.18,163.52,104.23,163.44z"/>
		</g>
		<g>
			<path class="st7" d="M143.83,156.61C143.82,156.61,143.82,156.61,143.83,156.61c-0.97,0.31-1.99,0.21-2.88-0.29
				c-0.89-0.5-1.53-1.33-1.81-2.34l-0.88-3.23c-0.27-1-0.14-2.05,0.38-2.93c0.52-0.89,1.34-1.49,2.33-1.71c0,0,0,0,0.01,0l8.17-1.95
				c0.95,1.44,1.68,3.05,2.15,4.78c0.47,1.73,0.66,3.49,0.56,5.21L143.83,156.61z"/>
			<path class="st7" d="M156.79,162.01c-1.45,0.31-2.89-0.14-3.84-1.18c-0.82-0.9-1.11-2.09-0.78-3.26
				c0.77-2.82,0.75-5.88-0.05-8.85c-0.81-2.97-2.34-5.62-4.43-7.66c-0.87-0.85-1.22-2.02-0.97-3.21c0.29-1.38,1.3-2.49,2.71-2.96
				c0.18-0.06,0.37-0.12,0.56-0.17c6.26-1.7,13.01,3.01,15.04,10.49c2.03,7.49-1.4,14.96-7.66,16.66
				C157.17,161.93,156.98,161.97,156.79,162.01z"/>
		</g>
		<g>
			<path class="st7" d="M112.37,87.11C112.37,87.12,112.37,87.12,112.37,87.11c-0.09,0.54-0.36,1.01-0.76,1.33
				c-0.4,0.32-0.87,0.44-1.32,0.34l-1.46-0.31c-0.46-0.1-0.83-0.4-1.07-0.86c-0.23-0.45-0.28-1-0.15-1.53c0,0,0,0,0,0l1.07-4.42
				c0.78-0.13,1.57-0.12,2.36,0.05s1.52,0.48,2.17,0.92L112.37,87.11z"/>
			<path class="st7" d="M117.4,82.05c-0.21,0.78-0.7,1.37-1.32,1.6c-0.54,0.19-1.07,0.06-1.46-0.37c-0.93-1.02-2.14-1.72-3.48-2.01
				c-1.35-0.29-2.73-0.15-4,0.4c-0.53,0.23-1.07,0.13-1.48-0.26c-0.48-0.46-0.68-1.2-0.55-2c0.02-0.1,0.04-0.21,0.06-0.31
				c0.74-3.44,4.1-5.64,7.49-4.91s5.56,4.12,4.82,7.55C117.45,81.84,117.43,81.94,117.4,82.05z"/>
		</g>
		<g>
			<path class="st7" d="M89.34,82.2C89.34,82.2,89.34,82.2,89.34,82.2c0.37,0.58,0.49,1.26,0.33,1.93
				c-0.16,0.67-0.58,1.22-1.17,1.56l-1.9,1.1c-0.59,0.34-1.28,0.43-1.94,0.23s-1.19-0.63-1.51-1.24c0,0,0,0,0,0l-2.71-5.02
				c0.75-0.86,1.65-1.6,2.67-2.19c1.02-0.59,2.11-1,3.23-1.22L89.34,82.2z"/>
			<path class="st7" d="M90.47,72.84c0.46,0.9,0.43,1.91-0.07,2.7c-0.43,0.68-1.14,1.07-1.94,1.05c-1.94-0.04-3.89,0.47-5.64,1.49
				s-3.17,2.45-4.1,4.15c-0.38,0.71-1.07,1.13-1.88,1.16c-0.93,0.04-1.82-0.44-2.38-1.28c-0.07-0.11-0.14-0.22-0.21-0.34
				c-2.21-3.81-0.41-8.99,4.01-11.55c4.42-2.56,9.8-1.54,12.01,2.27C90.35,72.61,90.41,72.73,90.47,72.84z"/>
		</g>
		<g>
			<path class="st7" d="M44.48,117.25C44.48,117.25,44.48,117.25,44.48,117.25c0.47-0.04,0.92,0.1,1.27,0.4
				c0.35,0.31,0.56,0.73,0.58,1.19l0.07,1.49c0.02,0.47-0.14,0.91-0.46,1.25c-0.32,0.34-0.75,0.52-1.22,0.52c0,0,0,0,0,0l-3.88,0.07
				c-0.29-0.72-0.45-1.49-0.49-2.3c-0.04-0.8,0.05-1.59,0.27-2.33L44.48,117.25z"/>
			<path class="st7" d="M39.18,113.64c0.69,0.01,1.29,0.34,1.61,0.88c0.28,0.47,0.29,1.02,0.03,1.5c-0.63,1.16-0.93,2.5-0.86,3.87
				s0.49,2.68,1.23,3.77c0.31,0.45,0.35,1,0.12,1.5c-0.27,0.58-0.84,0.96-1.52,1.03c-0.09,0.01-0.18,0.02-0.27,0.02
				c-2.99,0.14-5.56-2.56-5.73-6.03s2.13-6.41,5.12-6.55C39,113.64,39.09,113.64,39.18,113.64z"/>
		</g>
		<g>
			<path class="st7" d="M60.53,195.67C60.53,195.67,60.53,195.67,60.53,195.67c-0.9-0.86-1.46-1.94-1.61-3.04
				c-0.14-1.1,0.16-2.08,0.85-2.75l2.22-2.15c0.69-0.67,1.68-0.94,2.78-0.76c1.1,0.18,2.16,0.78,2.98,1.69c0,0,0,0,0.01,0.01
				l6.96,7.53c-0.62,1.53-1.55,2.9-2.74,4.06c-1.19,1.16-2.59,2.03-4.14,2.61L60.53,195.67z"/>
			<path class="st7" d="M64.24,210.94c-1.2-1.36-1.75-2.99-1.46-4.36c0.25-1.19,1.09-1.94,2.31-2.07c2.93-0.32,5.56-1.53,7.61-3.51
				c2.05-1.98,3.34-4.57,3.75-7.5c0.17-1.21,0.95-2.03,2.14-2.25c1.38-0.25,2.99,0.35,4.31,1.59c0.17,0.16,0.34,0.33,0.51,0.5
				c5.51,5.69,5.81,14.38,0.66,19.37c-5.15,4.99-13.83,4.43-19.34-1.26C64.56,211.3,64.4,211.12,64.24,210.94z"/>
		</g>
		<g>
			<path class="st7" d="M127.77,105.69C127.77,105.69,127.77,105.69,127.77,105.69c-0.44,0.16-0.91,0.13-1.33-0.09
				c-0.42-0.21-0.72-0.57-0.85-1.02l-0.43-1.43c-0.13-0.45-0.08-0.92,0.15-1.32c0.23-0.41,0.61-0.69,1.06-0.8c0,0,0,0,0,0l3.75-1.01
				c0.45,0.63,0.8,1.34,1.03,2.11c0.23,0.77,0.33,1.56,0.31,2.33L127.77,105.69z"/>
			<path class="st7" d="M133.79,107.9c-0.67,0.16-1.33-0.01-1.78-0.47c-0.39-0.39-0.53-0.92-0.39-1.45c0.33-1.28,0.3-2.65-0.1-3.97
				s-1.13-2.48-2.11-3.36c-0.41-0.37-0.58-0.88-0.48-1.42c0.12-0.62,0.58-1.14,1.22-1.37c0.08-0.03,0.17-0.06,0.26-0.08
				c2.87-0.87,6.02,1.14,7.02,4.46s-0.51,6.73-3.38,7.6C133.96,107.85,133.87,107.88,133.79,107.9z"/>
		</g>
		<g>
			<path class="st7" d="M56.23,91.64C56.23,91.64,56.23,91.64,56.23,91.64c0.28,0.37,0.45,0.8,0.47,1.2
				c0.02,0.4-0.12,0.73-0.38,0.91l-0.83,0.59c-0.26,0.19-0.61,0.21-0.98,0.06c-0.37-0.15-0.72-0.44-0.98-0.83c0,0,0,0,0,0l-2.19-3.2
				c0.26-0.49,0.62-0.91,1.07-1.23c0.45-0.32,0.96-0.52,1.51-0.61L56.23,91.64z"/>
			<path class="st7" d="M55.4,85.94c0.38,0.57,0.52,1.19,0.38,1.66c-0.12,0.4-0.44,0.61-0.86,0.56c-1.02-0.11-1.97,0.12-2.74,0.67
				s-1.29,1.37-1.52,2.37c-0.09,0.42-0.39,0.65-0.81,0.63c-0.48-0.02-1.02-0.35-1.44-0.89c-0.05-0.07-0.11-0.14-0.16-0.22
				c-1.74-2.44-1.58-5.54,0.35-6.92c1.93-1.38,4.92-0.52,6.66,1.92C55.3,85.79,55.35,85.87,55.4,85.94z"/>
		</g>
		<g>
			<path class="st7" d="M148.33,53.48C148.33,53.48,148.33,53.48,148.33,53.48c1.12-0.39,2.25-0.5,3.2-0.33
				c0.95,0.17,1.58,0.61,1.77,1.23l0.63,2c0.2,0.62-0.06,1.34-0.74,2.03c-0.67,0.69-1.67,1.24-2.79,1.57c0,0-0.01,0-0.01,0
				l-9.37,2.8c-0.91-0.79-1.56-1.73-1.9-2.81c-0.34-1.07-0.36-2.22-0.07-3.39L148.33,53.48z"/>
			<path class="st7" d="M134.38,52.23c1.66-0.47,3.22-0.44,4.17,0.09c0.82,0.46,1.01,1.2,0.53,2.04c-1.17,2.03-1.48,4.07-0.9,5.91
				c0.58,1.84,2.02,3.33,4.14,4.32c0.88,0.41,1.15,1.13,0.75,1.97c-0.47,0.98-1.73,1.9-3.36,2.48c-0.21,0.07-0.43,0.15-0.64,0.21
				c-7.2,2.28-14.26,0.37-15.73-4.27s3.19-10.27,10.39-12.56C133.94,52.36,134.16,52.3,134.38,52.23z"/>
		</g>
		<g>
			<path class="st7" d="M166.37,69.23C166.37,69.22,166.37,69.22,166.37,69.23c0.19-0.43,0.49-0.77,0.84-0.98
				c0.35-0.21,0.69-0.24,0.98-0.1l0.92,0.45c0.29,0.14,0.47,0.44,0.52,0.84c0.05,0.4-0.04,0.85-0.26,1.26c0,0,0,0,0,0l-1.78,3.44
				c-0.56,0-1.1-0.12-1.59-0.36c-0.49-0.24-0.92-0.59-1.26-1.04L166.37,69.23z"/>
			<path class="st7" d="M161.74,72.66c0.33-0.6,0.8-1.02,1.28-1.12c0.41-0.08,0.74,0.1,0.9,0.49c0.39,0.95,1.04,1.68,1.89,2.09
				c0.85,0.42,1.82,0.49,2.81,0.21c0.41-0.11,0.76,0.04,0.94,0.41c0.22,0.43,0.18,1.07-0.1,1.7c-0.04,0.08-0.07,0.16-0.11,0.24
				c-1.32,2.69-4.13,4.02-6.26,2.98c-2.13-1.05-2.79-4.09-1.47-6.77C161.66,72.82,161.7,72.74,161.74,72.66z"/>
		</g>
	</g>
	<path class="st6" d="M184,108.76c-1.07,1.75-0.39,3.95,1.53,4.93c3,1.53,6.31,2.31,9.66,2.31c1.81,0,3.64-0.23,5.43-0.69
		c5.1-1.31,9.33-4.37,11.92-8.59c1.07-1.75,0.39-3.95-1.53-4.93c-1.92-0.98-4.34-0.35-5.4,1.39c-1.55,2.53-4.09,4.37-7.15,5.16
		c-3.06,0.79-6.27,0.45-9.06-0.98C187.49,106.39,185.07,107.02,184,108.76z"/>
	<path class="st1" d="M200.04,56.32c-0.89-0.89-1.8-1.75-2.71-2.61l-72.22,72.22V23.82c-2.5-0.08-5.01-0.08-7.52,0l0,102.1
		l-72.2-72.2c-0.92,0.86-1.83,1.73-2.73,2.63c-0.88,0.88-1.74,1.78-2.59,2.69l72.22,72.22H10.15c-0.08,2.5-0.08,5.01,0,7.52h102.13
		l-72.2,72.2c0.85,0.91,1.72,1.82,2.61,2.71c0.89,0.89,1.79,1.75,2.71,2.61l72.2-72.2l0,102.13c2.5,0.08,5.01,0.08,7.52,0l0-102.14
		l72.22,72.22c0.9-0.85,1.8-1.71,2.69-2.59c0.9-0.9,1.77-1.81,2.63-2.73l-72.2-72.2l102.09,0c0.05-1.48,0.07-2.95,0.06-4.43
		c-0.01-1.71-1.41-3.09-3.11-3.09h-92.69c-2.35,0-3.53-2.84-1.87-4.5l65.56-65.56c1.21-1.21,1.22-3.16,0.03-4.38
		C200.36,56.64,200.2,56.48,200.04,56.32z"/>
</g>
</svg>
