<?xml version="1.0" encoding="utf-8"?>
<!-- Generator: Adobe Illustrator 26.3.1, SVG Export Plug-In . SVG Version: 6.00 Build 0)  -->
<svg version="1.1" id="capricciosa" xmlns="http://www.w3.org/2000/svg" xmlns:xlink="http://www.w3.org/1999/xlink" x="0px"
	 y="0px" viewBox="0 0 270 270" style="enable-background:new 0 0 270 270;" xml:space="preserve">
<style type="text/css">
	.st0{fill:#EDA156;}
	.st1{fill:#F7CF6D;}
	.st2{fill:#C1503E;}
	.st3{fill:#F4C356;}
	.st4{fill:#D3714F;}
	.st5{fill:#F2E1AA;}
	.st6{fill:#F4F1EE;}
	.st7{fill:#EFEDE8;}
	.st8{fill:#4234C6;}
	.st9{fill:#E5AF51;}
</style>
<g>
	<path class="st0" d="M134.93,126.74l65.56-65.56c1.21-1.21,1.22-3.16,0.03-4.38c-0.16-0.16-0.32-0.32-0.48-0.48
		c-43.45-43.45-113.9-43.45-157.35,0C-0.9,99.9-0.9,170.09,42.68,213.67c43.45,43.45,113.9,43.45,157.35,0
		c21.89-21.89,32.75-50.64,32.58-79.34c-0.01-1.71-1.41-3.08-3.11-3.08l-92.7,0C134.44,131.25,133.27,128.4,134.93,126.74z"/>
	<path class="st1" d="M134.93,126.74l62.73-62.73c-0.85-0.91-1.71-1.82-2.6-2.71c-40.7-40.7-106.69-40.7-147.39,0
		c-40.82,40.82-40.82,106.57,0,147.39c40.7,40.7,106.69,40.7,147.39,0c21.3-21.3,31.45-49.54,30.45-77.45l-88.72,0
		C134.44,131.25,133.27,128.4,134.93,126.74z"/>
	<path class="st2" d="M134.21,127.2l53.94-53.94c-0.85-0.92-1.71-1.83-2.6-2.72c-35.85-35.85-93.97-35.85-129.81,0
		c-35.81,35.81-35.81,94,0,129.82c35.85,35.85,93.97,35.85,129.82,0c18.88-18.88,27.81-43.93,26.8-68.66l-76.28,0
		C133.72,131.7,132.54,128.86,134.21,127.2z"/>
	<g>
		<path class="st3" d="M29.65,131.25h-19.5c-0.08,2.5-0.08,5.01,0,7.52h19.5C29.55,136.26,29.55,133.75,29.65,131.25z"/>
		<path class="st3" d="M56.45,70.09c0.89-0.89,1.8-1.75,2.71-2.6L45.39,53.72c-0.92,0.86-1.83,1.73-2.73,2.63
			c-0.88,0.88-1.74,1.78-2.59,2.69l13.78,13.78C54.7,71.89,55.56,70.98,56.45,70.09z"/>
		<path class="st3" d="M56.45,199.9c-0.89-0.89-1.75-1.8-2.6-2.72l-13.78,13.78c0.85,0.91,1.72,1.82,2.61,2.71
			c0.89,0.89,1.79,1.75,2.71,2.61l13.78-13.78C58.25,201.66,57.34,200.8,56.45,199.9z"/>
		<path class="st3" d="M125.11,43.28l0-19.47c-2.5-0.08-5.01-0.08-7.52,0v19.47C120.1,43.18,122.61,43.18,125.11,43.28z"/>
		<path class="st3" d="M186.27,199.9c-0.89,0.89-1.8,1.75-2.72,2.6l13.78,13.78c0.9-0.85,1.8-1.71,2.69-2.59
			c0.9-0.9,1.77-1.81,2.63-2.73l-13.78-13.78C188.02,198.11,187.16,199.01,186.27,199.9z"/>
		<path class="st3" d="M197.33,53.71l-13.78,13.78c0.92,0.85,1.83,1.71,2.72,2.6c0.89,0.89,1.75,1.8,2.6,2.72l11.62-11.62
			c1.21-1.21,1.22-3.16,0.03-4.38c-0.16-0.16-0.32-0.32-0.48-0.48C199.15,55.43,198.24,54.57,197.33,53.71z"/>
		<path class="st3" d="M117.59,226.71v19.5c2.5,0.08,5.01,0.08,7.52,0l0-19.5C122.61,226.81,120.1,226.81,117.59,226.71z"/>
		<path class="st3" d="M213.07,138.76h19.46c0.05-1.48,0.07-2.95,0.06-4.43c-0.01-1.71-1.41-3.09-3.12-3.08h-16.41
			C213.17,133.75,213.17,136.26,213.07,138.76z"/>
	</g>
	<circle class="st4" cx="189.24" cy="101.33" r="9.62"/>
	<path class="st1" d="M230.09,46.87l-67.21,67.21c-1.85,1.85-0.54,5.01,2.07,5.01l95.03,0l0.02-0.03
		C259.12,93.03,249.15,67.24,230.09,46.87L230.09,46.87z"/>
	<path class="st0" d="M230.09,46.87l-5.72,5.72c16.83,19.11,25.99,42.61,27.47,66.5h8.14l0.02-0.03
		C259.12,93.03,249.15,67.24,230.09,46.87L230.09,46.87z"/>
	<path class="st2" d="M240.52,119.09c-0.86-21.06-8.92-41.88-24.21-58.44l-53.44,53.44c-1.85,1.85-0.54,5.01,2.07,5.01
		L240.52,119.09z"/>
	<g>
		<path class="st5" d="M137.5,83.22l-6.06,13.32c0,0-0.41,4.02,0.4,5.04c0.81,1.02,4.65,2.91,6.53,2.27
			c2.03-0.69,5.22-1.9,7.19-5.18c1.42-2.37,2.84-6.97,2.84-9.39s-2.42-4.85-3.63-6.06C143.55,82.01,139.92,80.8,137.5,83.22z"/>
	</g>
	<g>
		<path class="st6" d="M64.2,116.09l12.69,7.29c0,0,3.96,0.79,5.05,0.08c1.09-0.71,3.34-4.35,2.88-6.29
			c-0.5-2.09-1.4-5.38-4.48-7.65c-2.22-1.64-6.67-3.48-9.08-3.71s-5.05,1.95-6.37,3.04S62.02,113.45,64.2,116.09z"/>
	</g>
	<g>
		<path class="st6" d="M92.06,83.35l11.7,2.26c0,0,3.94-0.75,5.2-1.86c1.26-1.11,4.27-5.53,4.16-7.25
			c-0.12-1.85-0.42-4.72-3.17-5.76c-1.98-0.75-6.22-0.85-8.66-0.15c-2.44,0.7-5.58,3.85-7.15,5.42
			C92.58,77.59,90.31,81.61,92.06,83.35z"/>
	</g>
	<g>
		<path class="st5" d="M126.23,57.81l9.25,15.88c0,0,3.82,3.34,5.45,3.25c1.63-0.09,6.36-2.65,7.07-5.04
			c0.76-2.58,1.85-6.73-0.09-11.13c-1.39-3.18-5.08-7.97-7.56-9.73c-2.48-1.76-6.72-1.04-8.84-0.68
			C129.38,50.73,125.5,53.57,126.23,57.81z"/>
	</g>
	<g>
		<path class="st6" d="M103.24,106.04l11.99-5.54c0,0,2.65-2.5,2.7-3.68s-1.46-4.73-3.13-5.4c-1.8-0.72-4.69-1.78-7.97-0.69
			c-2.37,0.78-6.05,3.09-7.47,4.75s-1.2,4.74-1.08,6.28S100.16,106.27,103.24,106.04z"/>
	</g>
	<g>
		<path class="st6" d="M80.71,84.9l11.97-10.55c0,0,2.36-4.62,2.14-6.72c-0.21-2.1-2.67-8.37-4.66-9.48
			c-2.14-1.2-5.56-2.93-8.94-0.81c-2.43,1.52-5.96,5.85-7.17,8.89c-1.2,3.04-0.26,8.54,0.22,11.29S77.36,85.48,80.71,84.9z"/>
	</g>
	<g>
		<path class="st5" d="M154.75,68.75l10.8,9.88c0,0,3.69,1.64,4.91,1.18c1.22-0.46,4.2-3.52,4.18-5.51
			c-0.03-2.15-0.19-5.55-2.7-8.44c-1.81-2.08-5.75-4.85-8.05-5.6c-2.3-0.75-5.36,0.8-6.88,1.58
			C155.47,62.61,153.2,65.7,154.75,68.75z"/>
	</g>
	<g>
		<path class="st5" d="M182.44,111.05l12.36,2.92c0,0,4.09-0.6,5.35-1.7c1.27-1.11,4.21-5.59,4.02-7.39
			c-0.21-1.94-0.66-4.96-3.59-6.18c-2.11-0.88-6.55-1.18-9.07-0.56c-2.53,0.62-5.67,3.77-7.23,5.34
			C182.71,105.04,180.52,109.15,182.44,111.05z"/>
	</g>
	<g>
		<path class="st5" d="M206.7,77.68l3.92,17.96c0,0,2.6,4.35,4.19,4.77c1.58,0.42,6.86-0.56,8.27-2.62
			c1.52-2.22,3.83-5.83,3.34-10.62c-0.35-3.45-2.38-9.14-4.2-11.58c-1.82-2.44-6.08-3.06-8.21-3.36
			C211.89,71.91,207.32,73.42,206.7,77.68z"/>
	</g>
	<g>
		<path class="st6" d="M45.72,122.2l11.97-10.55c0,0,2.36-4.62,2.14-6.72s-2.67-8.37-4.66-9.48c-2.14-1.2-5.56-2.93-8.94-0.81
			c-2.43,1.52-5.96,5.85-7.17,8.89c-1.2,3.04-0.26,8.54,0.22,11.29S42.38,122.77,45.72,122.2z"/>
	</g>
	<g>
		<path class="st7" d="M159.64,143.1l-6.06,13.32c0,0-0.41,4.02,0.4,5.04c0.81,1.02,4.65,2.91,6.53,2.27
			c2.03-0.69,5.22-1.9,7.19-5.18c1.42-2.37,2.84-6.97,2.84-9.39s-2.42-4.85-3.63-6.06C165.7,141.89,162.07,140.68,159.64,143.1z"/>
	</g>
	<g>
		<path class="st7" d="M187.05,163.1l11.99-5.54c0,0,2.65-2.5,2.7-3.68c0.05-1.18-1.46-4.73-3.13-5.4c-1.8-0.72-4.69-1.78-7.97-0.69
			c-2.37,0.78-6.05,3.09-7.47,4.75s-1.2,4.74-1.08,6.28C182.2,160.36,183.97,163.33,187.05,163.1z"/>
	</g>
	<g>
		<path class="st7" d="M133.76,206.91l3.92,17.96c0,0,2.6,4.35,4.19,4.77c1.58,0.42,6.86-0.56,8.28-2.62
			c1.52-2.22,3.83-5.83,3.34-10.62c-0.35-3.45-2.38-9.14-4.2-11.58c-1.82-2.44-6.08-3.06-8.21-3.36
			C138.95,201.14,134.38,202.65,133.76,206.91z"/>
	</g>
	<g>
		<path class="st7" d="M129.53,179.25l11.97-10.55c0,0,2.36-4.62,2.14-6.72c-0.21-2.1-2.67-8.37-4.66-9.48
			c-2.14-1.2-5.56-2.93-8.94-0.81c-2.43,1.52-5.96,5.85-7.17,8.89c-1.2,3.04-0.26,8.54,0.22,11.29
			C123.57,174.61,126.19,179.83,129.53,179.25z"/>
	</g>
	<g>
		<path class="st7" d="M160.18,209.3l11.99-5.54c0,0,2.65-2.5,2.7-3.68s-1.46-4.73-3.13-5.4c-1.8-0.72-4.69-1.78-7.97-0.69
			c-2.37,0.78-6.05,3.09-7.47,4.75c-1.43,1.66-1.2,4.74-1.08,6.28C155.33,206.55,157.1,209.52,160.18,209.3z"/>
	</g>
	<g>
		<path class="st7" d="M157.67,192.94l11.7-9.48c0,0,2.51-4.46,2.48-6.62s-1.77-8.82-3.48-10.16c-1.85-1.45-4.82-3.58-8.05-1.78
			c-2.33,1.29-5.88,5.33-7.21,8.3c-1.33,2.97-0.91,8.68-0.7,11.53C152.62,187.57,154.59,193.17,157.67,192.94z"/>
	</g>
	<g>
		<circle class="st8" cx="132.92" cy="154.86" r="1.6"/>
		<circle class="st8" cx="130.58" cy="174.03" r="0.95"/>
		<circle class="st8" cx="136.21" cy="162.06" r="0.9"/>
		<circle class="st8" cx="131.19" cy="160.97" r="0.47"/>
		<circle class="st8" cx="126.18" cy="170.63" r="1.6"/>
		<circle class="st8" cx="139.13" cy="158.77" r="0.95"/>
		<circle class="st8" cx="127.05" cy="163.76" r="0.47"/>
		<circle class="st8" cx="133.13" cy="169.1" r="0.57"/>
	</g>
	<g>
		<circle class="st8" cx="156.24" cy="175.8" r="1.12"/>
		<circle class="st8" cx="169.42" cy="172.87" r="0.66"/>
		<circle class="st8" cx="160.22" cy="171.95" r="0.63"/>
		<circle class="st8" cx="160.68" cy="175.51" r="0.33"/>
		<circle class="st8" cx="168.21" cy="176.56" r="1.12"/>
		<circle class="st8" cx="157.37" cy="170.8" r="0.66"/>
		<circle class="st8" cx="163.48" cy="177.6" r="0.33"/>
		<circle class="st8" cx="165.58" cy="172.34" r="0.4"/>
	</g>
	<g>
		<circle class="st8" cx="159.72" cy="179.46" r="0.88"/>
		<circle class="st8" cx="158.43" cy="190.03" r="0.52"/>
		<circle class="st8" cx="161.53" cy="183.43" r="0.5"/>
		<circle class="st8" cx="158.77" cy="182.83" r="0.26"/>
		<circle class="st8" cx="156.01" cy="188.15" r="0.88"/>
		<circle class="st8" cx="163.15" cy="181.62" r="0.52"/>
		<circle class="st8" cx="156.48" cy="184.37" r="0.26"/>
		<circle class="st8" cx="159.83" cy="187.31" r="0.32"/>
	</g>
	<g>
		<circle class="st8" cx="185.78" cy="157.78" r="1.12"/>
		<circle class="st8" cx="197.76" cy="151" r="0.66"/>
		<circle class="st8" cx="191.87" cy="153.09" r="0.63"/>
		<circle class="st8" cx="190.14" cy="156.84" r="0.33"/>
		<circle class="st8" cx="197.76" cy="156.76" r="1.12"/>
		<circle class="st8" cx="186.16" cy="152.65" r="0.66"/>
		<circle class="st8" cx="193.23" cy="158.48" r="0.33"/>
		<circle class="st8" cx="194.53" cy="150.23" r="0.4"/>
	</g>
	<circle class="st8" cx="160.89" cy="145.7" r="1.6"/>
	<circle class="st8" cx="160.89" cy="161.31" r="0.95"/>
	<circle class="st8" cx="166.51" cy="151.33" r="0.9"/>
	<circle class="st8" cx="161.49" cy="150.24" r="0.47"/>
	<circle class="st8" cx="156.49" cy="158.37" r="1.6"/>
	<circle class="st8" cx="168.34" cy="148.04" r="0.95"/>
	<circle class="st8" cx="157.35" cy="153.02" r="0.47"/>
	<circle class="st8" cx="163.43" cy="158.37" r="0.57"/>
	<circle class="st8" cx="148.57" cy="223.03" r="1.6"/>
	<circle class="st8" cx="136.28" cy="205.66" r="0.95"/>
	<circle class="st8" cx="141.74" cy="215.53" r="0.9"/>
	<circle class="st8" cx="148.1" cy="215.53" r="0.47"/>
	<circle class="st8" cx="141.72" cy="204.52" r="1.6"/>
	<circle class="st8" cx="142.34" cy="222.06" r="0.95"/>
	<circle class="st8" cx="146.39" cy="209.63" r="0.47"/>
	<circle class="st8" cx="138.38" cy="210.79" r="0.57"/>
	<circle class="st8" cx="137.12" cy="168.47" r="1.6"/>
	<circle class="st8" cx="162.52" cy="206.96" r="0.95"/>
	<circle class="st8" cx="168.14" cy="196.47" r="0.9"/>
	<circle class="st8" cx="163.12" cy="195.38" r="0.47"/>
	<circle class="st8" cx="158.11" cy="205.03" r="1.6"/>
	<circle class="st8" cx="172.23" cy="200.47" r="0.95"/>
	<circle class="st8" cx="158.98" cy="198.17" r="0.47"/>
	<circle class="st8" cx="165.06" cy="203.51" r="0.57"/>
	<g>
		<g>
			<path class="st9" d="M49.45,159.68l-3.31,7.28c0,0-0.23,2.2,0.22,2.75c0.44,0.56,2.54,1.59,3.57,1.24
				c1.11-0.38,2.85-1.04,3.93-2.83c0.78-1.29,1.55-3.81,1.55-5.13c0-1.32-1.32-2.65-1.99-3.31
				C52.76,159.02,50.78,158.36,49.45,159.68z"/>
		</g>
		<g>
			<path class="st9" d="M37.78,145.4l5.06,8.68c0,0,2.09,1.83,2.98,1.78c0.89-0.05,3.47-1.45,3.86-2.76
				c0.42-1.41,1.01-3.68-0.05-6.08c-0.76-1.74-2.78-4.35-4.13-5.32c-1.36-0.96-3.67-0.57-4.83-0.37
				C39.51,141.53,37.39,143.08,37.78,145.4z"/>
		</g>
		<g>
			<path class="st9" d="M59.42,157.42l5.9,5.4c0,0,2.02,0.89,2.69,0.64c0.67-0.25,2.3-1.92,2.28-3.01c-0.02-1.17-0.1-3.03-1.48-4.61
				c-0.99-1.14-3.14-2.65-4.4-3.06c-1.26-0.41-2.93,0.44-3.76,0.86C59.82,154.06,58.57,155.75,59.42,157.42z"/>
		</g>
		<g>
			<path class="st9" d="M52.02,145.95l6.76,1.59c0,0,2.23-0.33,2.93-0.93c0.69-0.61,2.3-3.06,2.19-4.04
				c-0.11-1.06-0.36-2.71-1.96-3.38c-1.15-0.48-3.58-0.65-4.96-0.31c-1.38,0.34-3.1,2.06-3.95,2.92
				C52.17,142.66,50.98,144.91,52.02,145.95z"/>
		</g>
		<g>
			<path class="st9" d="M50.01,172.88l2.14,9.81c0,0,1.42,2.38,2.29,2.61c0.86,0.23,3.75-0.31,4.52-1.43
				c0.83-1.21,2.09-3.19,1.83-5.8c-0.19-1.89-1.3-5-2.3-6.33c-0.99-1.33-3.32-1.67-4.49-1.84S50.34,170.55,50.01,172.88z"/>
		</g>
		<g>
			<path class="st9" d="M89.18,200.21l-3.31,7.28c0,0-0.23,2.2,0.22,2.75c0.44,0.56,2.54,1.59,3.57,1.24
				c1.11-0.38,2.85-1.04,3.93-2.83c0.78-1.29,1.55-3.81,1.55-5.13c0-1.32-1.32-2.65-1.99-3.31
				C92.49,199.55,90.5,198.89,89.18,200.21z"/>
		</g>
		<g>
			<path class="st9" d="M67.82,195.1l5.06,8.68c0,0,2.09,1.83,2.98,1.78s3.47-1.45,3.86-2.76c0.42-1.41,1.01-3.68-0.05-6.08
				c-0.76-1.74-2.78-4.35-4.13-5.32c-1.36-0.96-3.67-0.57-4.83-0.37C69.54,191.23,67.42,192.78,67.82,195.1z"/>
		</g>
		<g>
			<path class="st9" d="M98.6,192.3l5.9,5.4c0,0,2.02,0.89,2.69,0.64c0.67-0.25,2.3-1.92,2.28-3.01c-0.02-1.17-0.1-3.03-1.48-4.61
				c-0.99-1.14-3.14-2.65-4.4-3.06c-1.26-0.41-2.93,0.44-3.76,0.86C99,188.95,97.76,190.64,98.6,192.3z"/>
		</g>
		<g>
			<path class="st9" d="M103.48,184.41l6.76,1.59c0,0,2.23-0.33,2.93-0.93s2.3-3.06,2.19-4.04c-0.11-1.06-0.36-2.71-1.96-3.38
				c-1.15-0.48-3.58-0.65-4.96-0.31s-3.1,2.06-3.95,2.92S102.43,183.37,103.48,184.41z"/>
		</g>
		<g>
			<path class="st9" d="M96.87,203.36l2.14,9.81c0,0,1.42,2.38,2.29,2.61c0.86,0.23,3.75-0.31,4.52-1.43
				c0.83-1.21,2.09-3.19,1.83-5.8c-0.19-1.89-1.3-5-2.3-6.33c-0.99-1.33-3.32-1.67-4.49-1.84S97.21,201.04,96.87,203.36z"/>
		</g>
		<g>
			<path class="st9" d="M92.45,170.18l6.29,4.93c0,0,2.08,0.74,2.73,0.44c0.65-0.3,2.14-2.09,2.05-3.18
				c-0.11-1.17-0.33-3.02-1.82-4.49c-1.07-1.06-3.33-2.41-4.62-2.72c-1.29-0.31-2.89,0.66-3.68,1.15
				C92.58,166.81,91.47,168.58,92.45,170.18z"/>
		</g>
		<g>
			<path class="st9" d="M75.81,178.15l9.63-2.87c0,0,2.27-1.6,2.43-2.48s-0.59-3.72-1.77-4.4c-1.27-0.74-3.33-1.85-5.92-1.39
				c-1.87,0.33-4.89,1.67-6.14,2.76c-1.25,1.09-1.42,3.44-1.5,4.61C72.46,175.56,73.47,177.99,75.81,178.15z"/>
		</g>
		<g>
			<path class="st9" d="M86.98,159.15l6.64-4.46c0,0,1.34-1.75,1.26-2.46s-1.33-2.69-2.39-2.93c-1.14-0.26-2.97-0.62-4.83,0.35
				c-1.34,0.69-3.32,2.43-4.01,3.55c-0.7,1.13-0.26,2.95-0.05,3.86S85.16,159.58,86.98,159.15z"/>
		</g>
		<g>
			<path class="st9" d="M79.71,155.85l3.14-6.19c0,0,0.21-2.25-0.21-3.06c-0.42-0.82-2.43-2.96-3.41-3.09
				c-1.06-0.14-2.72-0.29-3.74,1.11c-0.74,1.01-1.47,3.32-1.47,4.75c0,1.42,1.27,3.49,1.9,4.53
				C76.55,154.93,78.45,156.62,79.71,155.85z"/>
		</g>
		<g>
			<path class="st9" d="M99.61,159.35l10.04,0.24c0,0,2.65-0.82,3.07-1.61c0.42-0.79,0.59-3.72-0.33-4.73
				c-0.98-1.1-2.6-2.78-5.21-3.14c-1.88-0.26-5.16,0.08-6.69,0.74c-1.53,0.65-2.41,2.83-2.85,3.92
				C97.22,155.86,97.43,158.48,99.61,159.35z"/>
		</g>
	</g>
	<path class="st1" d="M200.04,56.32c-0.89-0.89-1.8-1.75-2.71-2.61l-72.22,72.22V23.82c-2.5-0.08-5.01-0.08-7.52,0l0,102.1
		l-72.2-72.2c-0.92,0.86-1.83,1.73-2.73,2.63c-0.88,0.88-1.74,1.78-2.59,2.69l72.22,72.22H10.15c-0.08,2.5-0.08,5.01,0,7.52h102.13
		l-72.2,72.2c0.85,0.91,1.72,1.82,2.61,2.71c0.89,0.89,1.79,1.75,2.71,2.61l72.2-72.2l0,102.13c2.5,0.08,5.01,0.08,7.52,0l0-102.14
		l72.22,72.22c0.9-0.85,1.8-1.71,2.69-2.59c0.9-0.9,1.77-1.81,2.63-2.73l-72.2-72.2l102.09,0c0.05-1.48,0.07-2.95,0.06-4.43
		c-0.01-1.71-1.41-3.09-3.11-3.09h-92.69c-2.35,0-3.53-2.84-1.87-4.5l65.56-65.56c1.21-1.21,1.22-3.16,0.03-4.38
		C200.36,56.64,200.2,56.48,200.04,56.32z"/>
</g>
</svg>
