<?xml version="1.0" encoding="utf-8"?>
<!-- Generator: Adobe Illustrator 26.3.1, SVG Export Plug-In . SVG Version: 6.00 Build 0)  -->
<svg version="1.1" id="capricciosa" xmlns="http://www.w3.org/2000/svg" xmlns:xlink="http://www.w3.org/1999/xlink" x="0px"
	 y="0px" viewBox="0 0 270 270" style="enable-background:new 0 0 270 270;" xml:space="preserve">
<style type="text/css">
	.st0{fill:#EDA156;}
	.st1{fill:#F7CF6D;}
	.st2{fill:#C1503E;}
	.st3{fill:#F4C356;}
	.st4{fill:#D3714F;}
	.st5{fill:#F4F1EE;}
	.st6{fill:#F09EA0;}
	.st7{fill:#F7D0D7;}
	.st8{fill:#F76D78;}
	.st9{fill:#F79E28;}
	.st10{fill:#F9DB26;}
	.st11{fill:#BF1010;}
	.st12{fill:#F72828;}
	.st13{fill:#7C0606;}
	.st14{fill:#FF0000;}
</style>
<g>
	<path class="st0" d="M134.93,126.74l65.56-65.56c1.21-1.21,1.22-3.16,0.03-4.38c-0.16-0.16-0.32-0.32-0.48-0.48
		c-43.45-43.45-113.9-43.45-157.35,0C-0.9,99.9-0.9,170.09,42.68,213.67c43.45,43.45,113.9,43.45,157.35,0
		c21.89-21.89,32.75-50.64,32.58-79.34c-0.01-1.71-1.41-3.08-3.11-3.08l-92.7,0C134.44,131.25,133.27,128.4,134.93,126.74z"/>
	<path class="st1" d="M134.93,126.74l62.73-62.73c-0.85-0.91-1.71-1.82-2.6-2.71c-40.7-40.7-106.69-40.7-147.39,0
		c-40.82,40.82-40.82,106.57,0,147.39c40.7,40.7,106.69,40.7,147.39,0c21.3-21.3,31.45-49.54,30.45-77.45l-88.72,0
		C134.44,131.25,133.27,128.4,134.93,126.74z"/>
	<path class="st2" d="M134.93,126.74l53.94-53.94c-0.85-0.92-1.71-1.83-2.6-2.72c-35.85-35.85-93.97-35.85-129.81,0
		c-35.81,35.81-35.81,94,0,129.82c35.85,35.85,93.97,35.85,129.82,0c18.88-18.88,27.81-43.93,26.8-68.66l-76.28,0
		C134.44,131.25,133.27,128.4,134.93,126.74z"/>
	<g>
		<path class="st3" d="M29.65,131.25h-19.5c-0.08,2.5-0.08,5.01,0,7.52h19.5C29.55,136.26,29.55,133.75,29.65,131.25z"/>
		<path class="st3" d="M56.45,70.09c0.89-0.89,1.8-1.75,2.71-2.6L45.39,53.72c-0.92,0.86-1.83,1.73-2.73,2.63
			c-0.88,0.88-1.74,1.78-2.59,2.69l13.78,13.78C54.7,71.89,55.56,70.98,56.45,70.09z"/>
		<path class="st3" d="M56.45,199.9c-0.89-0.89-1.75-1.8-2.6-2.72l-13.78,13.78c0.85,0.91,1.72,1.82,2.61,2.71
			c0.89,0.89,1.79,1.75,2.71,2.61l13.78-13.78C58.25,201.66,57.34,200.8,56.45,199.9z"/>
		<path class="st3" d="M125.11,43.28l0-19.47c-2.5-0.08-5.01-0.08-7.52,0v19.47C120.1,43.18,122.61,43.18,125.11,43.28z"/>
		<path class="st3" d="M186.27,199.9c-0.89,0.89-1.8,1.75-2.72,2.6l13.78,13.78c0.9-0.85,1.8-1.71,2.69-2.59
			c0.9-0.9,1.77-1.81,2.63-2.73l-13.78-13.78C188.02,198.11,187.16,199.01,186.27,199.9z"/>
		<path class="st3" d="M197.33,53.71l-13.78,13.78c0.92,0.85,1.83,1.71,2.72,2.6c0.89,0.89,1.75,1.8,2.6,2.72l11.62-11.62
			c1.21-1.21,1.22-3.16,0.03-4.38c-0.16-0.16-0.32-0.32-0.48-0.48C199.15,55.43,198.24,54.57,197.33,53.71z"/>
		<path class="st3" d="M117.59,226.71v19.5c2.5,0.08,5.01,0.08,7.52,0l0-19.5C122.61,226.81,120.1,226.81,117.59,226.71z"/>
		<path class="st3" d="M213.07,138.76h19.46c0.05-1.48,0.07-2.95,0.06-4.43c-0.01-1.71-1.41-3.09-3.12-3.08h-16.41
			C213.17,133.75,213.17,136.26,213.07,138.76z"/>
	</g>
	<circle class="st4" cx="189.24" cy="101.33" r="9.62"/>
	<path class="st1" d="M230.09,46.87l-67.21,67.21c-1.85,1.85-0.54,5.01,2.07,5.01l95.03,0l0.02-0.03
		C259.12,93.03,249.15,67.24,230.09,46.87L230.09,46.87z"/>
	<path class="st0" d="M230.09,46.87l-5.72,5.72c16.83,19.11,25.99,42.61,27.47,66.5h8.14l0.02-0.03
		C259.12,93.03,249.15,67.24,230.09,46.87L230.09,46.87z"/>
	<path class="st2" d="M240.52,119.09c-0.86-21.06-8.92-41.88-24.21-58.44l-53.44,53.44c-1.85,1.85-0.54,5.01,2.07,5.01
		L240.52,119.09z"/>
	<g>
		<path class="st5" d="M137.16,168.11l-6.06,13.32c0,0-0.41,4.02,0.4,5.04s4.65,2.91,6.53,2.27c2.03-0.69,5.22-1.9,7.19-5.18
			c1.42-2.37,2.84-6.97,2.84-9.39s-2.42-4.85-3.63-6.06C143.22,166.9,139.59,165.69,137.16,168.11z"/>
	</g>
	<g>
		<path class="st5" d="M64.2,116.09l12.69,7.29c0,0,3.96,0.79,5.05,0.08c1.09-0.71,3.34-4.35,2.88-6.29
			c-0.5-2.09-1.4-5.38-4.48-7.65c-2.22-1.64-6.67-3.48-9.08-3.71s-5.05,1.95-6.37,3.04S62.02,113.45,64.2,116.09z"/>
	</g>
	<g>
		<path class="st5" d="M130.01,83.6l12.36,2.92c0,0,4.09-0.6,5.35-1.7s4.21-5.59,4.02-7.39c-0.21-1.94-0.66-4.96-3.59-6.18
			c-2.11-0.88-6.55-1.18-9.07-0.56c-2.53,0.62-5.67,3.77-7.23,5.34S128.1,81.69,130.01,83.6z"/>
	</g>
	<g>
		<path class="st5" d="M167.23,155.91l9.25,15.88c0,0,3.82,3.34,5.45,3.25c1.63-0.09,6.36-2.65,7.07-5.04
			c0.76-2.58,1.85-6.73-0.09-11.13c-1.39-3.18-5.08-7.97-7.56-9.73s-6.72-1.04-8.84-0.68S166.51,151.67,167.23,155.91z"/>
	</g>
	<g>
		<path class="st5" d="M59.12,171.48l11.99-5.54c0,0,2.65-2.5,2.7-3.68c0.05-1.18-1.46-4.73-3.13-5.4c-1.8-0.72-4.69-1.78-7.97-0.69
			c-2.37,0.78-6.05,3.09-7.47,4.75c-1.43,1.66-1.2,4.74-1.08,6.28C54.26,168.74,56.03,171.71,59.12,171.48z"/>
	</g>
	<g>
		<path class="st5" d="M80.71,84.9l11.97-10.55c0,0,2.36-4.62,2.14-6.72c-0.21-2.1-2.67-8.37-4.66-9.48
			c-2.14-1.2-5.56-2.93-8.94-0.81c-2.43,1.52-5.96,5.85-7.17,8.89c-1.2,3.04-0.26,8.54,0.22,11.29S77.36,85.48,80.71,84.9z"/>
	</g>
	<g>
		<path class="st5" d="M148.02,198.64l10.8,9.88c0,0,3.69,1.64,4.91,1.18c1.22-0.46,4.2-3.52,4.18-5.51
			c-0.03-2.15-0.19-5.55-2.7-8.44c-1.81-2.08-5.75-4.85-8.05-5.6c-2.3-0.75-5.36,0.8-6.88,1.58
			C148.74,192.5,146.46,195.58,148.02,198.64z"/>
	</g>
	<g>
		<path class="st5" d="M182.44,111.05l12.36,2.92c0,0,4.09-0.6,5.35-1.7c1.27-1.11,4.21-5.59,4.02-7.39
			c-0.21-1.94-0.66-4.96-3.59-6.18c-2.11-0.88-6.55-1.18-9.07-0.56c-2.53,0.62-5.67,3.77-7.23,5.34
			C182.71,105.04,180.52,109.15,182.44,111.05z"/>
	</g>
	<g>
		<path class="st5" d="M206.7,77.68l3.92,17.96c0,0,2.6,4.35,4.19,4.77c1.58,0.42,6.86-0.56,8.27-2.62
			c1.52-2.22,3.83-5.83,3.34-10.62c-0.35-3.45-2.38-9.14-4.2-11.58c-1.82-2.44-6.08-3.06-8.21-3.36
			C211.89,71.91,207.32,73.42,206.7,77.68z"/>
	</g>
	<g>
		<path class="st5" d="M94.48,211.84l11.97-10.55c0,0,2.36-4.62,2.14-6.72c-0.21-2.1-2.67-8.37-4.66-9.48
			c-2.14-1.2-5.56-2.93-8.94-0.81c-2.43,1.52-5.96,5.85-7.17,8.89c-1.2,3.04-0.26,8.54,0.22,11.29S91.14,212.42,94.48,211.84z"/>
	</g>
	<g>
		<g>
			<circle class="st6" cx="45.42" cy="106.1" r="9.62"/>
			<circle class="st7" cx="41.71" cy="110.84" r="1.73"/>
			<circle class="st7" cx="39.55" cy="104.79" r="1.31"/>
			<circle class="st8" cx="47.96" cy="101.73" r="0.87"/>
			<circle class="st8" cx="50.9" cy="108.74" r="2.07"/>
			<circle class="st8" cx="45.42" cy="112.05" r="0.95"/>
			<circle class="st8" cx="42.9" cy="100.54" r="1.19"/>
			<circle class="st8" cx="43.44" cy="106.11" r="1.31"/>
			<circle class="st7" cx="47.88" cy="104.91" r="1.19"/>
		</g>
		<g>
			<circle class="st6" cx="117.52" cy="111.18" r="9.62"/>
			<circle class="st7" cx="120.99" cy="106.26" r="1.73"/>
			<circle class="st7" cx="123.44" cy="112.19" r="1.31"/>
			<circle class="st8" cx="115.2" cy="115.67" r="0.87"/>
			<circle class="st8" cx="111.92" cy="108.82" r="2.07"/>
			<circle class="st8" cx="117.22" cy="105.24" r="0.95"/>
			<circle class="st8" cx="120.32" cy="116.6" r="1.19"/>
			<circle class="st8" cx="119.5" cy="111.07" r="1.31"/>
			<circle class="st7" cx="115.12" cy="112.49" r="1.19"/>
		</g>
		<g>
			<circle class="st6" cx="62.22" cy="145.12" r="9.62"/>
			<circle class="st7" cx="58.5" cy="149.86" r="1.73"/>
			<circle class="st7" cx="56.35" cy="143.81" r="1.31"/>
			<circle class="st8" cx="64.76" cy="140.75" r="0.87"/>
			<circle class="st8" cx="67.69" cy="147.75" r="2.07"/>
			<circle class="st8" cx="62.22" cy="151.06" r="0.95"/>
			<circle class="st8" cx="59.69" cy="139.56" r="1.19"/>
			<circle class="st8" cx="60.23" cy="145.13" r="1.31"/>
			<circle class="st7" cx="64.67" cy="143.93" r="1.19"/>
		</g>
		<g>
			<circle class="st6" cx="97.25" cy="67.9" r="9.62"/>
			<circle class="st7" cx="91.23" cy="68.08" r="1.73"/>
			<circle class="st7" cx="94.5" cy="62.55" r="1.31"/>
			<circle class="st8" cx="102.24" cy="67.05" r="0.87"/>
			<circle class="st8" cx="98.73" cy="73.79" r="2.07"/>
			<circle class="st8" cx="92.68" cy="71.7" r="0.95"/>
			<circle class="st8" cx="99.91" cy="62.4" r="1.19"/>
			<circle class="st8" cx="95.97" cy="66.38" r="1.31"/>
			<circle class="st7" cx="99.74" cy="69.02" r="1.19"/>
		</g>
		<g>
			<circle class="st6" cx="132.3" cy="60.68" r="9.62"/>
			<circle class="st7" cx="134.59" cy="66.24" r="1.73"/>
			<circle class="st7" cx="128.27" cy="65.13" r="1.31"/>
			<circle class="st8" cx="129.76" cy="56.31" r="0.87"/>
			<circle class="st8" cx="137.29" cy="57.21" r="2.07"/>
			<circle class="st8" cx="137.48" cy="63.61" r="0.95"/>
			<circle class="st8" cx="126.22" cy="60.13" r="1.19"/>
			<circle class="st8" cx="131.34" cy="62.41" r="1.31"/>
			<circle class="st7" cx="132.48" cy="57.95" r="1.19"/>
		</g>
		<g>
			<circle class="st6" cx="156.6" cy="67.03" r="9.62"/>
			<circle class="st7" cx="150.64" cy="67.82" r="1.73"/>
			<circle class="st7" cx="153.33" cy="61.99" r="1.31"/>
			<circle class="st8" cx="161.48" cy="65.69" r="0.87"/>
			<circle class="st8" cx="158.68" cy="72.74" r="2.07"/>
			<circle class="st8" cx="152.45" cy="71.28" r="0.95"/>
			<circle class="st8" cx="158.69" cy="61.29" r="1.19"/>
			<circle class="st8" cx="155.18" cy="65.65" r="1.31"/>
			<circle class="st7" cx="159.19" cy="67.9" r="1.19"/>
		</g>
		<g>
			<circle class="st6" cx="87.58" cy="153.66" r="9.62"/>
			<circle class="st7" cx="83.86" cy="158.4" r="1.73"/>
			<circle class="st7" cx="81.71" cy="152.35" r="1.31"/>
			<circle class="st8" cx="90.12" cy="149.29" r="0.87"/>
			<circle class="st8" cx="93.05" cy="156.29" r="2.07"/>
			<circle class="st8" cx="87.58" cy="159.6" r="0.95"/>
			<circle class="st8" cx="85.05" cy="148.1" r="1.19"/>
			<circle class="st8" cx="85.6" cy="153.67" r="1.31"/>
			<circle class="st7" cx="90.03" cy="152.47" r="1.19"/>
		</g>
		<g>
			<circle class="st6" cx="149.36" cy="161.57" r="9.62"/>
			<circle class="st7" cx="152.84" cy="156.65" r="1.73"/>
			<circle class="st7" cx="155.29" cy="162.59" r="1.31"/>
			<circle class="st8" cx="147.04" cy="166.06" r="0.87"/>
			<circle class="st8" cx="143.76" cy="159.22" r="2.07"/>
			<circle class="st8" cx="149.06" cy="155.63" r="0.95"/>
			<circle class="st8" cx="152.17" cy="167" r="1.19"/>
			<circle class="st8" cx="151.34" cy="161.46" r="1.31"/>
			<circle class="st7" cx="146.97" cy="162.89" r="1.19"/>
		</g>
		<g>
			<circle class="st6" cx="100.96" cy="198.24" r="9.62"/>
			<circle class="st7" cx="97.25" cy="202.97" r="1.73"/>
			<circle class="st7" cx="95.1" cy="196.92" r="1.31"/>
			<circle class="st8" cx="103.51" cy="193.87" r="0.87"/>
			<circle class="st8" cx="106.44" cy="200.87" r="2.07"/>
			<circle class="st8" cx="100.96" cy="204.18" r="0.95"/>
			<circle class="st8" cx="98.44" cy="192.67" r="1.19"/>
			<circle class="st8" cx="98.98" cy="198.25" r="1.31"/>
			<circle class="st7" cx="103.42" cy="197.04" r="1.19"/>
		</g>
		<g>
			<circle class="st6" cx="221.64" cy="101.33" r="9.62"/>
			<circle class="st7" cx="215.62" cy="101.51" r="1.73"/>
			<circle class="st7" cx="218.89" cy="95.98" r="1.31"/>
			<circle class="st8" cx="226.62" cy="100.48" r="0.87"/>
			<circle class="st8" cx="223.12" cy="107.22" r="2.07"/>
			<circle class="st8" cx="217.07" cy="105.13" r="0.95"/>
			<circle class="st8" cx="224.3" cy="95.83" r="1.19"/>
			<circle class="st8" cx="220.36" cy="99.81" r="1.31"/>
			<circle class="st7" cx="224.13" cy="102.45" r="1.19"/>
		</g>
		<g>
			<circle class="st6" cx="139.75" cy="188.52" r="9.62"/>
			<circle class="st7" cx="142.03" cy="194.09" r="1.73"/>
			<circle class="st7" cx="135.71" cy="192.98" r="1.31"/>
			<circle class="st8" cx="137.2" cy="184.15" r="0.87"/>
			<circle class="st8" cx="144.74" cy="185.06" r="2.07"/>
			<circle class="st8" cx="144.92" cy="191.45" r="0.95"/>
			<circle class="st8" cx="133.66" cy="187.97" r="1.19"/>
			<circle class="st8" cx="138.78" cy="190.25" r="1.31"/>
			<circle class="st7" cx="139.92" cy="185.8" r="1.19"/>
		</g>
		<g>
			<circle class="st6" cx="181.49" cy="140.75" r="9.62"/>
			<circle class="st7" cx="175.52" cy="141.53" r="1.73"/>
			<circle class="st7" cx="178.22" cy="135.71" r="1.31"/>
			<circle class="st8" cx="186.37" cy="139.4" r="0.87"/>
			<circle class="st8" cx="183.57" cy="146.46" r="2.07"/>
			<circle class="st8" cx="177.34" cy="145" r="0.95"/>
			<circle class="st8" cx="183.58" cy="135.01" r="1.19"/>
			<circle class="st8" cx="180.07" cy="139.37" r="1.31"/>
			<circle class="st7" cx="184.08" cy="141.61" r="1.19"/>
		</g>
	</g>
	<g>
		<path class="st9" d="M114.04,112.88c-4.82,2.88-11.09,1.31-13.97-3.51c-1.78-2.97-1.92-6.64-0.4-9.72
			c-0.59-0.59-1.11-1.25-1.54-1.97c-2.88-4.82-1.31-11.09,3.51-13.97c3.95-2.36,8.99-1.76,12.27,1.37
			c4.75-2.53,10.73-0.91,13.52,3.76c2.88,4.82,1.31,11.09-3.51,13.97c-1.51,0.9-3.19,1.39-4.92,1.44
			C118.96,107.8,117.12,111.04,114.04,112.88z M102.54,85.22c-3.99,2.39-5.29,7.57-2.9,11.56c0.46,0.76,1.03,1.45,1.7,2.03
			l0.55,0.48l-0.36,0.63c-1.54,2.65-1.52,5.93,0.06,8.56c2.39,3.99,7.57,5.29,11.56,2.9c2.78-1.66,4.34-4.71,4.07-7.94l-0.09-1.02
			l1.02,0.07c1.71,0.11,3.4-0.29,4.88-1.18c3.99-2.39,5.29-7.57,2.9-11.56c-2.39-3.99-7.57-5.29-11.56-2.9
			c-0.02,0.01-0.04,0.03-0.07,0.04l-0.7,0.44l-0.49-0.55C110.42,83.82,105.98,83.16,102.54,85.22z"/>
		<path class="st10" d="M114.05,111.47c-4.52,2.71-10.39,1.25-13.07-3.24c-1.57-2.62-1.76-5.81-0.57-8.59
			c-0.4-0.45-0.76-0.93-1.07-1.45c-2.69-4.49-1.2-10.34,3.32-13.05c3.54-2.12,8.02-1.71,11.09,0.89c4.37-2.02,9.66-0.48,12.17,3.71
			c2.69,4.49,1.2,10.34-3.32,13.05c-1.21,0.72-2.54,1.17-3.91,1.31C118.42,107.14,116.74,109.87,114.05,111.47z M104.22,87.74
			c-3.08,1.84-4.1,5.83-2.27,8.89c0.35,0.59,0.79,1.11,1.31,1.56l0.94,0.82l-0.63,1.08c-1.19,2.04-1.18,4.57,0.02,6.58
			c1.83,3.06,5.83,4.05,8.91,2.21c2.15-1.29,3.36-3.63,3.16-6.11l-0.14-1.75l1.76,0.11c1.32,0.08,2.62-0.23,3.76-0.92
			c3.08-1.84,4.1-5.83,2.27-8.89c-1.83-3.06-5.83-4.05-8.91-2.21l-0.11,0.07l-1.08,0.68l-0.85-0.94
			C110.3,86.65,106.87,86.15,104.22,87.74z"/>
	</g>
	<g>
		<path class="st9" d="M171.43,191.5c-7.03,0-12.75-5.72-12.75-12.75c0-4.34,2.21-8.36,5.82-10.7c-0.25-1.01-0.38-2.06-0.38-3.11
			c0-7.03,5.72-12.75,12.75-12.75c5.76,0,10.79,3.89,12.3,9.36c6.73,0.34,12.11,5.92,12.11,12.74c0,7.03-5.72,12.75-12.75,12.75
			c-2.2,0-4.32-0.56-6.22-1.62C179.99,189.2,175.93,191.5,171.43,191.5z M176.87,154.4c-5.81,0-10.55,4.73-10.55,10.55
			c0,1.11,0.18,2.21,0.52,3.27l0.28,0.87l-0.8,0.44c-3.36,1.86-5.44,5.4-5.44,9.23c0,5.81,4.73,10.55,10.55,10.55
			c4.06,0,7.69-2.26,9.47-5.91l0.56-1.15l1.05,0.73c1.77,1.22,3.84,1.87,5.99,1.87c5.81,0,10.55-4.73,10.55-10.55
			c0-5.81-4.73-10.55-10.55-10.55c-0.03,0-0.07,0-0.1,0l-1.03,0.02l-0.18-0.9C186.22,157.96,181.88,154.4,176.87,154.4z"/>
		<path class="st10" d="M172.35,190c-6.6,0-11.96-5.33-11.96-11.88c0-3.82,1.85-7.37,4.91-9.59c-0.14-0.74-0.22-1.49-0.22-2.25
			c0-6.55,5.37-11.88,11.96-11.88c5.17,0,9.72,3.32,11.33,8.08c6,0.64,10.68,5.69,10.68,11.81c0,6.55-5.37,11.88-11.96,11.88
			c-1.76,0-3.47-0.38-5.04-1.11C179.83,188.15,176.27,190,172.35,190z M177.04,158.18c-4.49,0-8.15,3.63-8.15,8.1
			c0,0.85,0.14,1.7,0.4,2.51l0.49,1.48l-1.38,0.76c-2.6,1.43-4.21,4.14-4.21,7.09c0,4.46,3.66,8.1,8.15,8.1
			c3.13,0,5.94-1.74,7.32-4.54l0.97-1.97l1.82,1.25c1.37,0.94,2.97,1.44,4.63,1.44c4.49,0,8.15-3.63,8.15-8.1
			c0-4.46-3.66-8.1-8.15-8.1l-0.16,0l-1.59,0.03l-0.31-1.55C184.28,160.92,180.92,158.18,177.04,158.18z"/>
	</g>
	<g>
		<path class="st9" d="M105.6,202.18c-2.85-4.51-1.09-10.76,3.93-13.94c3.1-1.96,6.86-2.36,10-1.1c0.62-0.62,1.31-1.17,2.06-1.65
			c5.02-3.18,11.42-2.09,14.28,2.42c2.34,3.69,1.6,8.67-1.69,12.11c2.49,4.47,0.69,10.44-4.18,13.51
			c-5.02,3.18-11.42,2.09-14.28-2.42c-0.89-1.41-1.36-3.02-1.37-4.72C110.72,206.62,107.43,205.06,105.6,202.18z M134.29,188.9
			c-2.36-3.73-7.66-4.62-11.81-2c-0.79,0.5-1.51,1.11-2.12,1.81l-0.5,0.57l-0.64-0.31c-2.69-1.31-6.06-1.05-8.8,0.68
			c-4.15,2.63-5.61,7.8-3.25,11.52c1.65,2.6,4.73,3.9,8.06,3.4l1.05-0.16l-0.09,1.01c-0.16,1.69,0.22,3.31,1.1,4.69
			c2.36,3.73,7.66,4.62,11.81,2c4.15-2.63,5.61-7.8,3.25-11.52c-0.01-0.02-0.03-0.04-0.04-0.06l-0.43-0.65l0.57-0.52
			C135.55,196.51,136.32,192.11,134.29,188.9z"/>
		<path class="st10" d="M107.05,202.09c-2.68-4.23-1.05-10.08,3.63-13.04c2.72-1.72,6.01-2.15,8.84-1.19
			c0.47-0.43,0.98-0.81,1.52-1.15c4.68-2.96,10.66-1.93,13.33,2.3c2.1,3.31,1.57,7.73-1.17,10.92c1.98,4.13,0.27,9.42-4.1,12.18
			c-4.68,2.96-10.66,1.93-13.33-2.3c-0.71-1.13-1.14-2.4-1.26-3.73C111.4,206.05,108.64,204.6,107.05,202.09z M131.66,190.72
			c-1.82-2.88-5.9-3.59-9.09-1.57c-0.61,0.39-1.16,0.85-1.63,1.39l-0.86,0.98l-1.1-0.54c-2.07-1.02-4.66-0.83-6.76,0.5
			c-3.19,2.02-4.29,6-2.47,8.88c1.27,2.01,3.65,3.02,6.21,2.64l1.8-0.27l-0.15,1.73c-0.12,1.3,0.18,2.55,0.85,3.62
			c1.82,2.88,5.9,3.59,9.09,1.57c3.19-2.02,4.29-6,2.47-8.88l-0.07-0.1l-0.67-1.01l0.98-0.9
			C132.65,196.6,133.23,193.21,131.66,190.72z"/>
	</g>
	<g>
		<path class="st9" d="M57.15,133.71c-5.25,4.89-13.5,4.59-18.39-0.66c-3.02-3.24-4.16-7.78-3.09-12.04
			c-0.9-0.58-1.72-1.27-2.45-2.05c-4.89-5.25-4.59-13.5,0.66-18.39c4.3-4,10.76-4.6,15.69-1.55c5.26-4.43,13.16-3.99,17.9,1.1
			c4.89,5.25,4.59,13.5-0.66,18.39c-1.64,1.53-3.61,2.59-5.77,3.11C61.94,126.04,60.51,130.58,57.15,133.71z M35.41,102.22
			c-4.34,4.04-4.59,10.86-0.54,15.21c0.77,0.83,1.67,1.53,2.66,2.08l0.81,0.45l-0.29,0.88c-1.21,3.72-0.31,7.81,2.35,10.68
			c4.04,4.34,10.86,4.59,15.21,0.54c3.03-2.82,4.17-7.03,2.97-11l-0.38-1.25l1.29-0.19c2.17-0.31,4.17-1.27,5.78-2.77
			c4.34-4.04,4.59-10.86,0.54-15.21c-4.04-4.34-10.86-4.59-15.21-0.54c-0.02,0.02-0.05,0.05-0.07,0.07l-0.76,0.73l-0.76-0.55
			C44.88,98.37,39.15,98.73,35.41,102.22z"/>
		<path class="st10" d="M56.79,131.94c-4.93,4.59-12.64,4.34-17.19-0.56c-2.65-2.85-3.75-6.79-3-10.58
			c-0.62-0.45-1.2-0.96-1.72-1.53c-4.55-4.89-4.25-12.6,0.67-17.19c3.86-3.59,9.57-4.28,14.08-1.84c4.92-3.69,11.93-3.18,16.19,1.4
			c4.55,4.89,4.25,12.6-0.67,17.19c-1.31,1.22-2.86,2.13-4.54,2.68C61.09,125.36,59.71,129.22,56.79,131.94z M38.17,104.92
			c-3.36,3.12-3.56,8.38-0.46,11.71c0.59,0.64,1.28,1.18,2.05,1.6l1.4,0.77l-0.5,1.52c-0.95,2.87-0.26,6.02,1.78,8.22
			c3.1,3.33,8.36,3.5,11.72,0.38c2.34-2.18,3.23-5.43,2.31-8.48l-0.64-2.15l2.23-0.33c1.67-0.25,3.21-0.99,4.46-2.15
			c3.36-3.12,3.56-8.38,0.46-11.71c-3.1-3.33-8.36-3.5-11.72-0.38l-0.12,0.11l-1.17,1.13l-1.31-0.94
			C45.48,101.93,41.07,102.23,38.17,104.92z"/>
	</g>
	<g>
		<path class="st11" d="M159.5,96.13c0,4.69-3.8,8.5-8.47,8.5c-2.88,0-5.55-1.47-7.11-3.88c-0.67,0.17-1.37,0.26-2.06,0.26
			c-4.67,0-8.47-3.81-8.47-8.5c0-3.84,2.58-7.19,6.22-8.19c0.22-4.49,3.93-8.07,8.46-8.07c4.67,0,8.47,3.81,8.47,8.5
			c0,1.46-0.37,2.88-1.07,4.14C157.97,90.43,159.5,93.14,159.5,96.13z M134.85,92.51c0,3.87,3.14,7.03,7,7.03
			c0.74,0,1.47-0.12,2.17-0.35l0.57-0.19l0.29,0.53c1.24,2.24,3.58,3.63,6.13,3.63c3.86,0,7-3.15,7-7.03c0-2.7-1.5-5.12-3.92-6.31
			l-0.76-0.38l0.48-0.7c0.81-1.18,1.24-2.56,1.24-3.99c0-3.87-3.14-7.03-7-7.03c-3.86,0-7,3.15-7,7.03c0,0.02,0,0.04,0,0.07
			l0.01,0.69l-0.6,0.12C137.22,86.27,134.85,89.17,134.85,92.51z"/>
		<path class="st12" d="M158.5,95.52c0,4.39-3.54,7.97-7.89,7.97c-2.53,0-4.9-1.23-6.37-3.27c-0.49,0.1-0.99,0.14-1.49,0.14
			c-4.35,0-7.89-3.58-7.89-7.97c0-3.44,2.21-6.48,5.37-7.55c0.42-4,3.78-7.12,7.85-7.12c4.35,0,7.89,3.58,7.89,7.97
			c0,1.17-0.25,2.31-0.73,3.36C157.27,90.53,158.5,92.91,158.5,95.52z M137.37,92.39c0,2.99,2.41,5.43,5.38,5.43
			c0.57,0,1.13-0.09,1.67-0.27l0.99-0.32l0.5,0.92c0.95,1.73,2.75,2.8,4.71,2.8c2.96,0,5.38-2.44,5.38-5.43
			c0-2.09-1.15-3.96-3.01-4.88l-1.31-0.65l0.83-1.21c0.62-0.91,0.95-1.98,0.95-3.09c0-2.99-2.41-5.43-5.38-5.43
			c-2.96,0-5.38,2.44-5.38,5.43l0,0.11l0.02,1.06l-1.03,0.21C139.18,87.57,137.37,89.81,137.37,92.39z"/>
	</g>
	<g>
		<path class="st11" d="M211.73,105.21c0,4.69-3.8,8.5-8.47,8.5c-2.88,0-5.55-1.47-7.11-3.88c-0.67,0.17-1.37,0.26-2.06,0.26
			c-4.67,0-8.47-3.81-8.47-8.5c0-3.84,2.58-7.19,6.22-8.19c0.22-4.49,3.93-8.07,8.46-8.07c4.67,0,8.47,3.81,8.47,8.5
			c0,1.46-0.37,2.88-1.07,4.14C210.2,99.5,211.73,102.21,211.73,105.21z M187.08,101.58c0,3.87,3.14,7.03,7,7.03
			c0.74,0,1.47-0.12,2.17-0.35l0.57-0.19l0.29,0.53c1.24,2.24,3.58,3.63,6.13,3.63c3.86,0,7-3.15,7-7.03c0-2.7-1.5-5.12-3.92-6.31
			l-0.76-0.38l0.48-0.7c0.81-1.18,1.24-2.56,1.24-3.99c0-3.87-3.14-7.03-7-7.03c-3.86,0-7,3.15-7,7.03c0,0.02,0,0.04,0,0.07
			l0.01,0.69l-0.6,0.12C189.45,95.35,187.08,98.25,187.08,101.58z"/>
		<path class="st12" d="M210.73,104.59c0,4.39-3.54,7.97-7.89,7.97c-2.53,0-4.9-1.23-6.37-3.27c-0.49,0.1-0.99,0.14-1.49,0.14
			c-4.35,0-7.89-3.58-7.89-7.97c0-3.44,2.21-6.48,5.37-7.55c0.42-4,3.78-7.12,7.85-7.12c4.35,0,7.89,3.58,7.89,7.97
			c0,1.17-0.25,2.31-0.73,3.36C209.5,99.61,210.73,101.98,210.73,104.59z M189.6,101.47c0,2.99,2.41,5.43,5.38,5.43
			c0.57,0,1.13-0.09,1.67-0.27l0.99-0.32l0.5,0.92c0.95,1.73,2.75,2.8,4.71,2.8c2.96,0,5.38-2.44,5.38-5.43
			c0-2.09-1.15-3.96-3.01-4.88l-1.31-0.65l0.83-1.21c0.62-0.91,0.95-1.98,0.95-3.09c0-2.99-2.41-5.43-5.38-5.43
			c-2.96,0-5.38,2.44-5.38,5.43l0,0.11l0.02,1.06l-1.03,0.21C191.41,96.65,189.6,98.89,189.6,101.47z"/>
	</g>
	<g>
		<path class="st13" d="M107.39,61.78c-3.22,0-5.84-2.62-5.84-5.84c0-0.15,0.01-0.31,0.02-0.47c-0.33-0.66-0.5-1.39-0.5-2.13
			c0-2.66,2.17-4.83,4.83-4.83c1.15,0,2.24,0.4,3.11,1.13c0.46-0.14,0.93-0.21,1.42-0.21c2.68,0,4.86,2.18,4.86,4.86
			c0,1.88-1.07,3.56-2.74,4.37C111.54,60.57,109.55,61.78,107.39,61.78z M105.91,50.08c-1.8,0-3.26,1.46-3.26,3.26
			c0,0.56,0.14,1.11,0.42,1.6l0.13,0.22l-0.03,0.25c-0.02,0.18-0.03,0.36-0.03,0.53c0,2.36,1.92,4.27,4.27,4.27
			c1.65,0,3.17-0.97,3.87-2.47l0.13-0.28l0.28-0.12c1.24-0.51,2.05-1.71,2.05-3.05c0-1.82-1.48-3.3-3.3-3.3
			c-0.45,0-0.88,0.09-1.29,0.26l-0.5,0.21l-0.37-0.39C107.64,50.43,106.8,50.08,105.91,50.08z"/>
		<path class="st14" d="M107.51,60.77c-2.73,0-4.95-2.22-4.95-4.95c0-0.13,0.01-0.26,0.02-0.4c-0.28-0.56-0.42-1.18-0.42-1.81
			c0-2.26,1.84-4.1,4.1-4.1c0.98,0,1.9,0.34,2.64,0.96c0.39-0.12,0.79-0.18,1.2-0.18c2.27,0,4.13,1.85,4.13,4.13
			c0,1.59-0.9,3.02-2.32,3.71C111.04,59.75,109.34,60.77,107.51,60.77z M106.25,50.84c-1.53,0-2.77,1.24-2.77,2.77
			c0,0.47,0.12,0.94,0.35,1.35l0.11,0.19l-0.03,0.22c-0.02,0.16-0.03,0.3-0.03,0.45c0,2,1.63,3.63,3.63,3.63
			c1.4,0,2.69-0.82,3.29-2.1l0.11-0.24l0.24-0.1c1.06-0.43,1.74-1.45,1.74-2.59c0-1.54-1.26-2.8-2.8-2.8c-0.38,0-0.75,0.08-1.1,0.22
			l-0.42,0.18l-0.32-0.33C107.72,51.15,107.01,50.84,106.25,50.84z"/>
	</g>
	<g>
		<path class="st13" d="M86.84,127.42c-3.22,0-5.84-2.62-5.84-5.84c0-0.15,0.01-0.31,0.02-0.47c-0.33-0.66-0.5-1.39-0.5-2.13
			c0-2.66,2.17-4.83,4.83-4.83c1.15,0,2.24,0.4,3.11,1.13c0.46-0.14,0.93-0.21,1.42-0.21c2.68,0,4.86,2.18,4.86,4.86
			c0,1.88-1.07,3.56-2.74,4.37C90.99,126.22,89,127.42,86.84,127.42z M85.35,115.73c-1.8,0-3.26,1.46-3.26,3.26
			c0,0.56,0.14,1.11,0.42,1.6l0.13,0.22l-0.03,0.25c-0.02,0.18-0.03,0.36-0.03,0.53c0,2.36,1.92,4.27,4.27,4.27
			c1.65,0,3.17-0.97,3.87-2.47l0.13-0.28l0.28-0.12c1.24-0.51,2.05-1.71,2.05-3.05c0-1.82-1.48-3.3-3.3-3.3
			c-0.45,0-0.88,0.09-1.29,0.26l-0.5,0.21l-0.37-0.39C87.09,116.08,86.25,115.73,85.35,115.73z"/>
		<path class="st14" d="M86.96,126.42c-2.73,0-4.95-2.22-4.95-4.95c0-0.13,0.01-0.26,0.02-0.4c-0.28-0.56-0.42-1.18-0.42-1.81
			c0-2.26,1.84-4.1,4.1-4.1c0.98,0,1.9,0.34,2.64,0.96c0.39-0.12,0.79-0.18,1.2-0.18c2.27,0,4.13,1.85,4.13,4.13
			c0,1.59-0.9,3.02-2.32,3.71C90.48,125.4,88.79,126.42,86.96,126.42z M85.7,116.49c-1.53,0-2.77,1.24-2.77,2.77
			c0,0.47,0.12,0.94,0.35,1.35l0.11,0.19l-0.03,0.22c-0.02,0.16-0.03,0.3-0.03,0.45c0,2,1.63,3.63,3.63,3.63
			c1.4,0,2.69-0.82,3.29-2.1l0.11-0.24l0.24-0.1c1.06-0.43,1.74-1.45,1.74-2.59c0-1.54-1.26-2.8-2.8-2.8c-0.38,0-0.75,0.08-1.1,0.22
			l-0.42,0.18l-0.32-0.33C87.17,116.8,86.46,116.49,85.7,116.49z"/>
	</g>
	<g>
		<path class="st13" d="M46.31,161.32c-3.22,0-5.84-2.62-5.84-5.84c0-0.15,0.01-0.31,0.02-0.47c-0.33-0.66-0.5-1.39-0.5-2.13
			c0-2.66,2.17-4.83,4.83-4.83c1.15,0,2.24,0.4,3.11,1.13c0.46-0.14,0.93-0.21,1.42-0.21c2.68,0,4.86,2.18,4.86,4.86
			c0,1.88-1.07,3.56-2.74,4.37C50.46,160.11,48.47,161.32,46.31,161.32z M44.82,149.62c-1.8,0-3.26,1.46-3.26,3.26
			c0,0.56,0.14,1.11,0.42,1.6l0.13,0.22l-0.03,0.25c-0.02,0.18-0.03,0.36-0.03,0.53c0,2.36,1.92,4.27,4.27,4.27
			c1.65,0,3.17-0.97,3.87-2.47l0.13-0.28l0.28-0.12c1.24-0.51,2.05-1.71,2.05-3.05c0-1.82-1.48-3.3-3.3-3.3
			c-0.45,0-0.88,0.09-1.29,0.26l-0.5,0.21l-0.37-0.39C46.55,149.98,45.72,149.62,44.82,149.62z"/>
		<path class="st14" d="M46.43,160.31c-2.73,0-4.95-2.22-4.95-4.95c0-0.13,0.01-0.26,0.02-0.4c-0.28-0.56-0.42-1.18-0.42-1.81
			c0-2.26,1.84-4.1,4.1-4.1c0.98,0,1.9,0.34,2.64,0.96c0.39-0.12,0.79-0.18,1.2-0.18c2.27,0,4.13,1.85,4.13,4.13
			c0,1.59-0.9,3.02-2.32,3.71C49.95,159.29,48.26,160.31,46.43,160.31z M45.16,150.38c-1.53,0-2.77,1.24-2.77,2.77
			c0,0.47,0.12,0.94,0.35,1.35l0.11,0.19l-0.03,0.22c-0.02,0.16-0.03,0.3-0.03,0.45c0,2,1.63,3.63,3.63,3.63
			c1.4,0,2.69-0.82,3.29-2.1l0.11-0.24l0.24-0.1c1.06-0.43,1.74-1.45,1.74-2.59c0-1.54-1.26-2.8-2.8-2.8c-0.38,0-0.75,0.08-1.1,0.22
			l-0.42,0.18l-0.32-0.33C46.64,150.69,45.93,150.38,45.16,150.38z"/>
	</g>
	<g>
		<path class="st13" d="M101.85,183.13c-3.22,0-5.84-2.62-5.84-5.84c0-0.15,0.01-0.31,0.02-0.47c-0.33-0.66-0.5-1.39-0.5-2.13
			c0-2.66,2.17-4.83,4.83-4.83c1.15,0,2.24,0.4,3.11,1.13c0.46-0.14,0.93-0.21,1.42-0.21c2.68,0,4.86,2.18,4.86,4.86
			c0,1.88-1.07,3.56-2.74,4.37C106,181.92,104.01,183.13,101.85,183.13z M100.36,171.43c-1.8,0-3.26,1.46-3.26,3.26
			c0,0.56,0.14,1.11,0.42,1.6l0.13,0.22l-0.03,0.25c-0.02,0.18-0.03,0.36-0.03,0.53c0,2.36,1.92,4.27,4.27,4.27
			c1.65,0,3.17-0.97,3.87-2.47l0.13-0.28l0.28-0.12c1.24-0.51,2.05-1.71,2.05-3.05c0-1.82-1.48-3.3-3.3-3.3
			c-0.45,0-0.88,0.09-1.29,0.26l-0.5,0.21l-0.37-0.39C102.1,171.79,101.26,171.43,100.36,171.43z"/>
		<path class="st14" d="M101.97,182.13c-2.73,0-4.95-2.22-4.95-4.95c0-0.13,0.01-0.26,0.02-0.4c-0.28-0.56-0.42-1.18-0.42-1.81
			c0-2.26,1.84-4.1,4.1-4.1c0.98,0,1.9,0.34,2.64,0.96c0.39-0.12,0.79-0.18,1.2-0.18c2.27,0,4.13,1.85,4.13,4.13
			c0,1.59-0.9,3.02-2.32,3.71C105.49,181.1,103.8,182.13,101.97,182.13z M100.71,172.2c-1.53,0-2.77,1.24-2.77,2.77
			c0,0.47,0.12,0.94,0.35,1.35l0.11,0.19l-0.03,0.22c-0.02,0.16-0.03,0.3-0.03,0.45c0,2,1.63,3.63,3.63,3.63
			c1.4,0,2.69-0.82,3.29-2.1l0.11-0.24l0.24-0.1c1.06-0.43,1.74-1.45,1.74-2.59c0-1.54-1.26-2.8-2.8-2.8c-0.38,0-0.75,0.08-1.1,0.22
			l-0.42,0.18l-0.32-0.33C102.18,172.5,101.47,172.2,100.71,172.2z"/>
	</g>
	<g>
		<path class="st13" d="M133.8,178.83c-3.22,0-5.84-2.62-5.84-5.84c0-0.15,0.01-0.31,0.02-0.47c-0.33-0.66-0.5-1.39-0.5-2.13
			c0-2.66,2.17-4.83,4.83-4.83c1.15,0,2.24,0.4,3.11,1.13c0.46-0.14,0.93-0.21,1.42-0.21c2.68,0,4.86,2.18,4.86,4.86
			c0,1.88-1.07,3.56-2.74,4.37C137.95,177.62,135.96,178.83,133.8,178.83z M132.31,167.13c-1.8,0-3.26,1.46-3.26,3.26
			c0,0.56,0.14,1.11,0.42,1.6l0.13,0.22l-0.03,0.25c-0.02,0.18-0.03,0.36-0.03,0.53c0,2.36,1.92,4.27,4.27,4.27
			c1.65,0,3.17-0.97,3.87-2.47l0.13-0.28l0.28-0.12c1.24-0.51,2.05-1.71,2.05-3.05c0-1.82-1.48-3.3-3.3-3.3
			c-0.45,0-0.88,0.09-1.29,0.26l-0.5,0.21l-0.37-0.39C134.05,167.49,133.21,167.13,132.31,167.13z"/>
		<path class="st14" d="M133.92,177.83c-2.73,0-4.95-2.22-4.95-4.95c0-0.13,0.01-0.26,0.02-0.4c-0.28-0.56-0.42-1.18-0.42-1.81
			c0-2.26,1.84-4.1,4.1-4.1c0.98,0,1.9,0.34,2.64,0.96c0.39-0.12,0.79-0.18,1.2-0.18c2.27,0,4.13,1.85,4.13,4.13
			c0,1.59-0.9,3.02-2.32,3.71C137.44,176.8,135.75,177.83,133.92,177.83z M132.66,167.9c-1.53,0-2.77,1.24-2.77,2.77
			c0,0.47,0.12,0.94,0.35,1.35l0.11,0.19l-0.03,0.22c-0.02,0.16-0.03,0.3-0.03,0.45c0,2,1.63,3.63,3.63,3.63
			c1.4,0,2.69-0.82,3.29-2.1l0.11-0.24l0.24-0.1c1.06-0.43,1.74-1.45,1.74-2.59c0-1.54-1.26-2.8-2.8-2.8c-0.38,0-0.75,0.08-1.1,0.22
			l-0.42,0.18l-0.32-0.33C134.13,168.2,133.42,167.9,132.66,167.9z"/>
	</g>
	<g>
		<path class="st13" d="M231.81,119.01c-3.22,0-5.84-2.62-5.84-5.84c0-0.15,0.01-0.31,0.02-0.47c-0.33-0.66-0.5-1.39-0.5-2.13
			c0-2.66,2.17-4.83,4.83-4.83c1.15,0,2.24,0.4,3.11,1.13c0.46-0.14,0.93-0.21,1.42-0.21c2.68,0,4.86,2.18,4.86,4.86
			c0,1.88-1.07,3.56-2.74,4.37C235.96,117.8,233.96,119.01,231.81,119.01z M230.32,107.31c-1.8,0-3.26,1.46-3.26,3.26
			c0,0.56,0.14,1.11,0.42,1.6l0.13,0.22l-0.03,0.25c-0.02,0.18-0.03,0.36-0.03,0.53c0,2.36,1.92,4.27,4.27,4.27
			c1.65,0,3.17-0.97,3.87-2.47l0.13-0.28l0.28-0.12c1.24-0.51,2.05-1.71,2.05-3.05c0-1.82-1.48-3.3-3.3-3.3
			c-0.45,0-0.88,0.09-1.29,0.26l-0.5,0.21l-0.37-0.39C232.05,107.67,231.22,107.31,230.32,107.31z"/>
		<path class="st14" d="M231.93,118.01c-2.73,0-4.95-2.22-4.95-4.95c0-0.13,0.01-0.26,0.02-0.4c-0.28-0.56-0.42-1.18-0.42-1.81
			c0-2.26,1.84-4.1,4.1-4.1c0.98,0,1.9,0.34,2.64,0.96c0.39-0.12,0.79-0.18,1.2-0.18c2.27,0,4.13,1.85,4.13,4.13
			c0,1.59-0.9,3.02-2.32,3.71C235.45,116.98,233.76,118.01,231.93,118.01z M230.66,108.08c-1.53,0-2.77,1.24-2.77,2.77
			c0,0.47,0.12,0.94,0.35,1.35l0.11,0.19l-0.03,0.22c-0.02,0.16-0.03,0.3-0.03,0.45c0,2,1.63,3.63,3.63,3.63
			c1.4,0,2.69-0.82,3.29-2.1l0.11-0.24l0.24-0.1c1.06-0.43,1.74-1.45,1.74-2.59c0-1.54-1.26-2.8-2.8-2.8c-0.38,0-0.75,0.08-1.1,0.22
			l-0.42,0.18l-0.32-0.33C232.14,108.38,231.42,108.08,230.66,108.08z"/>
	</g>
	<g>
		<path class="st9" d="M76.01,182.07c0.15,4.27-3.72,7.89-8.63,8.07c-3.03,0.11-5.89-1.13-7.61-3.26c-0.7,0.18-1.43,0.29-2.16,0.31
			c-4.91,0.18-9.04-3.15-9.19-7.42c-0.13-3.49,2.48-6.65,6.27-7.7c0.09-4.1,3.87-7.5,8.63-7.67c4.91-0.18,9.04,3.15,9.19,7.42
			c0.05,1.33-0.29,2.64-0.99,3.82C74.22,176.93,75.91,179.34,76.01,182.07z M49.96,179.71c0.13,3.53,3.54,6.28,7.6,6.14
			c0.78-0.03,1.54-0.16,2.28-0.4l0.6-0.19l0.33,0.47c1.37,1.99,3.89,3.17,6.57,3.07c4.06-0.15,7.27-3.14,7.14-6.67
			c-0.09-2.46-1.75-4.61-4.34-5.6l-0.82-0.31l0.49-0.66c0.82-1.1,1.22-2.38,1.17-3.69c-0.13-3.53-3.54-6.28-7.6-6.14
			c-4.06,0.15-7.27,3.14-7.14,6.67c0,0.02,0,0.04,0,0.06l0.04,0.62l-0.63,0.13C52.24,173.94,49.85,176.67,49.96,179.71z"/>
		<path class="st10" d="M74.94,181.55c0.15,4-3.46,7.4-8.04,7.56c-2.67,0.1-5.19-0.94-6.81-2.74c-0.51,0.11-1.04,0.17-1.56,0.19
			c-4.58,0.17-8.42-2.96-8.57-6.96c-0.11-3.14,2.11-5.98,5.4-7.09c0.31-3.66,3.74-6.63,8.02-6.78c4.58-0.17,8.42,2.96,8.57,6.96
			c0.04,1.07-0.19,2.12-0.66,3.09C73.48,177.06,74.85,179.17,74.94,181.55z M52.6,179.51c0.1,2.73,2.72,4.86,5.84,4.74
			c0.6-0.02,1.19-0.13,1.75-0.31l1.03-0.33l0.56,0.82c1.06,1.54,2.99,2.45,5.04,2.37c3.12-0.11,5.58-2.43,5.48-5.15
			c-0.07-1.9-1.35-3.56-3.33-4.33l-1.4-0.54l0.83-1.14c0.63-0.85,0.94-1.84,0.9-2.85c-0.1-2.73-2.72-4.86-5.84-4.74
			c-3.12,0.11-5.58,2.43-5.48,5.15l0.01,0.1l0.06,0.97l-1.08,0.23C54.35,175.05,52.52,177.16,52.6,179.51z"/>
	</g>
	<path class="st1" d="M200.04,56.32c-0.89-0.89-1.8-1.75-2.71-2.61l-72.22,72.22V23.82c-2.5-0.08-5.01-0.08-7.52,0l0,102.1
		l-72.2-72.2c-0.92,0.86-1.83,1.73-2.73,2.63c-0.88,0.88-1.74,1.78-2.59,2.69l72.22,72.22H10.15c-0.08,2.5-0.08,5.01,0,7.52h102.13
		l-72.2,72.2c0.85,0.91,1.72,1.82,2.61,2.71c0.89,0.89,1.79,1.75,2.71,2.61l72.2-72.2l0,102.13c2.5,0.08,5.01,0.08,7.52,0l0-102.14
		l72.22,72.22c0.9-0.85,1.8-1.71,2.69-2.59c0.9-0.9,1.77-1.81,2.63-2.73l-72.2-72.2l102.09,0c0.05-1.48,0.07-2.95,0.06-4.43
		c-0.01-1.71-1.41-3.09-3.11-3.09h-92.69c-2.35,0-3.53-2.84-1.87-4.5l65.56-65.56c1.21-1.21,1.22-3.16,0.03-4.38
		C200.36,56.64,200.2,56.48,200.04,56.32z"/>
</g>
</svg>
