<?xml version="1.0" encoding="utf-8"?>
<!-- Generator: Adobe Illustrator 26.3.1, SVG Export Plug-In . SVG Version: 6.00 Build 0)  -->
<svg version="1.1" id="Layer_1" xmlns="http://www.w3.org/2000/svg" xmlns:xlink="http://www.w3.org/1999/xlink" x="0px" y="0px"
	 viewBox="0 0 180 180" style="enable-background:new 0 0 180 180;" xml:space="preserve">
<style type="text/css">
	.st0{fill:#F4B459;}
	.st1{fill:#DBA250;}
	.st2{fill:#475F6C;}
	.st3{fill:#8E7133;}
</style>
<g>
	<path class="st0" d="M169.3,53.03H10.7l0,0c0,0,0,0-0.01,0c-2.92,0-5.28,2.37-5.28,5.29v21.14v0c0,2.93,2.36,5.29,5.29,5.29h5.29
		v21.95v52.07c0,5.84,4.74,10.57,10.57,10.57h30.45h65.99h30.45c5.84,0,10.57-4.73,10.57-10.57v-52.07V84.75h5.29
		c2.92,0,5.29-2.36,5.29-5.29v0V58.31C174.59,55.39,172.23,53.03,169.3,53.03z"/>
	<path class="st1" d="M148.2,100.57l15.82-15.82H15.98v74.01c0,5.84,4.74,10.57,10.57,10.57h52.88l26.39-26.39L148.2,100.57z"/>
	<path class="st2" d="M139.42,14c-4.45-4.45-11.67-4.45-16.13,0L82.7,54.6c-4.45,4.46-4.45,11.68,0,16.14
		c4.46,4.46,11.68,4.46,16.13,0l40.59-40.6C143.88,25.68,143.88,18.46,139.42,14z"/>
	<g>
		<circle class="st3" cx="64.43" cy="113.83" r="7.93"/>
		<circle class="st3" cx="38" cy="113.83" r="7.93"/>
		<circle class="st3" cx="64.43" cy="140.26" r="7.93"/>
		<circle class="st3" cx="38" cy="140.26" r="7.93"/>
	</g>
	<g>
		<circle class="st3" cx="142" cy="113.82" r="7.93"/>
		<circle class="st3" cx="115.57" cy="113.82" r="7.93"/>
		<circle class="st3" cx="142" cy="140.25" r="7.93"/>
		<circle class="st3" cx="115.57" cy="140.25" r="7.93"/>
	</g>
</g>
</svg>
