<?xml version="1.0" encoding="utf-8"?>
<svg version="1.1" id="3"
    xmlns="http://www.w3.org/2000/svg" x="0px" y="0px" viewBox="0 0 270 270" style="enable-background:new 0 0 270 270;" xml:space="preserve">
    <g fill="#F2E1AA">
        <g>
            <path d="M137.5,83.22l-6.06,13.32c0,0-0.41,4.02,0.4,5.04c0.81,1.02,4.65,2.91,6.53,2.27
			c2.03-0.69,5.22-1.9,7.19-5.18c1.42-2.37,2.84-6.97,2.84-9.39s-2.42-4.85-3.63-6.06C143.55,82.01,139.92,80.8,137.5,83.22z"/>
        </g>
        <g>
            <path d="M126.23,57.81l9.25,15.88c0,0,3.82,3.34,5.45,3.25c1.63-0.09,6.36-2.65,7.07-5.04
			c0.76-2.58,1.85-6.73-0.09-11.13c-1.39-3.18-5.08-7.97-7.56-9.73c-2.48-1.76-6.72-1.04-8.84-0.68
			C129.38,50.73,125.5,53.57,126.23,57.81z" transform="translate(-50, 50)"/>
        </g>
        <g>
            <path d="M154.75,68.75l10.8,9.88c0,0,3.69,1.64,4.91,1.18c1.22-0.46,4.2-3.52,4.18-5.51
			c-0.03-2.15-0.19-5.55-2.7-8.44c-1.81-2.08-5.75-4.85-8.05-5.6c-2.3-0.75-5.36,0.8-6.88,1.58
			C155.47,62.61,153.2,65.7,154.75,68.75z" transform="translate(-20, 70)"/>
        </g>
        <g>
            <path d="M182.44,111.05l12.36,2.92c0,0,4.09-0.6,5.35-1.7c1.27-1.11,4.21-5.59,4.02-7.39
			c-0.21-1.94-0.66-4.96-3.59-6.18c-2.11-0.88-6.55-1.18-9.07-0.56c-2.53,0.62-5.67,3.77-7.23,5.34
			C182.71,105.04,180.52,109.15,182.44,111.05z" transform="translate(-160, 40)"/>
        </g>
        <g>
            <path d="M182.44,111.05l12.36,2.92c0,0,4.09-0.6,5.35-1.7c1.27-1.11,4.21-5.59,4.02-7.39
			c-0.21-1.94-0.66-4.96-3.59-6.18c-2.11-0.88-6.55-1.18-9.07-0.56c-2.53,0.62-5.67,3.77-7.23,5.34
			C182.71,105.04,180.52,109.15,182.44,111.05z" transform="translate(-60, 80)"/>
        </g>
        <g>
            <path d="M206.7,77.68l3.92,17.96c0,0,2.6,4.35,4.19,4.77c1.58,0.42,6.86-0.56,8.27-2.62
			c1.52-2.22,3.83-5.83,3.34-10.62c-0.35-3.45-2.38-9.14-4.2-11.58c-1.82-2.44-6.08-3.06-8.21-3.36
			C211.89,71.91,207.32,73.42,206.7,77.68z" transform="translate(0, 50)"/>
        </g>
    </g>
</svg>