<?xml version="1.0" encoding="utf-8"?>
<svg version="1.1" id="3" xmlns="http://www.w3.org/2000/svg" x="0px"
    y="0px" viewBox="0 0 270 270" style="enable-background:new 0 0 270 270;" xml:space="preserve">
	<g fill="#E5AF51">
		<g>
			<path d="M49.45,159.68l-3.31,7.28c0,0-0.23,2.2,0.22,2.75c0.44,0.56,2.54,1.59,3.57,1.24
				c1.11-0.38,2.85-1.04,3.93-2.83c0.78-1.29,1.55-3.81,1.55-5.13c0-1.32-1.32-2.65-1.99-3.31
				C52.76,159.02,50.78,158.36,49.45,159.68z" transform="translate(80, -24)"/>
		</g>
		<g>
			<path d="M37.78,145.4l5.06,8.68c0,0,2.09,1.83,2.98,1.78c0.89-0.05,3.47-1.45,3.86-2.76
				c0.42-1.41,1.01-3.68-0.05-6.08c-0.76-1.74-2.78-4.35-4.13-5.32c-1.36-0.96-3.67-0.57-4.83-0.37
				C39.51,141.53,37.39,143.08,37.78,145.4z" transform="translate(58, -68)"/>
		</g>
		<g>
			<path d="M59.42,157.42l5.9,5.4c0,0,2.02,0.89,2.69,0.64c0.67-0.25,2.3-1.92,2.28-3.01c-0.02-1.17-0.1-3.03-1.48-4.61
				c-0.99-1.14-3.14-2.65-4.4-3.06c-1.26-0.41-2.93,0.44-3.76,0.86C59.82,154.06,58.57,155.75,59.42,157.42z" transform="translate(50, -23)"/>
		</g>
		<g>
			<path d="M52.02,145.95l6.76,1.59c0,0,2.23-0.33,2.93-0.93c0.69-0.61,2.3-3.06,2.19-4.04
				c-0.11-1.06-0.36-2.71-1.96-3.38c-1.15-0.48-3.58-0.65-4.96-0.31c-1.38,0.34-3.1,2.06-3.95,2.92
				C52.17,142.66,50.98,144.91,52.02,145.95z" transform="translate(102, -42)"/>
		</g>
		<g>
			<path d="M50.01,172.88l2.14,9.81c0,0,1.42,2.38,2.29,2.61c0.86,0.23,3.75-0.31,4.52-1.43
				c0.83-1.21,2.09-3.19,1.83-5.8c-0.19-1.89-1.3-5-2.3-6.33c-0.99-1.33-3.32-1.67-4.49-1.84S50.34,170.55,50.01,172.88z" transform="translate(85, -24)"/>
		</g>
		<g>
			<path d="M89.18,200.21l-3.31,7.28c0,0-0.23,2.2,0.22,2.75c0.44,0.56,2.54,1.59,3.57,1.24
				c1.11-0.38,2.85-1.04,3.93-2.83c0.78-1.29,1.55-3.81,1.55-5.13c0-1.32-1.32-2.65-1.99-3.31
				C92.49,199.55,90.5,198.89,89.18,200.21z" transform="translate(12, -08)"/>
		</g>
		<g>
			<path d="M67.82,195.1l5.06,8.68c0,0,2.09,1.83,2.98,1.78s3.47-1.45,3.86-2.76c0.42-1.41,1.01-3.68-0.05-6.08
				c-0.76-1.74-2.78-4.35-4.13-5.32c-1.36-0.96-3.67-0.57-4.83-0.37C69.54,191.23,67.42,192.78,67.82,195.1z" transform="translate(35, -83)"/>
		</g>
		<g>
			<path d="M98.6,192.3l5.9,5.4c0,0,2.02,0.89,2.69,0.64c0.67-0.25,2.3-1.92,2.28-3.01c-0.02-1.17-0.1-3.03-1.48-4.61
				c-0.99-1.14-3.14-2.65-4.4-3.06c-1.26-0.41-2.93,0.44-3.76,0.86C99,188.95,97.76,190.64,98.6,192.3z" transform="translate(97, -35)"/>
		</g>
		<g>
			<path d="M103.48,184.41l6.76,1.59c0,0,2.23-0.33,2.93-0.93s2.3-3.06,2.19-4.04c-0.11-1.06-0.36-2.71-1.96-3.38
				c-1.15-0.48-3.58-0.65-4.96-0.31s-3.1,2.06-3.95,2.92S102.43,183.37,103.48,184.41z" transform="translate(21, -89)"/>
		</g>
		<g>
			<path d="M96.87,203.36l2.14,9.81c0,0,1.42,2.38,2.29,2.61c0.86,0.23,3.75-0.31,4.52-1.43
				c0.83-1.21,2.09-3.19,1.83-5.8c-0.19-1.89-1.3-5-2.3-6.33c-0.99-1.33-3.32-1.67-4.49-1.84S97.21,201.04,96.87,203.36z" transform="translate(35, -08)"/>
		</g>
		<g>
			<path d="M92.45,170.18l6.29,4.93c0,0,2.08,0.74,2.73,0.44c0.65-0.3,2.14-2.09,2.05-3.18
				c-0.11-1.17-0.33-3.02-1.82-4.49c-1.07-1.06-3.33-2.41-4.62-2.72c-1.29-0.31-2.89,0.66-3.68,1.15
				C92.58,166.81,91.47,168.58,92.45,170.18z" transform="translate(47, -12)"/>
		</g>
		<g>
			<path d="M75.81,178.15l9.63-2.87c0,0,2.27-1.6,2.43-2.48s-0.59-3.72-1.77-4.4c-1.27-0.74-3.33-1.85-5.92-1.39
				c-1.87,0.33-4.89,1.67-6.14,2.76c-1.25,1.09-1.42,3.44-1.5,4.61C72.46,175.56,73.47,177.99,75.81,178.15z" transform="translate(86, -16)"/>
		</g>
		<g>
			<path d="M86.98,159.15l6.64-4.46c0,0,1.34-1.75,1.26-2.46s-1.33-2.69-2.39-2.93c-1.14-0.26-2.97-0.62-4.83,0.35
				c-1.34,0.69-3.32,2.43-4.01,3.55c-0.7,1.13-0.26,2.95-0.05,3.86S85.16,159.58,86.98,159.15z" transform="translate(52, -69)"/>
		</g>
		<g>
			<path d="M79.71,155.85l3.14-6.19c0,0,0.21-2.25-0.21-3.06c-0.42-0.82-2.43-2.96-3.41-3.09
				c-1.06-0.14-2.72-0.29-3.74,1.11c-0.74,1.01-1.47,3.32-1.47,4.75c0,1.42,1.27,3.49,1.9,4.53
				C76.55,154.93,78.45,156.62,79.71,155.85z" transform="translate(69, -35)"/>
		</g>
		<g>
			<path d="M99.61,159.35l10.04,0.24c0,0,2.65-0.82,3.07-1.61c0.42-0.79,0.59-3.72-0.33-4.73
				c-0.98-1.1-2.6-2.78-5.21-3.14c-1.88-0.26-5.16,0.08-6.69,0.74c-1.53,0.65-2.41,2.83-2.85,3.92
				C97.22,155.86,97.43,158.48,99.61,159.35z" transform="translate(35, -87)"/>
		</g>
	</g>
</svg>