<?xml version="1.0" encoding="utf-8"?>
<svg version="1.1" id="3" xmlns="http://www.w3.org/2000/svg" x="0px"
    y="0px" viewBox="0 0 270 270" style="enable-background:new 0 0 270 270;" xml:space="preserve">
	<g>
		<path fill="#7C0606" d="M107.39,61.78c-3.22,0-5.84-2.62-5.84-5.84c0-0.15,0.01-0.31,0.02-0.47c-0.33-0.66-0.5-1.39-0.5-2.13
			c0-2.66,2.17-4.83,4.83-4.83c1.15,0,2.24,0.4,3.11,1.13c0.46-0.14,0.93-0.21,1.42-0.21c2.68,0,4.86,2.18,4.86,4.86
			c0,1.88-1.07,3.56-2.74,4.37C111.54,60.57,109.55,61.78,107.39,61.78z M105.91,50.08c-1.8,0-3.26,1.46-3.26,3.26
			c0,0.56,0.14,1.11,0.42,1.6l0.13,0.22l-0.03,0.25c-0.02,0.18-0.03,0.36-0.03,0.53c0,2.36,1.92,4.27,4.27,4.27
			c1.65,0,3.17-0.97,3.87-2.47l0.13-0.28l0.28-0.12c1.24-0.51,2.05-1.71,2.05-3.05c0-1.82-1.48-3.3-3.3-3.3
			c-0.45,0-0.88,0.09-1.29,0.26l-0.5,0.21l-0.37-0.39C107.64,50.43,106.8,50.08,105.91,50.08z"/>
		<path fill="#FF0000" d="M107.51,60.77c-2.73,0-4.95-2.22-4.95-4.95c0-0.13,0.01-0.26,0.02-0.4c-0.28-0.56-0.42-1.18-0.42-1.81
			c0-2.26,1.84-4.1,4.1-4.1c0.98,0,1.9,0.34,2.64,0.96c0.39-0.12,0.79-0.18,1.2-0.18c2.27,0,4.13,1.85,4.13,4.13
			c0,1.59-0.9,3.02-2.32,3.71C111.04,59.75,109.34,60.77,107.51,60.77z M106.25,50.84c-1.53,0-2.77,1.24-2.77,2.77
			c0,0.47,0.12,0.94,0.35,1.35l0.11,0.19l-0.03,0.22c-0.02,0.16-0.03,0.3-0.03,0.45c0,2,1.63,3.63,3.63,3.63
			c1.4,0,2.69-0.82,3.29-2.1l0.11-0.24l0.24-0.1c1.06-0.43,1.74-1.45,1.74-2.59c0-1.54-1.26-2.8-2.8-2.8c-0.38,0-0.75,0.08-1.1,0.22
			l-0.42,0.18l-0.32-0.33C107.72,51.15,107.01,50.84,106.25,50.84z"/>
	</g>
	<g>
		<path fill="#7C0606" d="M86.84,127.42c-3.22,0-5.84-2.62-5.84-5.84c0-0.15,0.01-0.31,0.02-0.47c-0.33-0.66-0.5-1.39-0.5-2.13
			c0-2.66,2.17-4.83,4.83-4.83c1.15,0,2.24,0.4,3.11,1.13c0.46-0.14,0.93-0.21,1.42-0.21c2.68,0,4.86,2.18,4.86,4.86
			c0,1.88-1.07,3.56-2.74,4.37C90.99,126.22,89,127.42,86.84,127.42z M85.35,115.73c-1.8,0-3.26,1.46-3.26,3.26
			c0,0.56,0.14,1.11,0.42,1.6l0.13,0.22l-0.03,0.25c-0.02,0.18-0.03,0.36-0.03,0.53c0,2.36,1.92,4.27,4.27,4.27
			c1.65,0,3.17-0.97,3.87-2.47l0.13-0.28l0.28-0.12c1.24-0.51,2.05-1.71,2.05-3.05c0-1.82-1.48-3.3-3.3-3.3
			c-0.45,0-0.88,0.09-1.29,0.26l-0.5,0.21l-0.37-0.39C87.09,116.08,86.25,115.73,85.35,115.73z"/>
		<path fill="#FF0000" d="M86.96,126.42c-2.73,0-4.95-2.22-4.95-4.95c0-0.13,0.01-0.26,0.02-0.4c-0.28-0.56-0.42-1.18-0.42-1.81
			c0-2.26,1.84-4.1,4.1-4.1c0.98,0,1.9,0.34,2.64,0.96c0.39-0.12,0.79-0.18,1.2-0.18c2.27,0,4.13,1.85,4.13,4.13
			c0,1.59-0.9,3.02-2.32,3.71C90.48,125.4,88.79,126.42,86.96,126.42z M85.7,116.49c-1.53,0-2.77,1.24-2.77,2.77
			c0,0.47,0.12,0.94,0.35,1.35l0.11,0.19l-0.03,0.22c-0.02,0.16-0.03,0.3-0.03,0.45c0,2,1.63,3.63,3.63,3.63
			c1.4,0,2.69-0.82,3.29-2.1l0.11-0.24l0.24-0.1c1.06-0.43,1.74-1.45,1.74-2.59c0-1.54-1.26-2.8-2.8-2.8c-0.38,0-0.75,0.08-1.1,0.22
			l-0.42,0.18l-0.32-0.33C87.17,116.8,86.46,116.49,85.7,116.49z"/>
	</g>
	<g>
		<path fill="#7C0606" d="M46.31,161.32c-3.22,0-5.84-2.62-5.84-5.84c0-0.15,0.01-0.31,0.02-0.47c-0.33-0.66-0.5-1.39-0.5-2.13
			c0-2.66,2.17-4.83,4.83-4.83c1.15,0,2.24,0.4,3.11,1.13c0.46-0.14,0.93-0.21,1.42-0.21c2.68,0,4.86,2.18,4.86,4.86
			c0,1.88-1.07,3.56-2.74,4.37C50.46,160.11,48.47,161.32,46.31,161.32z M44.82,149.62c-1.8,0-3.26,1.46-3.26,3.26
			c0,0.56,0.14,1.11,0.42,1.6l0.13,0.22l-0.03,0.25c-0.02,0.18-0.03,0.36-0.03,0.53c0,2.36,1.92,4.27,4.27,4.27
			c1.65,0,3.17-0.97,3.87-2.47l0.13-0.28l0.28-0.12c1.24-0.51,2.05-1.71,2.05-3.05c0-1.82-1.48-3.3-3.3-3.3
			c-0.45,0-0.88,0.09-1.29,0.26l-0.5,0.21l-0.37-0.39C46.55,149.98,45.72,149.62,44.82,149.62z"/>
		<path fill="#FF0000" d="M46.43,160.31c-2.73,0-4.95-2.22-4.95-4.95c0-0.13,0.01-0.26,0.02-0.4c-0.28-0.56-0.42-1.18-0.42-1.81
			c0-2.26,1.84-4.1,4.1-4.1c0.98,0,1.9,0.34,2.64,0.96c0.39-0.12,0.79-0.18,1.2-0.18c2.27,0,4.13,1.85,4.13,4.13
			c0,1.59-0.9,3.02-2.32,3.71C49.95,159.29,48.26,160.31,46.43,160.31z M45.16,150.38c-1.53,0-2.77,1.24-2.77,2.77
			c0,0.47,0.12,0.94,0.35,1.35l0.11,0.19l-0.03,0.22c-0.02,0.16-0.03,0.3-0.03,0.45c0,2,1.63,3.63,3.63,3.63
			c1.4,0,2.69-0.82,3.29-2.1l0.11-0.24l0.24-0.1c1.06-0.43,1.74-1.45,1.74-2.59c0-1.54-1.26-2.8-2.8-2.8c-0.38,0-0.75,0.08-1.1,0.22
			l-0.42,0.18l-0.32-0.33C46.64,150.69,45.93,150.38,45.16,150.38z"/>
	</g>
	<g>
		<path fill="#7C0606" d="M101.85,183.13c-3.22,0-5.84-2.62-5.84-5.84c0-0.15,0.01-0.31,0.02-0.47c-0.33-0.66-0.5-1.39-0.5-2.13
			c0-2.66,2.17-4.83,4.83-4.83c1.15,0,2.24,0.4,3.11,1.13c0.46-0.14,0.93-0.21,1.42-0.21c2.68,0,4.86,2.18,4.86,4.86
			c0,1.88-1.07,3.56-2.74,4.37C106,181.92,104.01,183.13,101.85,183.13z M100.36,171.43c-1.8,0-3.26,1.46-3.26,3.26
			c0,0.56,0.14,1.11,0.42,1.6l0.13,0.22l-0.03,0.25c-0.02,0.18-0.03,0.36-0.03,0.53c0,2.36,1.92,4.27,4.27,4.27
			c1.65,0,3.17-0.97,3.87-2.47l0.13-0.28l0.28-0.12c1.24-0.51,2.05-1.71,2.05-3.05c0-1.82-1.48-3.3-3.3-3.3
			c-0.45,0-0.88,0.09-1.29,0.26l-0.5,0.21l-0.37-0.39C102.1,171.79,101.26,171.43,100.36,171.43z"/>
		<path fill="#FF0000" d="M101.97,182.13c-2.73,0-4.95-2.22-4.95-4.95c0-0.13,0.01-0.26,0.02-0.4c-0.28-0.56-0.42-1.18-0.42-1.81
			c0-2.26,1.84-4.1,4.1-4.1c0.98,0,1.9,0.34,2.64,0.96c0.39-0.12,0.79-0.18,1.2-0.18c2.27,0,4.13,1.85,4.13,4.13
			c0,1.59-0.9,3.02-2.32,3.71C105.49,181.1,103.8,182.13,101.97,182.13z M100.71,172.2c-1.53,0-2.77,1.24-2.77,2.77
			c0,0.47,0.12,0.94,0.35,1.35l0.11,0.19l-0.03,0.22c-0.02,0.16-0.03,0.3-0.03,0.45c0,2,1.63,3.63,3.63,3.63
			c1.4,0,2.69-0.82,3.29-2.1l0.11-0.24l0.24-0.1c1.06-0.43,1.74-1.45,1.74-2.59c0-1.54-1.26-2.8-2.8-2.8c-0.38,0-0.75,0.08-1.1,0.22
			l-0.42,0.18l-0.32-0.33C102.18,172.5,101.47,172.2,100.71,172.2z"/>
	</g>
	<g>
		<path fill="#7C0606" d="M133.8,178.83c-3.22,0-5.84-2.62-5.84-5.84c0-0.15,0.01-0.31,0.02-0.47c-0.33-0.66-0.5-1.39-0.5-2.13
			c0-2.66,2.17-4.83,4.83-4.83c1.15,0,2.24,0.4,3.11,1.13c0.46-0.14,0.93-0.21,1.42-0.21c2.68,0,4.86,2.18,4.86,4.86
			c0,1.88-1.07,3.56-2.74,4.37C137.95,177.62,135.96,178.83,133.8,178.83z M132.31,167.13c-1.8,0-3.26,1.46-3.26,3.26
			c0,0.56,0.14,1.11,0.42,1.6l0.13,0.22l-0.03,0.25c-0.02,0.18-0.03,0.36-0.03,0.53c0,2.36,1.92,4.27,4.27,4.27
			c1.65,0,3.17-0.97,3.87-2.47l0.13-0.28l0.28-0.12c1.24-0.51,2.05-1.71,2.05-3.05c0-1.82-1.48-3.3-3.3-3.3
			c-0.45,0-0.88,0.09-1.29,0.26l-0.5,0.21l-0.37-0.39C134.05,167.49,133.21,167.13,132.31,167.13z"/>
		<path fill="#FF0000" d="M133.92,177.83c-2.73,0-4.95-2.22-4.95-4.95c0-0.13,0.01-0.26,0.02-0.4c-0.28-0.56-0.42-1.18-0.42-1.81
			c0-2.26,1.84-4.1,4.1-4.1c0.98,0,1.9,0.34,2.64,0.96c0.39-0.12,0.79-0.18,1.2-0.18c2.27,0,4.13,1.85,4.13,4.13
			c0,1.59-0.9,3.02-2.32,3.71C137.44,176.8,135.75,177.83,133.92,177.83z M132.66,167.9c-1.53,0-2.77,1.24-2.77,2.77
			c0,0.47,0.12,0.94,0.35,1.35l0.11,0.19l-0.03,0.22c-0.02,0.16-0.03,0.3-0.03,0.45c0,2,1.63,3.63,3.63,3.63
			c1.4,0,2.69-0.82,3.29-2.1l0.11-0.24l0.24-0.1c1.06-0.43,1.74-1.45,1.74-2.59c0-1.54-1.26-2.8-2.8-2.8c-0.38,0-0.75,0.08-1.1,0.22
			l-0.42,0.18l-0.32-0.33C134.13,168.2,133.42,167.9,132.66,167.9z"/>
	</g>
	<g>
		<path fill="#7C0606" d="M231.81,119.01c-3.22,0-5.84-2.62-5.84-5.84c0-0.15,0.01-0.31,0.02-0.47c-0.33-0.66-0.5-1.39-0.5-2.13
			c0-2.66,2.17-4.83,4.83-4.83c1.15,0,2.24,0.4,3.11,1.13c0.46-0.14,0.93-0.21,1.42-0.21c2.68,0,4.86,2.18,4.86,4.86
			c0,1.88-1.07,3.56-2.74,4.37C235.96,117.8,233.96,119.01,231.81,119.01z M230.32,107.31c-1.8,0-3.26,1.46-3.26,3.26
			c0,0.56,0.14,1.11,0.42,1.6l0.13,0.22l-0.03,0.25c-0.02,0.18-0.03,0.36-0.03,0.53c0,2.36,1.92,4.27,4.27,4.27
			c1.65,0,3.17-0.97,3.87-2.47l0.13-0.28l0.28-0.12c1.24-0.51,2.05-1.71,2.05-3.05c0-1.82-1.48-3.3-3.3-3.3
			c-0.45,0-0.88,0.09-1.29,0.26l-0.5,0.21l-0.37-0.39C232.05,107.67,231.22,107.31,230.32,107.31z"/>
		<path fill="#FF0000" d="M231.93,118.01c-2.73,0-4.95-2.22-4.95-4.95c0-0.13,0.01-0.26,0.02-0.4c-0.28-0.56-0.42-1.18-0.42-1.81
			c0-2.26,1.84-4.1,4.1-4.1c0.98,0,1.9,0.34,2.64,0.96c0.39-0.12,0.79-0.18,1.2-0.18c2.27,0,4.13,1.85,4.13,4.13
			c0,1.59-0.9,3.02-2.32,3.71C235.45,116.98,233.76,118.01,231.93,118.01z M230.66,108.08c-1.53,0-2.77,1.24-2.77,2.77
			c0,0.47,0.12,0.94,0.35,1.35l0.11,0.19l-0.03,0.22c-0.02,0.16-0.03,0.3-0.03,0.45c0,2,1.63,3.63,3.63,3.63
			c1.4,0,2.69-0.82,3.29-2.1l0.11-0.24l0.24-0.1c1.06-0.43,1.74-1.45,1.74-2.59c0-1.54-1.26-2.8-2.8-2.8c-0.38,0-0.75,0.08-1.1,0.22
			l-0.42,0.18l-0.32-0.33C232.14,108.38,231.42,108.08,230.66,108.08z"/>
	</g>
</svg>