<?xml version="1.0" encoding="utf-8"?>
<svg version="1.1" id="3"
    xmlns="http://www.w3.org/2000/svg" x="0px" y="0px" viewBox="0 0 270 270" style="enable-background:new 0 0 270 270;" xml:space="preserve">
    <g fill="#F4F1EE">
        <g>
            <path d="M137.16,168.11l-6.06,13.32c0,0-0.41,4.02,0.4,5.04s4.65,2.91,6.53,2.27c2.03-0.69,5.22-1.9,7.19-5.18
			c1.42-2.37,2.84-6.97,2.84-9.39s-2.42-4.85-3.63-6.06C143.22,166.9,139.59,165.69,137.16,168.11z"/>
        </g>
        <g>
            <path d="M64.2,116.09l12.69,7.29c0,0,3.96,0.79,5.05,0.08c1.09-0.71,3.34-4.35,2.88-6.29
			c-0.5-2.09-1.4-5.38-4.48-7.65c-2.22-1.64-6.67-3.48-9.08-3.71s-5.05,1.95-6.37,3.04S62.02,113.45,64.2,116.09z"/>
        </g>
        <g>
            <path d="M130.01,83.6l12.36,2.92c0,0,4.09-0.6,5.35-1.7s4.21-5.59,4.02-7.39c-0.21-1.94-0.66-4.96-3.59-6.18
			c-2.11-0.88-6.55-1.18-9.07-0.56c-2.53,0.62-5.67,3.77-7.23,5.34S128.1,81.69,130.01,83.6z"/>
        </g>
        <g>
            <path d="M167.23,155.91l9.25,15.88c0,0,3.82,3.34,5.45,3.25c1.63-0.09,6.36-2.65,7.07-5.04
			c0.76-2.58,1.85-6.73-0.09-11.13c-1.39-3.18-5.08-7.97-7.56-9.73s-6.72-1.04-8.84-0.68S166.51,151.67,167.23,155.91z"/>
        </g>
        <g>
            <path d="M59.12,171.48l11.99-5.54c0,0,2.65-2.5,2.7-3.68c0.05-1.18-1.46-4.73-3.13-5.4c-1.8-0.72-4.69-1.78-7.97-0.69
			c-2.37,0.78-6.05,3.09-7.47,4.75c-1.43,1.66-1.2,4.74-1.08,6.28C54.26,168.74,56.03,171.71,59.12,171.48z"/>
        </g>
        <g>
            <path d="M80.71,84.9l11.97-10.55c0,0,2.36-4.62,2.14-6.72c-0.21-2.1-2.67-8.37-4.66-9.48
			c-2.14-1.2-5.56-2.93-8.94-0.81c-2.43,1.52-5.96,5.85-7.17,8.89c-1.2,3.04-0.26,8.54,0.22,11.29S77.36,85.48,80.71,84.9z"/>
        </g>
        <g>
            <path d="M148.02,198.64l10.8,9.88c0,0,3.69,1.64,4.91,1.18c1.22-0.46,4.2-3.52,4.18-5.51
			c-0.03-2.15-0.19-5.55-2.7-8.44c-1.81-2.08-5.75-4.85-8.05-5.6c-2.3-0.75-5.36,0.8-6.88,1.58
			C148.74,192.5,146.46,195.58,148.02,198.64z"/>
        </g>
        <g>
            <path d="M182.44,111.05l12.36,2.92c0,0,4.09-0.6,5.35-1.7c1.27-1.11,4.21-5.59,4.02-7.39
			c-0.21-1.94-0.66-4.96-3.59-6.18c-2.11-0.88-6.55-1.18-9.07-0.56c-2.53,0.62-5.67,3.77-7.23,5.34
			C182.71,105.04,180.52,109.15,182.44,111.05z"/>
        </g>
        <g>
            <path d="M206.7,77.68l3.92,17.96c0,0,2.6,4.35,4.19,4.77c1.58,0.42,6.86-0.56,8.27-2.62
			c1.52-2.22,3.83-5.83,3.34-10.62c-0.35-3.45-2.38-9.14-4.2-11.58c-1.82-2.44-6.08-3.06-8.21-3.36
			C211.89,71.91,207.32,73.42,206.7,77.68z"/>
        </g>
        <g>
            <path d="M94.48,211.84l11.97-10.55c0,0,2.36-4.62,2.14-6.72c-0.21-2.1-2.67-8.37-4.66-9.48
			c-2.14-1.2-5.56-2.93-8.94-0.81c-2.43,1.52-5.96,5.85-7.17,8.89c-1.2,3.04-0.26,8.54,0.22,11.29S91.14,212.42,94.48,211.84z"/>
        </g>
    </g>
</svg>