<?xml version="1.0" encoding="utf-8"?>
<svg version="1.1" id="3"
    xmlns="http://www.w3.org/2000/svg" x="0px" y="0px" viewBox="0 0 270 270" style="enable-background:new 0 0 270 270;" xml:space="preserve">
    <g fill="#64C37D" stroke="#2DA546" stroke-miterlimit="10">
        <g>
            <g>
                <g>
                    <path stroke-width="0.4668" d="M161.05,207.53c0.13-0.48-0.04-0.98-0.42-1.28c1.07-2.53,0.77-5.09,0.75-5.21
					c-0.06-0.51-0.43-0.92-0.93-1.04c-0.04-0.01-0.27-0.06-0.65-0.13c0.03-2.76-1.24-5.04-1.3-5.15c-0.11-0.2-0.27-0.35-0.46-0.46
					c-0.24-0.13-0.51-0.19-0.79-0.14c-0.12,0.02-2.61,0.43-4.8,1.65c-0.32-0.38-0.55-0.61-0.57-0.63c-0.36-0.36-0.9-0.47-1.37-0.26
					c-0.11,0.05-2.47,1.11-4.09,3.32c-0.46-0.18-0.98-0.06-1.32,0.3c-0.15,0.16-3.73,3.99-2.48,8.52c0.35,1.27,1.04,2.42,2.04,3.41
					l-2.44,4.31c-0.33,0.59-0.13,1.33,0.46,1.66l2.12,1.2l2.12,1.2c0.59,0.33,1.33,0.13,1.66-0.46l2.42-4.26
					c1.21,0.28,2.58,0.35,4-0.05C159.55,212.77,160.99,207.74,161.05,207.53z"/>
                    <path stroke-width="0.4668" d="M161.05,207.53c0.13-0.48-0.04-0.98-0.42-1.28c1.07-2.53,0.77-5.09,0.75-5.21
					c-0.06-0.51-0.43-0.92-0.93-1.04c-0.04-0.01-0.27-0.06-0.65-0.13c0.03-2.76-1.24-5.04-1.3-5.15c-0.11-0.2-0.27-0.35-0.46-0.46
					c-0.24-0.13-0.51-0.19-0.79-0.14c-0.12,0.02-2.61,0.43-4.8,1.65c-0.32-0.38-0.55-0.61-0.57-0.63c-0.36-0.36-0.9-0.47-1.37-0.26
					c-0.11,0.05-2.47,1.11-4.09,3.32c-0.46-0.18-0.98-0.06-1.32,0.3c-0.15,0.16-3.73,3.99-2.48,8.52c0.35,1.27,1.04,2.42,2.04,3.41
					l-2.44,4.31c-0.33,0.59-0.13,1.33,0.46,1.66l2.12,1.2l2.12,1.2c0.59,0.33,1.33,0.13,1.66-0.46l2.42-4.26
					c1.21,0.28,2.58,0.35,4-0.05C159.55,212.77,160.99,207.74,161.05,207.53z"/>
                </g>
                <path stroke-width="0.4668" d="M154.94,199.74c0.83-0.13,1.66-0.16,2.43-0.14c0.44,0.01,0.85,0.05,1.22,0.08c0.48,0.05,0.9,0.11,1.22,0.17
				c0.03-2.76-1.24-5.04-1.3-5.15c-0.11-0.2-0.27-0.35-0.46-0.46L154.94,199.74C154.94,199.74,154.94,199.74,154.94,199.74z"/>
                <path stroke-width="0.4668" d="M157.36,199.61c-0.77-0.02-1.6,0-2.43,0.14c0,0,0,0,0,0l-2.26,3.99c0.05-0.01,0.11-0.02,0.16-0.03
				c0.24-0.04,0.48-0.06,0.72-0.06c0.19-0.01,0.38,0,0.57,0.01c0.41,0.02,0.81,0.08,1.21,0.16c0.03,0.01,0.07,0.01,0.1,0.02
				c0.41,0.09,0.81,0.21,1.21,0.34c0.39,0.14,0.78,0.29,1.14,0.45c0.25,0.11,0.49,0.23,0.72,0.34c0.27,0.13,0.52,0.27,0.76,0.41
				c0.11,0.06,0.22,0.13,0.32,0.19c0.61,0.36,0.99,0.63,1,0.65c0.01,0.01,0.03,0.02,0.04,0.03c1.07-2.53,0.77-5.09,0.75-5.21
				c-0.06-0.51-0.43-0.92-0.93-1.04c-0.04-0.01-0.27-0.06-0.65-0.13c-0.32-0.06-0.74-0.12-1.22-0.17
				C158.21,199.65,157.8,199.62,157.36,199.61z"/>
                <path stroke-width="0.4668" d="M152.45,195.76c0.22,0.26,0.48,0.59,0.76,0.97c0.19,0.26,0.39,0.55,0.59,0.86c0.03,0.05,0.07,0.11,0.1,0.16
				c0.43,0.68,0.77,1.35,1.03,1.99l3.11-5.49c-0.24-0.13-0.51-0.19-0.79-0.14C157.13,194.13,154.64,194.54,152.45,195.76z"/>
                <path stroke-width="0.4668" d="M152.67,203.73c-0.08-0.21-0.17-0.42-0.28-0.63c-0.19-0.36-0.42-0.71-0.69-1.06
				c-0.14-0.18-0.3-0.36-0.46-0.54c-0.27-0.3-0.57-0.59-0.91-0.87c-0.3-0.26-0.62-0.51-0.97-0.76c-0.06-0.04-0.11-0.08-0.17-0.12
				c-0.2-0.14-0.39-0.27-0.58-0.39c-0.39-0.24-0.75-0.45-1.06-0.62c-0.62-0.33-1.04-0.52-1.07-0.53c-0.01-0.01-0.03-0.01-0.05-0.02
				c-0.46-0.18-0.98-0.06-1.32,0.3c-0.15,0.16-3.73,3.99-2.48,8.52c0.35,1.27,1.04,2.42,2.04,3.41l-2.44,4.31
				c-0.33,0.59-0.13,1.33,0.46,1.66l2.12,1.2L152.67,203.73C152.67,203.73,152.67,203.73,152.67,203.73z"/>
                <path stroke-width="0.4668" d="M153.91,197.75c-0.03-0.05-0.07-0.11-0.1-0.16c-0.2-0.31-0.4-0.59-0.59-0.86c-0.28-0.38-0.55-0.71-0.76-0.97
				c-0.32-0.38-0.55-0.61-0.57-0.63c-0.36-0.36-0.9-0.47-1.37-0.26c-0.11,0.05-2.47,1.11-4.09,3.32c0.02,0.01,0.03,0.01,0.05,0.02
				c0.03,0.01,0.45,0.2,1.07,0.53c0.31,0.17,0.68,0.38,1.06,0.62c0.19,0.12,0.38,0.25,0.58,0.39c0.06,0.04,0.12,0.08,0.17,0.12
				c0.35,0.25,0.67,0.5,0.97,0.76c0.33,0.29,0.64,0.58,0.91,0.87c0.17,0.18,0.32,0.36,0.46,0.54c0.27,0.35,0.5,0.7,0.69,1.06
				c0.11,0.21,0.2,0.42,0.28,0.63c0,0,0,0,0,0l2.26-3.99C154.68,199.1,154.34,198.43,153.91,197.75z"/>
            </g>
            <g>
                <g>
                    <path stroke-width="0.295" d="M54.51,155.55c-0.25,0.05-0.49,0.33-0.59,0.7c-1.4,0-2.65,1-2.71,1.05c-0.25,0.2-0.41,0.6-0.41,0.99
					c0,0.03,0,0.22,0.01,0.51c-1.39,0.82-2.37,2.44-2.42,2.51c-0.09,0.14-0.14,0.3-0.17,0.47c-0.04,0.21-0.03,0.43,0.02,0.62
					c0.02,0.08,0.53,1.75,1.41,2.96c-0.15,0.35-0.24,0.58-0.25,0.6c-0.14,0.37-0.13,0.8,0.03,1.07c0.04,0.07,0.86,1.44,2.16,1.94
					c-0.03,0.38,0.09,0.73,0.31,0.86c0.1,0.06,2.45,1.48,4.57-0.82c0.59-0.64,1.09-1.5,1.46-2.52l2.46,0.45
					c0.33,0.06,0.68-0.32,0.78-0.84l0.35-1.9l0.35-1.9c0.1-0.53-0.1-1-0.43-1.06l-2.43-0.44c-0.01-0.96-0.14-1.97-0.51-2.88
					C57.33,155.03,54.63,155.53,54.51,155.55z"/>
                    <path stroke-width="0.295" d="M54.51,155.55c-0.25,0.05-0.49,0.33-0.59,0.7c-1.4,0-2.65,1-2.71,1.05c-0.25,0.2-0.41,0.6-0.41,0.99
					c0,0.03,0,0.22,0.01,0.51c-1.39,0.82-2.37,2.44-2.42,2.51c-0.09,0.14-0.14,0.3-0.17,0.47c-0.04,0.21-0.03,0.43,0.02,0.62
					c0.02,0.08,0.53,1.75,1.41,2.96c-0.15,0.35-0.24,0.58-0.25,0.6c-0.14,0.37-0.13,0.8,0.03,1.07c0.04,0.07,0.86,1.44,2.16,1.94
					c-0.03,0.38,0.09,0.73,0.31,0.86c0.1,0.06,2.45,1.48,4.57-0.82c0.59-0.64,1.09-1.5,1.46-2.52l2.46,0.45
					c0.33,0.06,0.68-0.32,0.78-0.84l0.35-1.9l0.35-1.9c0.1-0.53-0.1-1-0.43-1.06l-2.43-0.44c-0.01-0.96-0.14-1.97-0.51-2.88
					C57.33,155.03,54.63,155.53,54.51,155.55z"/>
                </g>
                <path stroke-width="0.295" d="M51.35,162.35c-0.17-0.56-0.28-1.15-0.36-1.71c-0.05-0.32-0.08-0.63-0.11-0.91
				c-0.03-0.37-0.05-0.69-0.06-0.93c-1.39,0.82-2.37,2.44-2.42,2.51c-0.09,0.14-0.14,0.3-0.17,0.47L51.35,162.35
				C51.35,162.35,51.35,162.35,51.35,162.35z"/>
                <path stroke-width="0.295" d="M50.99,160.64c0.08,0.56,0.2,1.16,0.36,1.71c0,0,0,0,0,0l2.28,0.41c-0.01-0.04-0.02-0.07-0.03-0.11
				c-0.05-0.16-0.09-0.33-0.12-0.5c-0.03-0.13-0.05-0.27-0.07-0.41c-0.04-0.3-0.06-0.61-0.07-0.93c0-0.03,0-0.05,0-0.08
				c0-0.32,0-0.65,0.02-0.98c0.02-0.33,0.05-0.65,0.09-0.97c0.03-0.21,0.05-0.42,0.08-0.63c0.04-0.23,0.07-0.46,0.11-0.67
				c0.02-0.1,0.04-0.2,0.05-0.29c0.11-0.55,0.2-0.91,0.2-0.92c0-0.01,0.01-0.02,0.01-0.04c-1.4,0-2.65,1-2.71,1.05
				c-0.25,0.2-0.41,0.6-0.41,0.99c0,0.03,0,0.22,0.01,0.51c0.01,0.25,0.03,0.57,0.06,0.93C50.91,160.01,50.94,160.32,50.99,160.64z" />
                <path stroke-width="0.295" d="M49.66,165.37c0.1-0.24,0.24-0.53,0.39-0.85c0.11-0.22,0.23-0.45,0.36-0.69c0.02-0.04,0.05-0.08,0.07-0.12
				c0.29-0.52,0.58-0.97,0.87-1.35l-3.13-0.57c-0.04,0.21-0.03,0.43,0.02,0.62C48.27,162.49,48.78,164.16,49.66,165.37z"/>
                <path stroke-width="0.295" d="M53.63,162.77c-0.1,0.12-0.19,0.25-0.28,0.39c-0.16,0.24-0.31,0.52-0.45,0.82c-0.07,0.16-0.15,0.32-0.22,0.5
				c-0.12,0.29-0.22,0.59-0.33,0.92c-0.09,0.29-0.18,0.61-0.26,0.93c-0.01,0.05-0.03,0.11-0.04,0.16c-0.04,0.18-0.09,0.36-0.12,0.54
				c-0.08,0.35-0.14,0.68-0.18,0.96c-0.09,0.55-0.13,0.91-0.14,0.94c0,0.01,0,0.03,0,0.04c-0.03,0.38,0.09,0.73,0.31,0.86
				c0.1,0.06,2.45,1.48,4.57-0.82c0.59-0.64,1.09-1.5,1.46-2.52l2.46,0.45c0.33,0.06,0.68-0.32,0.78-0.84l0.35-1.9L53.63,162.77
				C53.63,162.77,53.63,162.77,53.63,162.77z"/>
                <path stroke-width="0.295" d="M50.48,163.71c-0.02,0.04-0.05,0.08-0.07,0.12c-0.13,0.24-0.25,0.47-0.36,0.69
				c-0.16,0.32-0.29,0.61-0.39,0.85c-0.15,0.35-0.24,0.58-0.25,0.6c-0.14,0.37-0.13,0.8,0.03,1.07c0.04,0.07,0.86,1.44,2.16,1.94
				c0-0.01,0-0.03,0-0.04c0-0.03,0.04-0.39,0.14-0.94c0.05-0.28,0.11-0.6,0.18-0.96c0.04-0.17,0.08-0.35,0.12-0.54
				c0.01-0.06,0.03-0.11,0.04-0.16c0.08-0.33,0.17-0.64,0.26-0.93c0.1-0.33,0.21-0.64,0.33-0.92c0.07-0.17,0.14-0.34,0.22-0.5
				c0.14-0.3,0.29-0.58,0.45-0.82c0.09-0.14,0.18-0.27,0.28-0.39c0,0,0,0,0,0l-2.28-0.41C51.06,162.74,50.77,163.19,50.48,163.71z" />
            </g>
            <g>
                <g>
                    <path stroke-width="0.4048" d="M98.59,98.89c0.34,0.16,0.74,0.03,1-0.33c1.8,1.23,3.75,1.1,3.84,1.1c0.39-0.03,0.73-0.37,0.86-0.86
					c0.01-0.04,0.07-0.27,0.15-0.64c2.07,0.21,3.88-0.9,3.97-0.95c0.16-0.1,0.29-0.25,0.39-0.43c0.12-0.23,0.19-0.5,0.18-0.78
					c0-0.12-0.09-2.63-0.82-4.89c0.32-0.3,0.51-0.5,0.52-0.52c0.3-0.33,0.43-0.87,0.32-1.34c-0.03-0.12-0.62-2.53-2.13-4.29
					c0.17-0.44,0.13-0.97-0.11-1.33c-0.11-0.16-2.66-3.98-6.17-3.03c-0.98,0.26-1.91,0.88-2.74,1.8l-3.02-2.72
					c-0.41-0.37-0.99-0.21-1.29,0.35l-1.09,2.03l-1.09,2.03c-0.3,0.56-0.21,1.32,0.2,1.68l2.98,2.69c-0.32,1.19-0.49,2.54-0.32,3.98
					C94.79,97.04,98.43,98.81,98.59,98.89z"/>
                    <path stroke-width="0.4048" d="M98.59,98.89c0.34,0.16,0.74,0.03,1-0.33c1.8,1.23,3.75,1.1,3.84,1.1c0.39-0.03,0.73-0.37,0.86-0.86
					c0.01-0.04,0.07-0.27,0.15-0.64c2.07,0.21,3.88-0.9,3.97-0.95c0.16-0.1,0.29-0.25,0.39-0.43c0.12-0.23,0.19-0.5,0.18-0.78
					c0-0.12-0.09-2.63-0.82-4.89c0.32-0.3,0.51-0.5,0.52-0.52c0.3-0.33,0.43-0.87,0.32-1.34c-0.03-0.12-0.62-2.53-2.13-4.29
					c0.17-0.44,0.13-0.97-0.11-1.33c-0.11-0.16-2.66-3.98-6.17-3.03c-0.98,0.26-1.91,0.88-2.74,1.8l-3.02-2.72
					c-0.41-0.37-0.99-0.21-1.29,0.35l-1.09,2.03l-1.09,2.03c-0.3,0.56-0.21,1.32,0.2,1.68l2.98,2.69c-0.32,1.19-0.49,2.54-0.32,3.98
					C94.79,97.04,98.43,98.81,98.59,98.89z"/>
                </g>
                <path stroke-width="0.4048" d="M104.96,93.32c0.03,0.83-0.03,1.67-0.11,2.43c-0.05,0.43-0.11,0.84-0.17,1.21
				c-0.08,0.48-0.16,0.89-0.23,1.2c2.07,0.21,3.88-0.9,3.97-0.95c0.16-0.1,0.29-0.25,0.39-0.43L104.96,93.32
				C104.96,93.32,104.96,93.32,104.96,93.32z"/>
                <path stroke-width="0.4048" d="M104.85,95.74c0.09-0.76,0.14-1.6,0.11-2.43c0,0,0,0,0,0l-2.79-2.52c0,0.05,0,0.11,0.01,0.16
				c0.01,0.24,0,0.48-0.02,0.72c-0.01,0.19-0.03,0.38-0.06,0.57c-0.05,0.4-0.13,0.8-0.23,1.2c-0.01,0.03-0.02,0.07-0.03,0.1
				c-0.1,0.4-0.23,0.8-0.36,1.18c-0.14,0.38-0.28,0.75-0.44,1.11c-0.1,0.24-0.21,0.47-0.32,0.7c-0.12,0.26-0.25,0.5-0.37,0.73
				c-0.06,0.11-0.11,0.21-0.17,0.31c-0.32,0.58-0.56,0.94-0.57,0.96c-0.01,0.01-0.02,0.02-0.03,0.04c1.8,1.23,3.75,1.1,3.84,1.1
				c0.39-0.03,0.73-0.37,0.86-0.86c0.01-0.04,0.07-0.27,0.15-0.64c0.07-0.31,0.15-0.72,0.23-1.2
				C104.74,96.58,104.8,96.17,104.85,95.74z"/>
                <path stroke-width="0.4048" d="M108.16,91.11c-0.21,0.2-0.48,0.44-0.79,0.7c-0.21,0.17-0.45,0.35-0.69,0.53
				c-0.04,0.03-0.09,0.06-0.13,0.09c-0.55,0.38-1.08,0.68-1.58,0.89l3.84,3.46c0.12-0.23,0.19-0.5,0.18-0.78
				C108.98,95.87,108.89,93.37,108.16,91.11z"/>
                <path stroke-width="0.4048" d="M102.17,90.8c0.16-0.06,0.33-0.14,0.49-0.24c0.29-0.16,0.57-0.37,0.86-0.61c0.15-0.13,0.3-0.27,0.45-0.42
				c0.25-0.25,0.49-0.53,0.73-0.84c0.22-0.28,0.44-0.59,0.65-0.92c0.04-0.05,0.07-0.11,0.11-0.16c0.12-0.19,0.23-0.37,0.34-0.55
				c0.22-0.37,0.41-0.72,0.56-1.02c0.3-0.59,0.48-1,0.49-1.03c0.01-0.01,0.01-0.03,0.02-0.04c0.17-0.44,0.13-0.97-0.11-1.33
				c-0.11-0.16-2.66-3.98-6.17-3.03c-0.98,0.26-1.91,0.88-2.74,1.8l-3.02-2.72c-0.41-0.37-0.99-0.21-1.29,0.35l-1.09,2.03
				L102.17,90.8C102.17,90.8,102.17,90.8,102.17,90.8z"/>
                <path stroke-width="0.4048" d="M106.55,92.42c0.04-0.03,0.09-0.06,0.13-0.09c0.25-0.18,0.48-0.36,0.69-0.53c0.31-0.25,0.58-0.5,0.79-0.7
				c0.32-0.3,0.51-0.5,0.52-0.52c0.3-0.33,0.43-0.87,0.32-1.34c-0.03-0.12-0.62-2.53-2.13-4.29c-0.01,0.01-0.01,0.03-0.02,0.04
				c-0.01,0.03-0.19,0.44-0.49,1.03c-0.15,0.3-0.34,0.65-0.56,1.02c-0.11,0.18-0.22,0.37-0.34,0.55c-0.04,0.06-0.07,0.11-0.11,0.16
				c-0.22,0.33-0.44,0.64-0.65,0.92c-0.24,0.31-0.49,0.59-0.73,0.84c-0.15,0.15-0.3,0.29-0.45,0.42c-0.28,0.25-0.57,0.45-0.86,0.61
				c-0.16,0.09-0.33,0.17-0.49,0.24c0,0,0,0,0,0l2.79,2.52C105.47,93.1,106,92.81,106.55,92.42z"/>
            </g>
            <g>
                <g>
                    <path stroke-width="0.2559" d="M188.98,156.81c-0.02-0.26-0.2-0.51-0.47-0.64c0.12-1.39-0.52-2.7-0.55-2.76
					c-0.13-0.26-0.41-0.45-0.71-0.47c-0.02,0-0.16-0.01-0.38-0.02c-0.49-1.43-1.62-2.53-1.67-2.58c-0.1-0.09-0.22-0.16-0.34-0.21
					c-0.15-0.05-0.32-0.06-0.47-0.02c-0.06,0.02-1.36,0.41-2.35,1.21c-0.25-0.18-0.42-0.28-0.43-0.29c-0.26-0.16-0.59-0.18-0.8-0.04
					c-0.05,0.03-1.16,0.76-1.64,2.02c-0.29-0.06-0.55,0.04-0.67,0.25c-0.05,0.09-1.32,2.34,0.21,4.6c0.43,0.63,1.03,1.18,1.76,1.62
					l-0.55,2.42c-0.07,0.33,0.18,0.7,0.56,0.83l1.4,0.47l1.4,0.47c0.39,0.13,0.76-0.03,0.83-0.36l0.54-2.39
					c0.72,0.06,1.49-0.01,2.2-0.32C189.12,159.65,188.99,156.93,188.98,156.81z"/>
                    <path stroke-width="0.2559" d="M188.98,156.81c-0.02-0.26-0.2-0.51-0.47-0.64c0.12-1.39-0.52-2.7-0.55-2.76
					c-0.13-0.26-0.41-0.45-0.71-0.47c-0.02,0-0.16-0.01-0.38-0.02c-0.49-1.43-1.62-2.53-1.67-2.58c-0.1-0.09-0.22-0.16-0.34-0.21
					c-0.15-0.05-0.32-0.06-0.47-0.02c-0.06,0.02-1.36,0.41-2.35,1.21c-0.25-0.18-0.42-0.28-0.43-0.29c-0.26-0.16-0.59-0.18-0.8-0.04
					c-0.05,0.03-1.16,0.76-1.64,2.02c-0.29-0.06-0.55,0.04-0.67,0.25c-0.05,0.09-1.32,2.34,0.21,4.6c0.43,0.63,1.03,1.18,1.76,1.62
					l-0.55,2.42c-0.07,0.33,0.18,0.7,0.56,0.83l1.4,0.47l1.4,0.47c0.39,0.13,0.76-0.03,0.83-0.36l0.54-2.39
					c0.72,0.06,1.49-0.01,2.2-0.32C189.12,159.65,188.99,156.93,188.98,156.81z"/>
                </g>
                <path stroke-width="0.2559" d="M184.16,153.22c0.43-0.13,0.89-0.21,1.32-0.25c0.24-0.02,0.48-0.04,0.69-0.05c0.28-0.01,0.52-0.01,0.71,0
				c-0.49-1.43-1.62-2.53-1.67-2.58c-0.1-0.09-0.22-0.16-0.34-0.21L184.16,153.22C184.16,153.22,184.16,153.22,184.16,153.22z"/>
                <path stroke-width="0.2559" d="M185.48,152.97c-0.43,0.04-0.88,0.12-1.32,0.25c0,0,0,0,0,0l-0.51,2.24c0.03-0.01,0.06-0.02,0.08-0.02
				c0.12-0.04,0.25-0.06,0.38-0.09c0.1-0.02,0.21-0.03,0.32-0.04c0.23-0.02,0.46-0.02,0.7,0c0.02,0,0.04,0,0.06,0
				c0.24,0.02,0.49,0.05,0.73,0.09c0.24,0.04,0.48,0.09,0.72,0.15c0.16,0.04,0.31,0.08,0.46,0.13c0.17,0.05,0.34,0.1,0.5,0.16
				c0.07,0.02,0.14,0.05,0.21,0.07c0.4,0.14,0.66,0.26,0.67,0.26c0.01,0,0.02,0.01,0.03,0.01c0.12-1.39-0.52-2.7-0.55-2.76
				c-0.13-0.26-0.41-0.45-0.71-0.47c-0.02,0-0.16-0.01-0.38-0.02c-0.19-0.01-0.43-0.01-0.71,0
				C185.95,152.93,185.72,152.95,185.48,152.97z"/>
                <path stroke-width="0.2559" d="M182.05,151.33c0.17,0.12,0.38,0.27,0.6,0.45c0.15,0.12,0.32,0.26,0.48,0.4c0.03,0.03,0.06,0.05,0.08,0.08
				c0.36,0.32,0.68,0.64,0.94,0.96l0.7-3.08c-0.15-0.05-0.32-0.06-0.47-0.02C184.33,150.14,183.03,150.54,182.05,151.33z"/>
                <path stroke-width="0.2559" d="M183.65,155.45c-0.08-0.1-0.17-0.21-0.27-0.3c-0.17-0.17-0.36-0.34-0.58-0.5
				c-0.11-0.08-0.23-0.17-0.36-0.25c-0.2-0.13-0.43-0.26-0.66-0.39c-0.21-0.11-0.44-0.22-0.68-0.32c-0.04-0.02-0.08-0.03-0.12-0.05
				c-0.13-0.06-0.27-0.11-0.39-0.16c-0.26-0.1-0.5-0.18-0.7-0.25c-0.4-0.13-0.67-0.19-0.69-0.2c-0.01,0-0.02,0-0.03-0.01
				c-0.29-0.06-0.55,0.04-0.67,0.25c-0.05,0.09-1.32,2.34,0.21,4.6c0.43,0.63,1.03,1.18,1.76,1.62l-0.55,2.42
				c-0.07,0.33,0.18,0.7,0.56,0.83l1.4,0.47L183.65,155.45C183.65,155.45,183.65,155.45,183.65,155.45z"/>
                <path stroke-width="0.2559" d="M183.22,152.26c-0.03-0.03-0.06-0.05-0.08-0.08c-0.17-0.14-0.33-0.28-0.48-0.4
				c-0.23-0.18-0.43-0.33-0.6-0.45c-0.25-0.18-0.42-0.28-0.43-0.29c-0.26-0.16-0.59-0.18-0.8-0.04c-0.05,0.03-1.16,0.76-1.64,2.02
				c0.01,0,0.02,0,0.03,0.01c0.02,0,0.29,0.07,0.69,0.2c0.2,0.07,0.44,0.15,0.7,0.25c0.13,0.05,0.26,0.1,0.39,0.16
				c0.04,0.02,0.08,0.03,0.12,0.05c0.24,0.1,0.46,0.21,0.68,0.32c0.24,0.12,0.46,0.25,0.66,0.39c0.12,0.08,0.24,0.16,0.36,0.25
				c0.21,0.16,0.41,0.33,0.58,0.5c0.1,0.1,0.19,0.2,0.27,0.3c0,0,0,0,0,0l0.51-2.24C183.9,152.9,183.59,152.58,183.22,152.26z"/>
            </g>
            <g>
                <g>
                    <path stroke-width="0.3947" d="M104.24,179.21c-0.13-0.47-0.45-0.8-0.8-0.83c-0.5-2.69-1.79-4.66-1.85-4.75
					c-0.26-0.39-0.65-0.53-0.99-0.35c-0.02,0.01-0.18,0.1-0.43,0.25c-1.19-2.31-2.92-3.5-3-3.56c-0.15-0.1-0.31-0.14-0.47-0.13
					c-0.19,0.02-0.38,0.13-0.52,0.32c-0.06,0.08-1.31,1.8-2.03,4.02c-0.35-0.14-0.58-0.21-0.6-0.21c-0.36-0.11-0.72,0.11-0.9,0.54
					c-0.04,0.1-0.93,2.29-0.89,5.02c-0.34,0.11-0.59,0.49-0.63,0.98c-0.02,0.22-0.39,5.37,2.31,8.44c0.76,0.86,1.66,1.43,2.67,1.71
					l0.49,4.93c0.07,0.67,0.51,1.17,0.99,1.13l1.74-0.17l1.74-0.17c0.48-0.05,0.82-0.63,0.75-1.3l-0.48-4.87
					c0.82-0.44,1.63-1.14,2.27-2.25C105.67,184.4,104.3,179.42,104.24,179.21z"/>
                    <path stroke-width="0.3947" d="M104.24,179.21c-0.13-0.47-0.45-0.8-0.8-0.83c-0.5-2.69-1.79-4.66-1.85-4.75
					c-0.26-0.39-0.65-0.53-0.99-0.35c-0.02,0.01-0.18,0.1-0.43,0.25c-1.19-2.31-2.92-3.5-3-3.56c-0.15-0.1-0.31-0.14-0.47-0.13
					c-0.19,0.02-0.38,0.13-0.52,0.32c-0.06,0.08-1.31,1.8-2.03,4.02c-0.35-0.14-0.58-0.21-0.6-0.21c-0.36-0.11-0.72,0.11-0.9,0.54
					c-0.04,0.1-0.93,2.29-0.89,5.02c-0.34,0.11-0.59,0.49-0.63,0.98c-0.02,0.22-0.39,5.37,2.31,8.44c0.76,0.86,1.66,1.43,2.67,1.71
					l0.49,4.93c0.07,0.67,0.51,1.17,0.99,1.13l1.74-0.17l1.74-0.17c0.48-0.05,0.82-0.63,0.75-1.3l-0.48-4.87
					c0.82-0.44,1.63-1.14,2.27-2.25C105.67,184.4,104.3,179.42,104.24,179.21z"/>
                </g>
                <path stroke-width="0.3947" d="M97.32,176.12c0.42-0.57,0.88-1.05,1.33-1.45c0.26-0.23,0.51-0.43,0.74-0.6c0.3-0.23,0.57-0.4,0.77-0.53
				c-1.19-2.31-2.92-3.5-3-3.56c-0.15-0.1-0.31-0.14-0.47-0.13L97.32,176.12C97.32,176.12,97.32,176.12,97.32,176.12z"/>
                <path stroke-width="0.3947" d="M98.65,174.67c-0.45,0.4-0.92,0.89-1.33,1.45c0,0,0,0,0,0l0.45,4.57c0.03-0.04,0.05-0.07,0.08-0.11
				c0.12-0.16,0.25-0.31,0.38-0.45c0.11-0.11,0.22-0.21,0.33-0.31c0.24-0.21,0.5-0.38,0.77-0.54c0.02-0.01,0.05-0.03,0.07-0.04
				c0.27-0.15,0.56-0.28,0.84-0.38c0.29-0.11,0.57-0.19,0.86-0.26c0.19-0.05,0.38-0.08,0.56-0.11c0.21-0.04,0.42-0.06,0.62-0.08
				c0.09-0.01,0.18-0.02,0.26-0.02c0.51-0.04,0.84-0.02,0.86-0.02c0.01,0,0.02,0,0.03,0c-0.5-2.69-1.79-4.66-1.85-4.75
				c-0.26-0.39-0.65-0.53-0.99-0.35c-0.02,0.01-0.18,0.1-0.43,0.25c-0.21,0.13-0.47,0.31-0.77,0.53
				C99.16,174.24,98.91,174.44,98.65,174.67z"/>
                <path stroke-width="0.3947" d="M94.15,174.19c0.24,0.09,0.54,0.22,0.86,0.38c0.22,0.11,0.47,0.24,0.71,0.39c0.04,0.03,0.08,0.05,0.13,0.08
				c0.55,0.33,1.03,0.69,1.46,1.09l-0.62-6.28c-0.19,0.02-0.38,0.13-0.52,0.32C96.12,170.25,94.87,171.96,94.15,174.19z"/>
                <path stroke-width="0.3947" d="M97.77,180.69c-0.14-0.13-0.28-0.25-0.44-0.37c-0.26-0.2-0.55-0.36-0.86-0.5c-0.16-0.07-0.33-0.14-0.5-0.2
				c-0.29-0.1-0.59-0.17-0.9-0.22c-0.28-0.05-0.58-0.08-0.89-0.09c-0.05,0-0.1-0.01-0.15-0.01c-0.17,0-0.34,0-0.5,0
				c-0.33,0.01-0.63,0.04-0.88,0.07c-0.5,0.06-0.82,0.15-0.85,0.15c-0.01,0-0.02,0.01-0.03,0.01c-0.34,0.11-0.59,0.49-0.63,0.98
				c-0.02,0.22-0.39,5.37,2.31,8.44c0.76,0.86,1.66,1.43,2.67,1.71l0.49,4.93c0.07,0.67,0.51,1.17,0.99,1.13l1.74-0.17L97.77,180.69
				C97.77,180.69,97.77,180.69,97.77,180.69z"/>
                <path stroke-width="0.3947" d="M95.85,175.03c-0.04-0.03-0.08-0.05-0.13-0.08c-0.25-0.15-0.49-0.27-0.71-0.39
				c-0.33-0.16-0.63-0.29-0.86-0.38c-0.35-0.14-0.58-0.21-0.6-0.21c-0.36-0.11-0.72,0.11-0.9,0.54c-0.04,0.1-0.93,2.29-0.89,5.02
				c0.01,0,0.02-0.01,0.03-0.01c0.02-0.01,0.35-0.09,0.85-0.15c0.25-0.03,0.55-0.06,0.88-0.07c0.16-0.01,0.33-0.01,0.5,0
				c0.05,0,0.1,0,0.15,0.01c0.31,0.01,0.61,0.05,0.89,0.09c0.32,0.05,0.62,0.13,0.9,0.22c0.17,0.06,0.34,0.12,0.5,0.2
				c0.31,0.14,0.59,0.31,0.86,0.5c0.15,0.11,0.3,0.23,0.44,0.37c0,0,0,0,0,0l-0.45-4.57C96.89,175.73,96.4,175.37,95.85,175.03z"/>
            </g>
            <g>
                <g>
                    <path stroke-width="0.3493" d="M139.56,84.62c-0.37,0.02-0.68,0.27-0.8,0.62c-2.04-0.13-3.78,0.72-3.86,0.76
					c-0.34,0.17-0.54,0.54-0.5,0.92c0,0.03,0.02,0.21,0.07,0.49c-1.95,0.66-3.25,2.12-3.31,2.19c-0.11,0.13-0.18,0.28-0.21,0.44
					c-0.04,0.2-0.01,0.41,0.09,0.6c0.04,0.08,0.94,1.74,2.34,2.99c-0.19,0.33-0.3,0.54-0.31,0.56c-0.17,0.34-0.11,0.75,0.15,1.03
					c0.06,0.07,1.39,1.47,3.35,2.07c-0.01,0.37,0.2,0.71,0.53,0.86c0.15,0.07,3.73,1.65,6.61-0.36c0.81-0.56,1.45-1.34,1.9-2.29
					l3.64,0.66c0.49,0.09,0.97-0.24,1.06-0.74l0.33-1.8l0.33-1.8c0.09-0.5-0.24-0.97-0.73-1.06l-3.6-0.65
					c-0.1-0.93-0.39-1.91-1.02-2.82C143.63,84.39,139.73,84.61,139.56,84.62z"/>
                    <path stroke-width="0.3493" d="M139.56,84.62c-0.37,0.02-0.68,0.27-0.8,0.62c-2.04-0.13-3.78,0.72-3.86,0.76
					c-0.34,0.17-0.54,0.54-0.5,0.92c0,0.03,0.02,0.21,0.07,0.49c-1.95,0.66-3.25,2.12-3.31,2.19c-0.11,0.13-0.18,0.28-0.21,0.44
					c-0.04,0.2-0.01,0.41,0.09,0.6c0.04,0.08,0.94,1.74,2.34,2.99c-0.19,0.33-0.3,0.54-0.31,0.56c-0.17,0.34-0.11,0.75,0.15,1.03
					c0.06,0.07,1.39,1.47,3.35,2.07c-0.01,0.37,0.2,0.71,0.53,0.86c0.15,0.07,3.73,1.65,6.61-0.36c0.81-0.56,1.45-1.34,1.9-2.29
					l3.64,0.66c0.49,0.09,0.97-0.24,1.06-0.74l0.33-1.8l0.33-1.8c0.09-0.5-0.24-0.97-0.73-1.06l-3.6-0.65
					c-0.1-0.93-0.39-1.91-1.02-2.82C143.63,84.39,139.73,84.61,139.56,84.62z"/>
                </g>
                <path stroke-width="0.3493" d="M135.58,90.88c-0.3-0.55-0.52-1.14-0.69-1.69c-0.1-0.31-0.18-0.61-0.24-0.88
				c-0.08-0.36-0.14-0.67-0.18-0.91c-1.95,0.66-3.25,2.12-3.31,2.19c-0.11,0.13-0.18,0.28-0.21,0.44L135.58,90.88
				C135.58,90.89,135.58,90.88,135.58,90.88z"/>
                <path stroke-width="0.3493" d="M134.89,89.2c0.17,0.55,0.4,1.13,0.69,1.69c0,0,0,0,0,0l3.37,0.61c-0.02-0.04-0.04-0.07-0.06-0.11
				c-0.08-0.16-0.16-0.32-0.22-0.49c-0.05-0.13-0.09-0.27-0.13-0.4c-0.08-0.29-0.14-0.59-0.18-0.9c0-0.03-0.01-0.05-0.01-0.08
				c-0.04-0.31-0.05-0.63-0.06-0.94c0-0.31,0.01-0.62,0.04-0.92c0.02-0.2,0.04-0.4,0.06-0.6c0.03-0.22,0.06-0.44,0.1-0.64
				c0.02-0.1,0.03-0.19,0.05-0.27c0.11-0.52,0.2-0.85,0.21-0.87c0-0.01,0.01-0.02,0.01-0.03c-2.04-0.13-3.78,0.72-3.86,0.76
				c-0.34,0.17-0.54,0.54-0.5,0.92c0,0.03,0.02,0.21,0.07,0.49c0.04,0.24,0.1,0.55,0.18,0.91C134.71,88.59,134.79,88.89,134.89,89.2
				z"/>
                <path stroke-width="0.3493" d="M133.38,93.63c0.13-0.22,0.3-0.49,0.5-0.78c0.14-0.2,0.29-0.41,0.46-0.63c0.03-0.04,0.06-0.07,0.09-0.11
				c0.38-0.47,0.76-0.88,1.15-1.22l-4.63-0.84c-0.04,0.2-0.01,0.41,0.09,0.6C131.08,90.72,131.98,92.38,133.38,93.63z"/>
                <path stroke-width="0.3493" d="M138.95,91.5c-0.13,0.11-0.25,0.23-0.37,0.35c-0.21,0.22-0.4,0.47-0.58,0.75c-0.09,0.15-0.18,0.3-0.27,0.46
				c-0.14,0.27-0.27,0.55-0.39,0.86c-0.11,0.28-0.21,0.57-0.3,0.88c-0.01,0.05-0.03,0.1-0.04,0.15c-0.05,0.17-0.09,0.34-0.13,0.51
				c-0.08,0.33-0.14,0.64-0.18,0.91c-0.08,0.52-0.11,0.86-0.11,0.89c0,0.01,0,0.02,0,0.04c-0.01,0.37,0.2,0.71,0.53,0.86
				c0.15,0.07,3.73,1.65,6.61-0.36c0.81-0.56,1.45-1.34,1.9-2.29l3.64,0.66c0.49,0.09,0.97-0.24,1.06-0.74l0.33-1.8L138.95,91.5
				C138.95,91.5,138.95,91.5,138.95,91.5z"/>
                <path stroke-width="0.3493" d="M134.42,92.11c-0.03,0.04-0.06,0.07-0.09,0.11c-0.17,0.22-0.32,0.43-0.46,0.63
				c-0.2,0.29-0.37,0.56-0.5,0.78c-0.19,0.33-0.3,0.54-0.31,0.56c-0.17,0.34-0.11,0.75,0.15,1.03c0.06,0.07,1.39,1.47,3.35,2.07
				c0-0.01,0-0.02,0-0.04c0-0.02,0.03-0.37,0.11-0.89c0.04-0.26,0.1-0.57,0.18-0.91c0.04-0.16,0.08-0.33,0.13-0.51
				c0.01-0.05,0.03-0.1,0.04-0.15c0.09-0.31,0.19-0.6,0.3-0.88c0.12-0.31,0.25-0.59,0.39-0.86c0.09-0.16,0.18-0.32,0.27-0.46
				c0.18-0.28,0.37-0.53,0.58-0.75c0.12-0.13,0.24-0.25,0.37-0.35c0,0,0,0,0,0l-3.37-0.61C135.19,91.23,134.8,91.63,134.42,92.11z" />
            </g>
            <g>
                <g>
                    <path stroke-width="0.4483" d="M53.81,115.47c0.35,0.15,0.79-0.05,1.11-0.49c1.8,1.23,3.91,0.88,4.01,0.86c0.42-0.07,0.82-0.5,1.01-1.08
					c0.01-0.04,0.11-0.32,0.23-0.75c2.19,0.03,4.26-1.45,4.36-1.52c0.18-0.13,0.34-0.32,0.46-0.53c0.15-0.27,0.25-0.6,0.27-0.92
					c0.01-0.14,0.18-3.02-0.36-5.55c0.37-0.38,0.6-0.63,0.62-0.66c0.36-0.41,0.55-1.04,0.48-1.58c-0.02-0.13-0.39-2.85-1.83-4.72
					c0.23-0.53,0.24-1.13,0.03-1.52c-0.1-0.18-2.43-4.31-6.3-2.84c-1.08,0.41-2.14,1.22-3.13,2.37l-2.95-2.81
					c-0.4-0.38-1.04-0.14-1.42,0.54l-1.38,2.46l-1.38,2.46c-0.38,0.68-0.37,1.54,0.03,1.92l2.92,2.78
					c-0.47,1.41-0.79,2.99-0.76,4.63C49.92,113.74,53.65,115.4,53.81,115.47z"/>
                    <path stroke-width="0.4483" d="M53.81,115.47c0.35,0.15,0.79-0.05,1.11-0.49c1.8,1.23,3.91,0.88,4.01,0.86c0.42-0.07,0.82-0.5,1.01-1.08
					c0.01-0.04,0.11-0.32,0.23-0.75c2.19,0.03,4.26-1.45,4.36-1.52c0.18-0.13,0.34-0.32,0.46-0.53c0.15-0.27,0.25-0.6,0.27-0.92
					c0.01-0.14,0.18-3.02-0.36-5.55c0.37-0.38,0.6-0.63,0.62-0.66c0.36-0.41,0.55-1.04,0.48-1.58c-0.02-0.13-0.39-2.85-1.83-4.72
					c0.23-0.53,0.24-1.13,0.03-1.52c-0.1-0.18-2.43-4.31-6.3-2.84c-1.08,0.41-2.14,1.22-3.13,2.37l-2.95-2.81
					c-0.4-0.38-1.04-0.14-1.42,0.54l-1.38,2.46l-1.38,2.46c-0.38,0.68-0.37,1.54,0.03,1.92l2.92,2.78
					c-0.47,1.41-0.79,2.99-0.76,4.63C49.92,113.74,53.65,115.4,53.81,115.47z"/>
                </g>
                <path stroke-width="0.4483" d="M61.24,108.37c-0.06,0.96-0.2,1.92-0.38,2.81c-0.1,0.5-0.21,0.98-0.31,1.41c-0.14,0.56-0.27,1.04-0.38,1.41
				c2.19,0.03,4.26-1.45,4.36-1.52c0.18-0.13,0.34-0.32,0.46-0.53L61.24,108.37C61.24,108.36,61.24,108.37,61.24,108.37z"/>
                <path stroke-width="0.4483" d="M60.86,111.18c0.17-0.89,0.32-1.86,0.38-2.81c0,0,0,0,0,0l-2.73-2.61c0,0.06-0.01,0.12-0.01,0.18
				c-0.02,0.27-0.05,0.55-0.09,0.83c-0.03,0.22-0.07,0.44-0.12,0.66c-0.1,0.47-0.23,0.94-0.37,1.41c-0.01,0.04-0.03,0.08-0.04,0.12
				c-0.15,0.47-0.33,0.94-0.51,1.4c-0.19,0.46-0.39,0.9-0.59,1.33c-0.14,0.29-0.28,0.57-0.42,0.84c-0.16,0.31-0.32,0.6-0.48,0.88
				c-0.07,0.13-0.14,0.25-0.21,0.37c-0.41,0.7-0.7,1.14-0.72,1.16c-0.01,0.02-0.02,0.03-0.03,0.04c1.8,1.23,3.91,0.88,4.01,0.86
				c0.42-0.07,0.82-0.5,1.01-1.08c0.01-0.04,0.11-0.32,0.23-0.75c0.11-0.37,0.24-0.85,0.38-1.41
				C60.66,112.16,60.76,111.68,60.86,111.18z"/>
                <path stroke-width="0.4483" d="M64.91,105.48c-0.25,0.25-0.57,0.56-0.93,0.89c-0.25,0.22-0.52,0.46-0.8,0.68
				c-0.05,0.04-0.1,0.08-0.15,0.12c-0.63,0.5-1.23,0.9-1.79,1.2l3.75,3.58c0.15-0.27,0.25-0.6,0.27-0.92
				C65.28,110.89,65.45,108.01,64.91,105.48z"/>
                <path stroke-width="0.4483" d="M58.51,105.76c0.18-0.09,0.37-0.2,0.56-0.33c0.32-0.22,0.65-0.48,0.98-0.8c0.17-0.16,0.35-0.34,0.53-0.53
				c0.29-0.32,0.58-0.67,0.88-1.05c0.26-0.35,0.53-0.72,0.8-1.13c0.04-0.07,0.09-0.13,0.13-0.2c0.15-0.23,0.29-0.46,0.42-0.67
				c0.27-0.45,0.51-0.87,0.71-1.23c0.39-0.71,0.62-1.2,0.64-1.24c0.01-0.02,0.02-0.04,0.02-0.05c0.23-0.53,0.24-1.13,0.03-1.52
				c-0.1-0.18-2.43-4.31-6.3-2.84c-1.08,0.41-2.14,1.22-3.13,2.37l-2.95-2.81c-0.4-0.38-1.04-0.14-1.42,0.54l-1.38,2.46
				L58.51,105.76C58.51,105.76,58.51,105.76,58.51,105.76z"/>
                <path stroke-width="0.4483" d="M63.03,107.17c0.05-0.04,0.1-0.08,0.15-0.12c0.28-0.23,0.55-0.46,0.8-0.68c0.36-0.33,0.68-0.63,0.93-0.89
				c0.37-0.38,0.6-0.63,0.62-0.66c0.36-0.41,0.55-1.04,0.48-1.58c-0.02-0.13-0.39-2.85-1.83-4.72c-0.01,0.02-0.01,0.04-0.02,0.05
				c-0.02,0.04-0.25,0.53-0.64,1.24c-0.2,0.36-0.44,0.78-0.71,1.23c-0.13,0.22-0.27,0.45-0.42,0.67c-0.04,0.07-0.09,0.13-0.13,0.2
				c-0.27,0.4-0.53,0.78-0.8,1.13c-0.29,0.39-0.59,0.74-0.88,1.05c-0.18,0.19-0.35,0.37-0.53,0.53c-0.33,0.31-0.66,0.58-0.98,0.8
				c-0.19,0.12-0.37,0.23-0.56,0.33c0,0,0,0,0,0l2.73,2.61C61.8,108.07,62.4,107.67,63.03,107.17z"/>
            </g>
            <g>
                <g>
                    <path stroke-width="0.2559" d="M208.15,91.73c-0.02-0.26-0.2-0.51-0.47-0.64c0.12-1.39-0.52-2.7-0.55-2.76
					c-0.13-0.26-0.41-0.45-0.71-0.47c-0.02,0-0.16-0.01-0.38-0.02c-0.49-1.43-1.62-2.53-1.67-2.58c-0.1-0.09-0.22-0.16-0.34-0.21
					c-0.15-0.05-0.32-0.06-0.47-0.02c-0.06,0.02-1.36,0.41-2.35,1.21c-0.25-0.18-0.42-0.28-0.43-0.29c-0.26-0.16-0.59-0.18-0.8-0.04
					c-0.05,0.03-1.16,0.76-1.64,2.02c-0.29-0.06-0.55,0.04-0.67,0.25c-0.05,0.09-1.32,2.34,0.21,4.6c0.43,0.63,1.03,1.18,1.76,1.62
					l-0.55,2.42c-0.07,0.33,0.18,0.7,0.56,0.83l1.4,0.47l1.4,0.47c0.39,0.13,0.76-0.03,0.83-0.36l0.54-2.39
					c0.72,0.06,1.49-0.01,2.2-0.32C208.3,94.57,208.16,91.85,208.15,91.73z"/>
                    <path stroke-width="0.2559" d="M208.15,91.73c-0.02-0.26-0.2-0.51-0.47-0.64c0.12-1.39-0.52-2.7-0.55-2.76
					c-0.13-0.26-0.41-0.45-0.71-0.47c-0.02,0-0.16-0.01-0.38-0.02c-0.49-1.43-1.62-2.53-1.67-2.58c-0.1-0.09-0.22-0.16-0.34-0.21
					c-0.15-0.05-0.32-0.06-0.47-0.02c-0.06,0.02-1.36,0.41-2.35,1.21c-0.25-0.18-0.42-0.28-0.43-0.29c-0.26-0.16-0.59-0.18-0.8-0.04
					c-0.05,0.03-1.16,0.76-1.64,2.02c-0.29-0.06-0.55,0.04-0.67,0.25c-0.05,0.09-1.32,2.34,0.21,4.6c0.43,0.63,1.03,1.18,1.76,1.62
					l-0.55,2.42c-0.07,0.33,0.18,0.7,0.56,0.83l1.4,0.47l1.4,0.47c0.39,0.13,0.76-0.03,0.83-0.36l0.54-2.39
					c0.72,0.06,1.49-0.01,2.2-0.32C208.3,94.57,208.16,91.85,208.15,91.73z"/>
                </g>
                <path stroke-width="0.2559" d="M203.33,88.14c0.43-0.13,0.89-0.21,1.32-0.25c0.24-0.02,0.48-0.04,0.69-0.05c0.28-0.01,0.52-0.01,0.71,0
				c-0.49-1.43-1.62-2.53-1.67-2.58c-0.1-0.09-0.22-0.16-0.34-0.21L203.33,88.14C203.33,88.14,203.33,88.14,203.33,88.14z"/>
                <path stroke-width="0.2559" d="M204.65,87.89c-0.43,0.04-0.88,0.12-1.32,0.25c0,0,0,0,0,0l-0.51,2.24c0.03-0.01,0.06-0.02,0.08-0.02
				c0.12-0.04,0.25-0.06,0.38-0.09c0.1-0.02,0.21-0.03,0.32-0.04c0.23-0.02,0.46-0.02,0.7,0c0.02,0,0.04,0,0.06,0
				c0.24,0.02,0.49,0.05,0.73,0.09c0.24,0.04,0.48,0.09,0.72,0.15c0.16,0.04,0.31,0.08,0.46,0.13c0.17,0.05,0.34,0.1,0.5,0.16
				c0.07,0.02,0.14,0.05,0.21,0.07c0.4,0.14,0.66,0.26,0.67,0.26c0.01,0,0.02,0.01,0.03,0.01c0.12-1.39-0.52-2.7-0.55-2.76
				c-0.13-0.26-0.41-0.45-0.71-0.47c-0.02,0-0.16-0.01-0.38-0.02c-0.19-0.01-0.43-0.01-0.71,0
				C205.12,87.85,204.89,87.87,204.65,87.89z"/>
                <path stroke-width="0.2559" d="M201.22,86.25c0.17,0.12,0.38,0.27,0.6,0.45c0.15,0.12,0.32,0.26,0.48,0.4c0.03,0.03,0.06,0.05,0.08,0.08
				c0.36,0.32,0.68,0.64,0.94,0.96l0.7-3.08c-0.15-0.05-0.32-0.06-0.47-0.02C203.5,85.06,202.2,85.46,201.22,86.25z"/>
                <path stroke-width="0.2559" d="M202.82,90.37c-0.08-0.1-0.17-0.21-0.27-0.3c-0.17-0.17-0.36-0.34-0.58-0.5c-0.11-0.08-0.23-0.17-0.36-0.25
				c-0.2-0.13-0.43-0.26-0.66-0.39c-0.21-0.11-0.44-0.22-0.68-0.32c-0.04-0.02-0.08-0.03-0.12-0.05c-0.13-0.06-0.27-0.11-0.39-0.16
				c-0.26-0.1-0.5-0.18-0.7-0.25c-0.4-0.13-0.67-0.19-0.69-0.2c-0.01,0-0.02,0-0.03-0.01c-0.29-0.06-0.55,0.04-0.67,0.25
				c-0.05,0.09-1.32,2.34,0.21,4.6c0.43,0.63,1.03,1.18,1.76,1.62l-0.55,2.42c-0.07,0.33,0.18,0.7,0.56,0.83l1.4,0.47L202.82,90.37
				C202.82,90.37,202.82,90.37,202.82,90.37z"/>
                <path stroke-width="0.2559" d="M202.39,87.18c-0.03-0.03-0.06-0.05-0.08-0.08c-0.17-0.14-0.33-0.28-0.48-0.4
				c-0.23-0.18-0.43-0.33-0.6-0.45c-0.25-0.18-0.42-0.28-0.43-0.29c-0.26-0.16-0.59-0.18-0.8-0.04c-0.05,0.03-1.16,0.76-1.64,2.02
				c0.01,0,0.02,0,0.03,0.01c0.02,0,0.29,0.07,0.69,0.2c0.2,0.07,0.44,0.15,0.7,0.25c0.13,0.05,0.26,0.1,0.39,0.16
				c0.04,0.02,0.08,0.03,0.12,0.05c0.24,0.1,0.46,0.21,0.68,0.32c0.24,0.12,0.46,0.25,0.66,0.39c0.12,0.08,0.24,0.16,0.36,0.25
				c0.21,0.16,0.41,0.33,0.58,0.5c0.1,0.1,0.19,0.2,0.27,0.3c0,0,0,0,0,0l0.51-2.24C203.07,87.82,202.76,87.5,202.39,87.18z"/>
            </g>
        </g>
    </g>
</svg>